<svg width="51" height="51" viewBox="0 0 51 51" fill="none" xmlns="http://www.w3.org/2000/svg">
<path d="M31.7316 9.85653C32.7865 10.6082 32.7865 10.6082 33.8403 11.654C34.0278 11.8392 34.2152 12.0244 34.4083 12.2152C34.8018 12.6071 35.1923 13.0019 35.58 13.3994C36.1733 14.0052 36.778 14.5975 37.3849 15.1895C37.7667 15.5727 38.1476 15.9567 38.5278 16.3415C38.8729 16.6893 39.2181 17.037 39.5736 17.3953C40.4921 18.6843 40.5005 19.24 40.3253 20.794C39.7321 21.6691 39.7321 21.6691 38.891 22.4944C38.5782 22.8071 38.2653 23.1197 37.943 23.4418C37.6013 23.7715 37.2595 24.1012 36.9073 24.4409C36.5605 24.7844 36.2137 25.1279 35.8564 25.4818C34.9357 26.3916 34.0103 27.296 33.0822 28.1981C32.1354 29.1209 31.1952 30.0503 30.2545 30.9793C28.4092 32.7988 26.5573 34.6114 24.7003 36.419C23.1624 35.7078 22.1092 34.7095 20.9344 33.5107C20.7286 33.3037 20.5227 33.0967 20.3106 32.8835C19.6561 32.2246 19.0043 31.5631 18.3527 30.9014C17.9083 30.4532 17.4638 30.0051 17.019 29.5571C15.9316 28.4611 14.8465 27.3626 13.7628 26.2628C14.2938 25.1454 14.7961 24.3646 15.7159 23.5284C17.1877 24.0945 18.006 25.0392 19.0118 26.2063C19.6136 26.757 19.6136 26.757 20.4767 26.5268C20.7103 26.4396 20.944 26.3525 21.1847 26.2628C20.6186 24.791 19.6739 23.9728 18.5068 22.9669C18.0597 22.3565 18.0597 22.3565 18.1543 21.5463C18.5104 20.6413 18.8245 20.1835 19.6222 19.6222C21.2556 19.8218 21.8885 20.6684 22.9181 21.8576C23.5987 22.5213 23.5987 22.5214 25.0909 22.3565C25.0308 20.3708 23.911 19.4825 22.5504 18.1985C22.3575 18.0238 22.1646 17.849 21.9659 17.669C22.6105 16.8956 23.255 16.1222 23.9191 15.3253C25.3908 15.8913 26.2091 16.836 27.215 18.0032C27.8167 18.5538 27.8167 18.5538 28.6798 18.3236C28.9135 18.2365 29.1471 18.1494 29.3878 18.0597C29.1653 16.6432 28.6364 16.0068 27.6056 15.0323C27.3553 14.7926 27.1051 14.5529 26.8472 14.306C26.6544 14.1267 26.4615 13.9475 26.2628 13.7628C26.7652 12.6726 27.2958 11.8063 28.1183 10.9307C28.3016 10.7273 28.4849 10.5239 28.6737 10.3143C29.7483 9.62544 30.4737 9.7157 31.7316 9.85653Z" fill="#004E89"/>
<path d="M35.6378 26.6534C37.6334 26.6438 39.6289 26.6367 41.6245 26.6319C42.3039 26.63 42.9833 26.6273 43.6627 26.6239C44.6371 26.6192 45.6115 26.617 46.586 26.6153C46.8916 26.6132 47.1972 26.6112 47.512 26.6091C48.2416 26.6091 48.9711 26.6292 49.7003 26.6534C50.3059 27.259 50.1863 27.8396 50.213 28.6798C50.1985 30.5031 49.6869 31.4723 48.5284 32.9034C48.2706 33.2901 48.0128 33.6768 47.7472 34.0753C48.0614 34.4378 48.3756 34.8004 48.6993 35.1739C50.4958 37.2468 50.0909 38.4469 50.0909 41.4972C45.1925 41.4972 40.2941 41.4972 35.2472 41.4972C35.2472 38.2075 35.3197 36.7371 37.5909 34.4659C37.4869 32.9573 36.5802 32.0694 35.6378 30.9503C35.0546 29.7839 35.2013 28.7204 35.2472 27.4347C35.3761 27.1768 35.505 26.919 35.6378 26.6534Z" fill="#004E89"/>
<path d="M11.4191 27.8253C12.9836 28.4517 14.0273 29.5523 15.1849 30.7336C15.4937 31.0441 15.4937 31.0441 15.8088 31.3608C16.4633 32.0197 17.115 32.6812 17.7667 33.3429C18.2111 33.7911 18.6556 34.2392 19.1003 34.6872C20.1878 35.7832 21.2728 36.8817 22.3566 37.9815C22.2277 38.2071 22.0988 38.4327 21.9659 38.6651C21.427 39.8778 21.521 40.8532 21.795 42.1319C21.9659 43.0597 21.9659 43.0597 21.5753 43.8409C20.8917 44.1583 20.8917 44.1583 20.0128 44.2315C18.1314 43.3186 16.7782 41.8978 15.3192 40.4367C15.0628 40.1819 14.8064 39.9272 14.5422 39.6647C14.0028 39.1276 13.4644 38.5894 12.927 38.0503C12.1034 37.2254 11.2747 36.4059 10.4456 35.5867C9.92135 35.0633 9.39746 34.5397 8.8739 34.0158C8.62571 33.7712 8.37752 33.5266 8.12181 33.2746C7.89352 33.0439 7.66524 32.8131 7.43004 32.5754C7.22861 32.3743 7.02719 32.1731 6.81966 31.9658C6.25484 31.2285 6.07179 30.6967 5.95031 29.7784C6.07922 29.3917 6.20813 29.005 6.34094 28.6065C7.92466 28.154 8.76989 28.2796 10.2472 28.9972C10.6339 28.6104 11.0206 28.2237 11.4191 27.8253Z" fill="#004E89"/>
<path d="M7.51281 36.0284C8.79865 36.6713 9.38666 37.0257 10.3387 37.9968C10.5628 38.2234 10.7869 38.45 11.0178 38.6834C11.2469 38.9191 11.476 39.1547 11.712 39.3975C11.9472 39.6362 12.1823 39.8749 12.4246 40.1208C13.0027 40.708 13.5783 41.2977 14.1534 41.8878C13.6033 43.1437 12.9412 43.9666 11.9562 44.9151C11.7094 45.1548 11.4627 45.3945 11.2085 45.6414C11.0202 45.8207 10.8318 46 10.6378 46.1847C10.7652 46.4208 10.8926 46.657 11.0239 46.9003C11.4918 47.9031 11.5078 48.6056 11.4191 49.7003C11.0284 50.0909 11.0284 50.0909 9.96395 50.2277C8.28568 50.0482 7.76456 49.473 6.57592 48.2934C6.38849 48.1082 6.20106 47.923 6.00795 47.7322C5.61449 47.3404 5.22396 46.9455 4.83623 46.548C4.24299 45.9422 3.63828 45.3499 3.03131 44.758C2.64959 44.3747 2.26861 43.9907 1.88842 43.6059C1.54331 43.2582 1.1982 42.9104 0.842625 42.5521C-0.0469462 41.3036 -0.101898 40.6544 0.0909392 39.1534C0.481564 38.7628 0.481564 38.7628 1.38488 38.6895C2.43469 38.7628 2.43469 38.7628 3.99719 39.544C5.15735 38.3839 6.3175 37.2237 7.51281 36.0284Z" fill="#004E89"/>
<path d="M35.2472 44.2315C40.1456 44.2315 45.0441 44.2315 50.0909 44.2315C50.0909 46.0362 50.0909 47.8409 50.0909 49.7003C49.7003 50.0909 49.7003 50.0909 48.3651 50.1352C47.772 50.1352 47.179 50.133 46.586 50.129C46.2744 50.1285 45.9628 50.1279 45.6418 50.1274C44.6427 50.1252 43.6437 50.1203 42.6446 50.1153C41.9689 50.1134 41.2932 50.1116 40.6175 50.11C38.9576 50.1057 37.2977 50.0989 35.6378 50.0909C34.7624 48.3401 35.2472 46.189 35.2472 44.2315Z" fill="#004E89"/>
<path d="M49.7003 0.0909018C50.0909 0.481527 50.0909 0.481527 50.2275 1.55136C50.0488 3.2179 49.4921 3.69567 48.2965 4.84859C48.1144 5.02735 47.9324 5.20611 47.7448 5.39029C47.1649 5.95706 46.5775 6.51512 45.9894 7.07332C45.5936 7.4573 45.1984 7.84181 44.8038 8.22689C43.8378 9.16709 42.8648 10.0997 41.8878 11.0284C42.0177 11.2656 42.1476 11.5027 42.2815 11.7471C42.7947 12.8644 42.6903 13.3967 42.2784 14.544C41.7628 14.9307 41.2472 15.3175 40.7159 15.7159C38.6534 13.6534 36.5909 11.5909 34.4659 9.4659C34.9816 8.82137 35.4972 8.17684 36.0284 7.51278C36.4635 7.60946 36.4635 7.60946 36.9073 7.70809C38.0558 7.94999 38.0558 7.94999 39.5441 7.9034C40.4477 7.1779 40.4477 7.1779 41.3232 6.19442C41.6601 5.84194 41.997 5.48946 42.3441 5.1263C43.0476 4.37506 43.7495 3.62229 44.4498 2.868C44.7876 2.51552 45.1255 2.16305 45.4736 1.79989C45.7787 1.47259 46.0838 1.14528 46.3981 0.808065C47.5856 -0.0805104 48.2497 -0.0855875 49.7003 0.0909018Z" fill="#004E89"/>
</svg>
