<svg width="50" height="50" viewBox="0 0 50 50" fill="none" xmlns="http://www.w3.org/2000/svg">
<path d="M16.0886 0.0644719C16.8008 0.0614628 17.5131 0.058112 18.2254 0.0544373C19.7145 0.0486902 21.2036 0.0488813 22.6928 0.0529634C24.5901 0.0574353 26.4868 0.0443644 28.3839 0.0264228C29.8542 0.0149713 31.3243 0.0143691 32.7946 0.0167707C33.4935 0.0163772 34.1924 0.012387 34.8913 0.00455175C39.3634 -0.0394354 43.1554 0.177295 46.6987 3.28739C47.3165 3.92612 47.782 4.56769 48.2533 5.31991C48.3945 5.53421 48.5356 5.74851 48.6811 5.9693C50.2177 8.80619 50.0075 11.8246 49.9595 14.9602C49.9452 15.9285 49.9436 16.8962 49.9438 17.8646C49.94 18.4802 49.9355 19.0957 49.9302 19.7113C49.9294 20.0006 49.9285 20.29 49.9276 20.5881C49.8901 22.6175 49.8901 22.6175 49.0268 23.48C47.8666 23.5766 47.8666 23.5766 46.7063 23.48C45.6563 22.431 45.8246 21.8409 45.7999 20.3738C45.7885 19.9022 45.777 19.4305 45.7652 18.9445C45.7567 18.4489 45.7482 17.9534 45.7395 17.4427C45.7854 11.5797 45.7854 11.5797 43.2256 6.47907C40.8693 4.68621 38.4438 4.50037 35.5695 4.49102C35.3176 4.48972 35.0658 4.48842 34.8062 4.48708C33.9799 4.48344 33.1536 4.48266 32.3273 4.48224C31.7484 4.481 31.1695 4.4797 30.5906 4.47835C29.3794 4.47604 28.1681 4.47532 26.9569 4.47555C25.4112 4.47558 23.8656 4.47031 22.32 4.46366C21.1248 4.45934 19.9297 4.45858 18.7346 4.45878C18.165 4.45833 17.5955 4.45663 17.0259 4.45363C11.3863 4.35157 11.3863 4.35157 6.48491 6.86545C4.69038 9.21966 4.50436 11.6429 4.495 14.5145C4.4937 14.7661 4.4924 15.0178 4.49107 15.277C4.48742 16.1026 4.48664 16.9281 4.48622 17.7537C4.48498 18.332 4.48368 18.9104 4.48232 19.4887C4.48001 20.6989 4.47929 21.909 4.47952 23.1191C4.47956 24.6633 4.47428 26.2075 4.46762 27.7517C4.4633 28.9457 4.46253 30.1397 4.46274 31.3338C4.46228 31.9028 4.46059 32.4718 4.45758 33.0408C4.35543 38.6752 4.35543 38.6752 6.87165 43.572C9.23076 45.367 11.6767 45.5403 14.5522 45.5991C15.2947 45.6181 15.2947 45.6181 16.0523 45.6375C16.8323 45.656 17.6122 45.6732 18.3922 45.6882C19.1507 45.7035 19.9092 45.7237 20.6676 45.744C21.3441 45.7585 21.3441 45.7585 22.0344 45.7733C23.1149 45.8904 23.1149 45.8904 23.8884 46.6631C23.9851 47.8223 23.9851 47.8223 23.8884 48.9814C22.7634 50.1054 21.582 49.8943 20.0723 49.9112C19.7668 49.9156 19.4613 49.92 19.1465 49.9245C18.497 49.9318 17.8474 49.9369 17.1978 49.9399C16.2187 49.9473 15.2409 49.9712 14.2621 49.9957C10.098 50.0501 6.735 49.6225 3.42664 46.8083C2.80523 46.1501 2.33942 45.4876 1.84397 44.7312C1.70384 44.5187 1.56371 44.3061 1.41933 44.0872C-0.265306 40.9761 0.0582717 37.4124 0.0643403 33.9773C0.0613284 33.2657 0.0579745 32.5541 0.0542964 31.8425C0.0485439 30.3547 0.0487351 28.8671 0.0528211 27.3792C0.0572972 25.4837 0.0442148 23.5888 0.0262566 21.6934C0.0147944 20.2245 0.0141909 18.7557 0.0165947 17.2868C0.0162008 16.5886 0.0122069 15.8903 0.00436438 15.1921C-0.0396866 10.7218 0.195955 7.00313 3.24529 3.4238C3.90425 2.80304 4.55777 2.3221 5.32467 1.84245C5.5374 1.70245 5.75012 1.56244 5.9693 1.4182C9.08331 -0.264868 12.6503 0.058409 16.0886 0.0644719Z" fill="#001D3D"/>
<path d="M44.4826 25.7017C47.2644 27.9879 49.4598 30.5865 49.8883 34.2858C50.1294 37.6039 50.1375 40.7106 48.2533 43.572C47.9938 43.9807 47.9938 43.9807 47.7291 44.3976C45.8905 47.0618 43.3797 49.1265 40.1317 49.7542C35.2034 50.1547 31.5175 49.8465 27.6108 46.5665C26.0428 45.0663 24.9802 43.6919 24.2752 41.6401C24.1894 41.3946 24.1037 41.149 24.0153 40.896C22.8966 37.1277 23.3446 33.3593 25.1468 29.8871C27.0009 26.8739 29.4771 25.0506 32.7835 23.8664C36.8408 22.9162 41.0274 23.2519 44.4826 25.7017ZM29.6896 30.8213C28.0517 33.1478 27.4197 35.3253 27.7559 38.1627C28.4795 41.1053 29.8565 43.0676 32.3968 44.7312C34.6475 45.8295 36.9064 45.8173 39.3582 45.504C42.0311 44.5774 43.8394 42.906 45.1594 40.4221C46.0532 37.8791 46.0302 35.0676 44.9418 32.5842C43.4851 30.1551 41.2747 28.5643 38.5847 27.7303C35.053 27.2709 32.2064 28.3068 29.6896 30.8213Z" fill="#001D3D"/>
<path d="M36.6268 31.087C37.8112 31.2077 37.8112 31.2077 38.5364 31.6424C39.1525 32.6684 39.0496 33.5136 38.9715 34.6852C39.3304 34.6613 39.6894 34.6374 40.0592 34.6127C41.2919 34.6852 41.2919 34.6852 42.0412 35.1199C42.4522 35.8443 42.4522 35.8443 42.4038 37.0276C42.0654 38.1627 42.0654 38.1627 40.9052 38.9354C39.8658 38.9837 39.8658 38.9837 38.9715 38.9354C38.9316 39.3658 38.8917 39.7961 38.8506 40.2395C38.7629 40.7017 38.6751 41.1639 38.5847 41.6401C37.4245 42.4129 37.4245 42.4129 36.2159 42.3163C35.849 42.2207 35.4821 42.125 35.104 42.0265C34.5802 40.9799 34.6921 40.091 34.7173 38.9354C34.3583 38.9593 33.9994 38.9832 33.6295 39.0079C32.3968 38.9354 32.3968 38.9354 31.6717 38.5007C31.0411 37.4509 31.1089 36.6571 31.2366 35.458C32.0101 34.6852 32.0101 34.6852 33.412 34.6369C34.0581 34.6608 34.0581 34.6608 34.7173 34.6852C34.7013 34.2549 34.6854 33.8245 34.6689 33.3811C34.7286 31.6507 34.8866 31.2719 36.6268 31.087Z" fill="#001D3D"/>
<path d="M21.858 8.69475C22.1111 8.69401 22.3643 8.69327 22.6251 8.69251C23.1595 8.69198 23.6939 8.6934 24.2283 8.69663C25.0457 8.70077 25.8628 8.69667 26.6802 8.69173C27.1999 8.69224 27.7196 8.69323 28.2393 8.69475C28.7119 8.69562 29.1845 8.69649 29.6715 8.69739C30.8498 8.79738 30.8498 8.79738 32.0101 9.57015C32.1551 10.9225 32.1551 10.9225 32.0101 12.2748C30.6012 13.2132 29.9166 13.1472 28.2393 13.1503C27.9862 13.151 27.733 13.1517 27.4722 13.1525C26.9378 13.153 26.4034 13.1516 25.869 13.1484C25.0516 13.1442 24.2345 13.1483 23.4171 13.1533C22.8974 13.1528 22.3777 13.1518 21.858 13.1503C21.3854 13.1494 20.9128 13.1485 20.4258 13.1476C19.2475 13.0476 19.2475 13.0476 18.0872 12.2748C17.9422 10.9225 17.9422 10.9225 18.0872 9.57015C19.4961 8.63177 20.1807 8.69784 21.858 8.69475Z" fill="#001D3D"/>
</svg>
