<svg width="50" height="50" viewBox="0 0 50 50" fill="none" xmlns="http://www.w3.org/2000/svg">
<path d="M31.7632 1.55044C35.1555 3.64221 37.3189 6.45235 38.2555 10.3315C38.6966 14.3202 38.5228 18.0331 35.9896 21.3283C35.3408 22.0806 34.6779 22.8016 33.976 23.5046C34.8158 24.3409 35.6801 24.8432 36.6993 25.4419C37.0884 25.8293 37.0884 25.8293 37.1613 26.9674C37.0884 28.154 37.0884 28.154 36.3103 28.9289C34.4582 29.0123 32.6591 28.5244 30.9122 27.9602C25.4072 26.2455 19.9953 27.0894 14.9125 29.7037C10.1976 32.4105 6.9692 36.1918 5.18622 41.3271C4.93719 42.5241 4.83891 43.5876 4.79717 44.8141C6.15048 45.638 7.23206 45.69 8.80336 45.7002C9.29923 45.7054 9.79511 45.7106 10.306 45.716C10.7017 45.7174 10.7017 45.7174 11.1054 45.719C11.9327 45.7222 12.7599 45.7301 13.5872 45.7393C15.6406 45.7612 17.6941 45.7748 19.7476 45.7888C21.4852 45.8009 23.2227 45.816 24.9602 45.8354C25.7762 45.8432 26.5921 45.8464 27.4081 45.8494C28.1482 45.8572 28.1482 45.8572 28.9033 45.8652C29.3392 45.868 29.7751 45.8708 30.2242 45.8737C31.2526 45.9764 31.2526 45.9764 32.0307 46.7513C32.128 47.9136 32.128 47.9136 32.0307 49.076C30.9347 50.1675 30.2308 49.9515 28.6952 49.9573C28.4326 49.9593 28.17 49.9612 27.8994 49.9633C27.0288 49.9687 26.1583 49.9683 25.2877 49.9674C24.6829 49.9689 24.0781 49.9706 23.4732 49.9724C22.2039 49.9753 20.9347 49.9752 19.6653 49.9732C18.0405 49.9709 16.4158 49.9775 14.791 49.9865C13.541 49.9922 12.2911 49.9925 11.0411 49.9913C10.4423 49.9915 9.84337 49.9935 9.2445 49.9974C8.40539 50.0022 7.56661 49.9996 6.72751 49.9951C6.0118 49.9955 6.01181 49.9955 5.28164 49.9959C3.18918 49.7556 1.8791 48.6883 0.517608 47.1388C-0.611986 43.764 0.257098 40.5859 1.68476 37.4526C1.84073 37.1055 1.9967 36.7584 2.1574 36.4008C5.1408 30.3983 10.1167 26.6831 16.0796 23.8921C15.9292 23.7043 15.7787 23.5165 15.6237 23.323C12.4221 19.2192 11.2584 15.5162 11.8001 10.3315C12.6125 6.88996 14.412 4.30385 17.2468 2.19517C21.6458 -0.517365 27.1238 -0.696907 31.7632 1.55044ZM17.6358 8.00684C15.9102 10.424 15.7018 12.8517 16.0796 15.7557C16.7822 18.3315 18.5813 20.0805 20.7482 21.5674C23.0821 22.7067 25.7603 22.768 28.2618 22.1032C30.6462 21.055 32.513 19.0844 33.6538 16.7667C34.4092 14.3962 34.3883 11.6539 33.3194 9.38711C31.9096 7.02432 30.012 5.33283 27.3621 4.51984C23.3482 3.98723 20.2423 4.83434 17.6358 8.00684Z" fill="#001D3D"/>
<path d="M41.757 31.2535C42.8045 32.2323 42.9223 32.7807 43.0381 34.2259C43.0304 34.7528 43.0166 35.2795 42.9971 35.806C42.9892 36.2113 42.9892 36.2113 42.9811 36.6248C42.9674 37.2883 42.9465 37.9517 42.9241 38.615C43.3645 38.606 43.8048 38.597 44.2585 38.5877C44.8349 38.5805 45.4114 38.5734 45.9879 38.5665C46.2783 38.56 46.5687 38.5536 46.8678 38.5469C47.6285 38.54 48.3893 38.575 49.1489 38.615C49.927 39.3899 49.9271 39.3899 50 40.5522C49.9271 41.7145 49.927 41.7145 49.538 42.4894C48.1528 42.9492 47.0333 42.9144 45.5745 42.9011C45.0796 42.8976 44.5846 42.8941 44.0746 42.8905C43.5051 42.8837 43.5051 42.8837 42.9241 42.8769C42.9286 43.2549 42.9332 43.633 42.9378 44.0225C42.9413 44.5155 42.9448 45.0084 42.9485 45.5163C42.953 46.0063 42.9575 46.4962 42.9621 47.001C42.9241 48.3011 42.9241 48.3011 42.5351 49.4634C41.4603 49.9986 40.6103 49.9248 39.4227 49.8509C38.6446 49.076 38.6446 49.076 38.5686 47.6442C38.5738 47.0721 38.583 46.5 38.5959 45.928C38.5995 45.6358 38.603 45.3436 38.6066 45.0426C38.6158 44.3206 38.6297 43.5987 38.6446 42.8769C38.0398 42.8971 38.0398 42.8971 37.4227 42.9177C36.8898 42.9286 36.3569 42.9392 35.824 42.9495C35.5587 42.9592 35.2934 42.969 35.02 42.979C33.7457 42.9975 32.9436 42.9586 31.8423 42.2912C31.6477 42.1009 31.4531 41.9106 31.2526 41.7145C31.3521 40.8067 31.4832 39.9019 31.6417 39.0024C32.8821 38.3848 34.2207 38.5755 35.5808 38.5908C35.8742 38.5925 36.1676 38.5942 36.4698 38.5961C37.1948 38.6006 37.9197 38.6076 38.6446 38.615C38.6243 37.9639 38.6243 37.9639 38.6035 37.2998C38.5926 36.7292 38.582 36.1586 38.5716 35.5881C38.5619 35.3021 38.5521 35.0162 38.542 34.7216C38.5132 32.6074 38.5132 32.6074 39.1719 31.647C40.1052 31.0731 40.6836 31.0665 41.757 31.2535Z" fill="#001D3D"/>
</svg>
