<svg width="43" height="50" viewBox="0 0 43 50" fill="none" xmlns="http://www.w3.org/2000/svg">
<path d="M27.6434 25.6082C24.8815 27.1306 22.7393 27.7283 19.5636 27.3463C17.3594 26.6622 15.32 25.786 13.4358 24.4736C11.2911 23.5382 9.49902 23.948 7.30799 24.6426C4.40894 26.0774 2.81779 28.3378 1.71142 31.2556C0.23912 35.6994 -0.85442 40.9665 0.911465 45.485C2.162 47.5969 4.17684 48.9962 6.5173 49.7489C7.48829 49.825 8.46303 49.8595 9.43711 49.8672C9.8676 49.8721 9.8676 49.8721 10.3068 49.877C11.2525 49.8863 12.1981 49.8897 13.1439 49.8922C13.8053 49.8957 14.4666 49.8992 15.128 49.9028C16.5141 49.9092 17.9002 49.9121 19.2863 49.9133C21.0539 49.9153 22.8211 49.9299 24.5885 49.9475C25.9551 49.9591 27.3216 49.9618 28.6882 49.9622C29.3392 49.9638 29.9903 49.9686 30.6414 49.9767C37.5973 50.0564 37.5973 50.0564 40.5168 47.8176C43.1759 44.6774 43.1443 41.3069 42.8888 37.3889C42.3741 33.0971 41.3046 28.9652 37.9223 25.9703C34.4513 23.3823 31.3132 23.5808 27.6434 25.6082Z" fill="#001D3D"/>
<path d="M16.7962 0.912293C13.2508 2.80291 10.9569 5.45017 9.68005 9.19255C9.36283 13.3841 9.61688 16.916 12.3486 20.3214C14.5276 22.6008 17.2805 24.0684 20.4717 24.3861C24.2068 24.4274 26.8367 23.9081 29.9414 21.8664C32.6913 19.1186 34.2944 16.2781 34.3396 12.3791C34.2736 8.78098 33.2702 5.951 30.6934 3.3324C26.8226 0.12022 21.6053 -0.94599 16.7962 0.912293Z" fill="#001D3D"/>
</svg>
