<svg width="51" height="51" viewBox="0 0 51 51" fill="none" xmlns="http://www.w3.org/2000/svg">
<path d="M7.62062 2.99574C7.71529 3.23139 7.80995 3.46705 7.90749 3.70985C8.69779 5.67381 8.69779 5.67381 10.0132 7.29261C10.8522 8.18757 10.9149 8.62484 11.1362 9.80726C11.4423 11.4253 11.8607 12.3842 13.0894 13.5426C15.1562 14.5302 17.0648 14.4674 19.315 14.4703C19.6964 14.4799 20.0778 14.4895 20.4708 14.4993C22.8342 14.5089 24.1737 14.3192 25.98 12.7614C27.1912 11.5501 27.5086 10.1263 28.0033 8.5301C28.4252 7.415 29.1368 6.64883 29.8862 5.73011C30.2277 4.82415 30.445 3.94148 30.6675 2.99574C32.6035 2.858 34.1164 2.77553 35.8921 3.6305C37.538 5.11966 38.5488 6.41386 38.6758 8.66585C38.6838 9.36137 38.6833 10.057 38.676 10.7525C38.6791 11.3246 38.6791 11.3246 38.6824 11.9083C38.6872 13.1652 38.6808 14.4219 38.6738 15.6788C38.6738 16.5544 38.6744 17.43 38.6755 18.3056C38.676 20.1392 38.6711 21.9727 38.6622 23.8062C38.6512 26.1549 38.6522 28.5033 38.6572 30.8519C38.6599 32.6595 38.6569 34.467 38.652 36.2746C38.6503 37.1405 38.6501 38.0065 38.6517 38.8724C38.6528 40.0832 38.6463 41.2938 38.6378 42.5046C38.6396 42.8614 38.6414 43.2182 38.6432 43.5858C38.62 45.5679 38.4838 47.0248 37.3081 48.6989C35.5633 50.2187 34.0816 50.4913 31.8372 50.4759C31.5326 50.4799 31.2281 50.4839 30.9143 50.488C29.9128 50.4988 28.9118 50.4981 27.9102 50.4963C27.2107 50.4994 26.5113 50.5028 25.8118 50.5065C24.3476 50.5123 22.8836 50.5121 21.4194 50.508C19.5471 50.5035 17.6754 50.5167 15.8032 50.5348C14.3591 50.5463 12.9152 50.547 11.4711 50.5446C10.781 50.545 10.091 50.549 9.40093 50.5569C3.3362 50.6177 3.3362 50.6177 1.53685 49.1206C0.453784 47.7455 0.150791 47.2054 0.141257 45.5159C0.138462 45.1764 0.135667 44.8369 0.132787 44.4871C0.131737 44.1137 0.130687 43.7403 0.129604 43.3556C0.125754 42.7667 0.125754 42.7667 0.121826 42.166C0.114106 40.8625 0.109559 39.5592 0.105667 38.2557C0.104075 37.8112 0.102483 37.3666 0.100843 36.9086C0.0926891 34.5555 0.0871047 32.2024 0.0834465 29.8493C0.0791243 27.4174 0.0656874 24.9857 0.0501759 22.5539C0.0399674 20.6853 0.036693 18.8168 0.0352897 16.9482C0.0333855 16.0517 0.0288392 15.1553 0.021603 14.2589C0.0121025 13.0039 0.0124472 11.7493 0.0151634 10.4943C0.0101595 10.1241 0.00515556 9.75385 0 9.37241C0.0172738 7.18221 0.274289 5.89189 1.76125 4.16761C3.67042 2.83563 5.38243 2.86144 7.62062 2.99574ZM6.83937 19.0114C6.71046 19.6559 6.58156 20.3004 6.44875 20.9645C7.88905 21.9247 8.65322 21.8673 10.355 21.7457C10.7417 21.4879 11.1284 21.2301 11.5269 20.9645C11.398 20.32 11.2691 19.6754 11.1362 19.0114C9.71828 19.0114 8.30031 19.0114 6.83937 19.0114ZM15.0425 19.7926C15.1076 20.6064 15.1076 20.6064 15.4331 21.3551C16.7034 21.9902 18.1007 21.8094 19.4965 21.8113C19.8221 21.8126 20.1477 21.8139 20.4832 21.8153C21.1724 21.8173 21.8616 21.8182 22.5509 21.8181C23.6062 21.819 24.6614 21.8261 25.7168 21.8335C26.3859 21.8346 27.055 21.8354 27.7241 21.8358C28.0403 21.8386 28.3565 21.8414 28.6822 21.8443C30.1997 21.8381 30.9381 21.8258 32.23 20.9645C32.0356 19.8878 32.0356 19.8878 31.4487 19.0114C30.3028 18.967 29.1664 18.9472 28.0201 18.9457C27.6757 18.9444 27.3313 18.9431 26.9764 18.9418C26.2465 18.9398 25.5165 18.9389 24.7865 18.939C23.6668 18.9381 22.5472 18.931 21.4275 18.9236C20.7198 18.9225 20.012 18.9217 19.3043 18.9213C18.9678 18.9185 18.6312 18.9157 18.2845 18.9128C16.4761 18.8342 16.4761 18.8342 15.0425 19.7926ZM6.83937 24.8707C6.71046 25.5153 6.58156 26.1598 6.44875 26.8239C7.88905 27.7841 8.65322 27.7267 10.355 27.6051C10.7417 27.3473 11.1284 27.0895 11.5269 26.8239C11.398 26.1793 11.2691 25.5348 11.1362 24.8707C9.71828 24.8707 8.30031 24.8707 6.83937 24.8707ZM15.0425 25.652C15.1076 26.4658 15.1076 26.4658 15.4331 27.2145C17.1104 28.0531 19.3524 27.6777 21.2157 27.6775C22.0448 27.6783 22.8736 27.6854 23.7026 27.6928C24.2293 27.694 24.756 27.6948 25.2827 27.6951C25.7625 27.6967 26.2424 27.6983 26.7367 27.7C28.0007 27.6975 28.0007 27.6975 29.105 26.8239C28.9116 25.8571 28.9116 25.8571 28.7144 24.8707C26.8929 24.8514 25.0714 24.8373 23.2498 24.8278C22.6299 24.8239 22.01 24.8186 21.3902 24.8118C20.5 24.8023 19.61 24.7979 18.7199 24.7944C18.4419 24.7904 18.164 24.7864 17.8776 24.7822C16.2839 24.733 16.2839 24.733 15.0425 25.652ZM6.83937 30.7301C6.71046 31.3746 6.58156 32.0192 6.44875 32.6832C7.88905 33.6434 8.65322 33.586 10.355 33.4645C10.7417 33.2067 11.1284 32.9489 11.5269 32.6832C11.398 32.0387 11.2691 31.3942 11.1362 30.7301C9.71828 30.7301 8.30031 30.7301 6.83937 30.7301ZM15.0425 31.5114C15.1076 32.3252 15.1076 32.3252 15.4331 33.0739C16.7034 33.709 18.1007 33.5282 19.4965 33.5301C19.8221 33.5314 20.1477 33.5327 20.4832 33.534C21.1724 33.536 21.8616 33.5369 22.5509 33.5369C23.6062 33.5377 24.6614 33.5448 25.7168 33.5522C26.3859 33.5534 27.055 33.5541 27.7241 33.5545C28.0403 33.5573 28.3565 33.5601 28.6822 33.563C30.1997 33.5568 30.9381 33.5445 32.23 32.6832C32.0356 31.6065 32.0356 31.6065 31.4487 30.7301C30.3028 30.6858 29.1664 30.666 28.0201 30.6645C27.6757 30.6632 27.3313 30.6619 26.9764 30.6606C26.2465 30.6586 25.5165 30.6577 24.7865 30.6577C23.6668 30.6569 22.5472 30.6498 21.4275 30.6424C20.7198 30.6412 20.012 30.6405 19.3043 30.6401C18.9678 30.6373 18.6312 30.6345 18.2845 30.6316C16.4761 30.5529 16.4761 30.5529 15.0425 31.5114ZM6.83937 36.5895C6.71046 37.234 6.58156 37.8785 6.44875 38.5426C7.88905 39.5028 8.65322 39.4454 10.355 39.3239C10.7417 39.066 11.1284 38.8082 11.5269 38.5426C11.398 37.8981 11.2691 37.2535 11.1362 36.5895C9.71828 36.5895 8.30031 36.5895 6.83937 36.5895ZM15.0425 37.3707C15.1076 38.1845 15.1076 38.1845 15.4331 38.9332C17.0814 39.7574 19.2619 39.3961 21.0728 39.3971C21.7514 39.4043 21.7514 39.4043 22.4438 39.4116C22.8771 39.4124 23.3104 39.4131 23.7568 39.4139C24.3538 39.4163 24.3538 39.4163 24.9629 39.4188C26.0721 39.3965 26.0721 39.3965 27.1519 38.5426C27.023 37.8981 26.8941 37.2535 26.7612 36.5895C25.2179 36.5702 23.6746 36.556 22.1312 36.5466C21.3475 36.5407 20.5639 36.5308 19.7804 36.5208C19.0439 36.517 19.0439 36.517 18.2926 36.5132C17.8385 36.5091 17.3844 36.505 16.9165 36.5008C15.7694 36.4752 15.7694 36.4752 15.0425 37.3707ZM24.4175 42.4489C24.2886 43.0934 24.1597 43.7379 24.0269 44.402C25.4423 45.3456 26.4941 45.2996 28.1284 45.2809C28.3928 45.2839 28.6572 45.2869 28.9295 45.29C30.3742 45.2843 30.998 45.2233 32.23 44.402C32.0356 43.3253 32.0356 43.3253 31.4487 42.4489C30.9243 42.4151 30.3981 42.407 29.8725 42.4107C29.5565 42.412 29.2406 42.4132 28.915 42.4145C28.5829 42.4178 28.2509 42.4211 27.9087 42.4244C27.5751 42.4262 27.2415 42.428 26.8978 42.4298C26.071 42.4344 25.2443 42.4414 24.4175 42.4489Z" fill="#004E89"/>
<path d="M44.3394 17.0582C46.273 17.0582 48.2066 17.0582 50.1987 17.0582C50.1987 24.5348 50.1987 32.0114 50.1987 39.7145C48.2652 39.7145 46.3316 39.7145 44.3394 39.7145C44.3394 32.2379 44.3394 24.7614 44.3394 17.0582Z" fill="#004E89"/>
<path d="M15.2622 0.040108C15.5858 0.0376866 15.9093 0.0352653 16.2427 0.0327706C16.9256 0.0300002 17.6086 0.0312338 18.2915 0.0361979C19.3361 0.0416166 20.3793 0.0283012 21.4237 0.0134051C22.088 0.0130335 22.7523 0.0137596 23.4165 0.0156939C23.7282 0.0105149 24.04 0.00533593 24.3611 0C25.8866 0.0255751 26.6078 0.121617 27.7531 1.16478C28.5319 2.59736 28.3633 3.40029 27.9331 4.94886C27.531 5.60661 27.531 5.60661 26.7612 6.12074C25.6306 6.24206 24.5858 6.29424 23.4547 6.29011C22.9685 6.29318 22.9685 6.29318 22.4725 6.29631C21.7873 6.29882 21.102 6.2983 20.4167 6.29497C19.3689 6.29165 18.3219 6.30288 17.2741 6.31528C16.608 6.31591 15.942 6.31569 15.276 6.31452C14.8065 6.3211 14.8065 6.3211 14.3276 6.32782C12.9307 6.31037 12.0857 6.24235 10.9385 5.41282C10.0814 4.1576 10.1431 3.30703 10.355 1.82386C11.6327 -0.0407467 13.173 0.0271229 15.2622 0.040108Z" fill="#004E89"/>
<path d="M48.6362 4.16761C49.4968 4.68641 49.4968 4.68641 50.1987 5.73011C50.3931 7.19894 50.3452 8.64636 50.2964 10.1246C50.2894 10.5275 50.2823 10.9303 50.275 11.3453C50.2567 12.3383 50.2286 13.3311 50.1987 14.3239C48.2652 14.3239 46.3316 14.3239 44.3394 14.3239C44.2972 12.9238 44.2662 11.525 44.2417 10.1246C44.2286 9.72785 44.2155 9.33106 44.202 8.92225C44.1635 5.99165 44.1635 5.99165 45.0413 4.68641C46.3121 3.92034 47.1834 3.96006 48.6362 4.16761Z" fill="#004E89"/>
<path d="M13.0894 8.85511C17.0855 8.85511 21.0816 8.85511 25.1987 8.85511C25.0698 9.62855 24.9409 10.402 24.8081 11.1989C23.027 12.3863 21.2644 12.1395 19.1685 12.151C18.7583 12.1638 18.3482 12.1767 17.9256 12.1899C14.9205 12.211 14.9205 12.211 13.5883 11.0661C13.0894 10.027 13.0894 10.027 13.0894 8.85511Z" fill="#004E89"/>
<path d="M44.3394 42.4489C46.273 42.4489 48.2066 42.4489 50.1987 42.4489C50.0235 43.6052 49.8439 44.7605 49.6616 45.9157C49.6123 46.2445 49.5629 46.5733 49.5121 46.9121C49.4617 47.2268 49.4114 47.5415 49.3595 47.8657C49.292 48.3014 49.292 48.3014 49.2231 48.746C49.0269 49.4801 49.0269 49.4801 48.2456 50.2614C47.2691 50.359 47.2691 50.359 46.2925 50.2614C45.4048 49.3736 45.365 49.0687 45.1786 47.8657C45.1283 47.551 45.0779 47.2363 45.026 46.9121C44.9767 46.5832 44.9273 46.2544 44.8765 45.9157C44.8241 45.5838 44.7717 45.252 44.7178 44.9101C44.5888 44.0901 44.4637 43.2695 44.3394 42.4489Z" fill="#004E89"/>
</svg>
