<svg width="71" height="84" viewBox="0 0 71 84" fill="none" xmlns="http://www.w3.org/2000/svg">
<path d="M53.5 42.4419C59.8095 46.4276 64 53.4635 64 61.4782C64 73.9046 53.9264 83.9782 41.5 83.9782C35.9755 83.9782 30.916 81.9872 27 78.6835L39.5 74.4998L47.5 66.978L52.5 54.978L53.5 42.4419Z" fill="#FF99C8"/>
<path d="M57.7402 0.176399C59.0305 -0.0587995 59.0305 -0.0587995 60.8329 0.176399C62.3734 1.26102 63.6317 2.58444 64.9307 3.93957C65.4617 4.46466 65.4617 4.46466 66.0034 5.00036C68.8406 7.88413 70.9931 10.6859 71 14.8835C70.8873 17.8608 70.3495 20.0978 68.2553 22.2946C65.3542 24.4012 62.5782 25.2632 58.9773 24.7522C54.4313 22.9411 51.5798 20.1386 48.2303 16.6499C47.2474 15.6415 46.2633 14.6342 45.2778 13.6283C44.8494 13.1838 44.4209 12.7394 43.9795 12.2815C42.3301 10.6899 41.6789 10.6231 39.3003 10.3907C37.2042 10.4286 36.6997 10.6281 34.8546 11.8499C33.5829 13.7447 33.0735 15.0357 33.2576 17.3315C34.0102 20.0007 35.9921 21.6353 37.9473 23.5234C54.3344 39.4531 54.3344 39.4531 54.8022 51.5168C54.674 59.2312 52.282 65.4534 47.044 71.1439C40.2172 77.677 33.2721 79.1253 24.1681 78.9918C20.7376 78.8578 18.0299 78.0804 15.0616 76.3614C14.3895 75.9848 14.3895 75.9848 13.7038 75.6006C12.4722 74.8716 11.2919 74.0997 10.1134 73.2894C9.30969 72.7572 9.30969 72.7572 8.48975 72.2142C3.38119 67.4069 0.225742 60.52 0.00428526 53.5724C-0.111273 44.9563 2.09692 38.4162 8.2578 32.125C13.8295 26.8794 21.1049 24.6018 28.6693 24.6898C30.5526 24.7848 32.3766 25.0588 34.2361 25.3666C33.9307 25.0759 33.6253 24.7853 33.3107 24.4858C30.773 21.884 29.29 19.9404 29.1622 16.2539C29.4473 13.2313 30.6671 11.1966 32.5738 8.89313C35.088 6.86036 37.209 6.15404 40.4214 6.39715C45.1845 6.89 48.5486 11.1885 51.6709 14.3843C52.5417 15.2705 53.4139 16.1553 54.2876 17.0387C54.6689 17.4284 55.0501 17.8182 55.443 18.2198C57.3483 20.022 58.5629 20.6136 61.1422 20.5666C61.8598 20.5607 61.8598 20.5607 62.5918 20.5546C64.039 20.4963 64.039 20.4963 65.7811 19.837C67.1534 16.9745 67.3615 14.8669 66.3997 11.8499C64.1783 8.95923 61.61 6.41722 58.9387 3.93957C57.7402 2.63398 57.7402 2.63398 57.7402 0.176399ZM15.6802 30.8962C15.6802 31.0989 15.6802 31.3017 15.6802 31.5106C16.4711 31.5921 17.2621 31.6737 18.077 31.7578C19.1336 31.8673 20.1903 31.9769 21.2469 32.0866C22.0255 32.1667 22.0255 32.1667 22.8198 32.2486C23.3341 32.302 23.8484 32.3555 24.3783 32.4106C24.8917 32.4636 25.4052 32.5166 25.9342 32.5712C27.3282 32.7277 28.7116 32.9227 30.0997 33.1233C32.1464 33.3301 33.5113 33.2954 35.4731 32.7778C35.9452 32.6582 36.4172 32.5386 36.9035 32.4154C37.2479 32.3195 37.5924 32.2237 37.9473 32.125C37.9473 31.5167 37.9473 30.9085 37.9473 30.2818C30.6481 27.1744 22.8264 27.5274 15.6802 30.8962ZM17.5358 46.256C12.944 52.3112 8.38624 60.5085 9.49486 68.3743C11.02 69.4299 11.02 69.4299 12.5875 70.2175C12.8686 69.2599 12.8686 69.2599 13.1553 68.2831C16.3662 57.5592 20.8694 48.7094 30.9211 42.8457C35.7574 40.2575 40.6761 38.8799 45.9882 37.6545C45.375 36.0403 45.375 36.0403 44.1326 34.5825C34.3476 33.3382 23.9117 39.3715 17.5358 46.256ZM8.2578 37.0401C7.27819 38.5948 7.27819 38.5948 7.02074 40.1121C9.18659 40.116 11.3499 40.0791 13.5153 40.0353C14.1229 40.0369 14.7304 40.0385 15.3564 40.0401C19.7326 39.9242 22.4796 38.9647 25.5767 35.8113C25.5767 35.6086 25.5767 35.4058 25.5767 35.1969C23.6181 35.1427 21.6597 35.1104 19.7006 35.0817C18.8778 35.0586 18.8778 35.0586 18.0383 35.0349C14.3476 34.9945 11.561 35.3367 8.2578 37.0401ZM24.3396 51.7856C19.8256 57.1373 15.5617 64.8024 15.7188 71.9838C16.1962 73.4553 16.1962 73.4553 17.8813 73.9854C18.6288 74.2492 18.6288 74.2492 19.3914 74.5182C19.4822 74.0272 19.5731 73.5362 19.6668 73.0302C21.5962 63.6459 25.6969 56.4459 33.5016 50.672C38.4869 47.4117 43.8541 45.4773 49.6994 44.4129C49.2911 43.1964 48.8829 41.9799 48.4623 40.7265C39.4574 40.291 30.3493 45.4543 24.3396 51.7856ZM4.54662 44.4129C4.3425 45.6294 4.13839 46.8459 3.92809 48.0992C9.44817 48.3032 9.44817 48.3032 14.5108 46.6664C15.5971 45.3621 16.2987 44.2936 16.2987 42.5697C12.0792 42.3324 8.56968 43.1788 4.54662 44.4129ZM44.0553 48.6752C43.175 48.9984 43.175 48.9984 42.277 49.328C43.1216 51.1304 44.103 52.6374 45.331 54.2048C46.4347 55.6319 47.3916 56.984 48.3077 58.544C48.6904 59.1522 48.6904 59.1522 49.0808 59.7727C49.4891 59.7727 49.8973 59.7727 50.3179 59.7727C50.9965 57.1726 51.3018 55.6817 50.1947 53.1848C48.0978 48.9785 48.0978 48.9785 44.0553 48.6752ZM3.30956 51.7856C3.52464 55.8596 3.9039 59.1915 5.78368 62.8447C7.23772 62.3033 7.23772 62.3033 7.63927 60.3967C7.94545 59.2515 7.94545 59.2515 8.2578 58.0832C8.9543 55.4996 9.67279 53.0179 10.7319 50.5568C7.96809 50.4261 5.89339 50.8079 3.30956 51.7856ZM35.6664 53.3216C35.1944 53.8285 34.7224 54.3353 34.2361 54.8576C34.5431 55.1039 34.85 55.3502 35.1663 55.604C38.0096 57.9674 40.31 60.4178 42.4993 63.3895C43.5685 64.7576 44.7334 65.9452 45.9882 67.1455C47.0791 65.8066 47.0791 65.8066 47.8438 64.0735C46.5256 59.5013 42.7786 54.8686 39.1843 51.7856C37.1768 51.5764 37.1768 51.5764 35.6664 53.3216ZM31.1434 56.7008C26.4229 61.613 22.484 68.1817 22.484 75.1326C23.9128 75.3354 25.3416 75.5381 26.8137 75.747C26.919 75.3162 27.0242 74.8853 27.1326 74.4414C28.5773 68.8236 30.0945 65.1154 34.2361 61.0015C34.2361 60.1905 34.2361 59.3795 34.2361 58.544C32.7351 57.4444 32.7351 57.4444 31.1434 56.7008ZM37.3287 62.2303C33.0685 66.0993 30.7947 70.0576 29.9064 75.747C34.9776 74.7754 38.8078 73.3858 42.8955 70.2175C41.4457 66.9752 40.0072 64.5953 37.3287 62.2303Z" fill="#001D3D"/>
</svg>
