<svg width="45" height="49" viewBox="0 0 45 49" fill="none" xmlns="http://www.w3.org/2000/svg">
<path d="M41 30C41 40.4934 32.4934 49 22 49C11.5066 49 3 40.4934 3 30C3 19.5066 11.5066 11 22 11C32.4934 11 41 19.5066 41 30Z" fill="#C1D3FE"/>
<path d="M21.375 3.46433C21.7513 3.81152 22.0894 4.18069 22.4122 4.57919C22.6904 4.45714 22.8437 4.32775 23.0323 4.08865C25.0026 1.74526 28.0982 0.273433 31.1048 0.0305644C32.4644 -0.0275158 33.8172 -0.0338119 35.1438 0.298131C35.212 0.314902 35.2802 0.331673 35.3505 0.348952C37.6046 0.923308 39.5453 2.04521 41.2023 3.6873C41.2759 3.75548 41.3494 3.82366 41.4252 3.8939C43.4631 5.83575 44.8679 8.92987 44.992 11.7705C44.9961 12.1475 44.9995 12.5245 44.9998 12.9016C44.9999 13.0039 44.9999 13.0039 45 13.1083C44.9986 14.1243 44.9545 15.0952 44.7145 16.0845C44.6994 16.1506 44.6843 16.2167 44.6688 16.2848C44.2639 18.0494 43.6353 19.713 42.8706 21.3467C42.8377 21.4179 42.8048 21.4891 42.7709 21.5625C41.6034 24.0768 40.1 26.4884 38.3926 28.6601C38.2875 28.7997 38.1825 28.9393 38.0779 29.0792C36.9812 30.5428 35.8206 31.9583 34.5878 33.3056C34.4153 33.497 34.248 33.69 34.0818 33.8868C33.7166 34.3111 33.3281 34.7092 32.9353 35.1072C32.8222 35.2222 32.8222 35.2222 32.7068 35.3396C32.5482 35.5007 32.3894 35.6618 32.2306 35.8228C31.9891 36.0677 31.748 36.313 31.507 36.5584C31.352 36.7157 31.197 36.873 31.042 37.0303C30.9708 37.1029 30.8995 37.1754 30.8261 37.2502C30.406 37.6752 29.9742 38.0789 29.5243 38.4709C29.3832 38.6006 29.2423 38.7306 29.1018 38.8611C27.6646 40.1756 26.1621 41.2999 24.2561 41.7709C24.1357 41.8009 24.1357 41.8009 24.0129 41.8315C21.8591 42.2782 19.637 41.8186 17.775 40.6672C17.0315 40.1606 16.3621 39.5594 15.7024 38.9468C15.5163 38.7758 15.3285 38.6078 15.1392 38.4406C14.2685 37.6682 13.4354 36.8523 12.6165 36.0238C12.5602 35.9669 12.5038 35.9101 12.4457 35.8515C12.1128 35.5123 11.7969 35.1627 11.4904 34.7986C11.3467 34.6333 11.1966 34.478 11.0416 34.3236C10.7156 33.9969 10.4174 33.651 10.1196 33.298C10.0059 33.1645 10.0059 33.1645 9.88981 33.0283C8.76961 31.7116 7.69376 30.369 6.67776 28.9674C6.57563 28.8265 6.47321 28.6859 6.37044 28.5456C3.1187 24.104 0.00461063 18.698 0.000179531 13.0131C0.000120286 12.945 6.10406e-05 12.8769 0 12.8068C0.00136531 11.8208 0.0367692 10.8887 0.285543 9.93051C0.312656 9.81241 0.339751 9.6943 0.366831 9.5762C0.902123 7.39402 2.08793 5.4605 3.6221 3.86568C3.69228 3.78888 3.76245 3.71208 3.83475 3.63295C8.55048 -1.40759 16.4865 -0.902142 21.375 3.46433ZM6.13824 6.83887C4.8072 8.26961 3.87535 10.354 3.79771 12.3386C3.79092 12.4786 3.79092 12.4786 3.78399 12.6215C3.66219 17.4259 6.53188 22.304 9.2973 26.0019C9.42313 26.1708 9.54719 26.3411 9.67099 26.5116C10.7638 28.0128 11.9307 29.4646 13.1694 30.8442C13.3342 31.0298 13.4962 31.2172 13.6575 31.4058C13.9795 31.7803 14.3112 32.1447 14.647 32.5064C14.7378 32.6043 14.7378 32.6043 14.8305 32.7041C15.9385 33.8971 15.9385 33.8971 17.1295 35.0026C17.3396 35.1887 17.5412 35.3824 17.7435 35.5771C19.0711 36.8501 20.4283 38.0678 22.3556 38.1225C24.4101 38.0228 25.7718 36.6142 27.201 35.2817C27.3949 35.1022 27.5915 34.9268 27.7902 34.7528C28.0662 34.5096 28.3231 34.2525 28.5791 33.9878C28.7352 33.832 28.897 33.6875 29.0634 33.5432C29.7132 32.9729 30.3127 32.3464 30.8699 31.6832C31.0293 31.5001 31.1968 31.3289 31.3682 31.1574C31.7089 30.8153 32.0221 30.4562 32.3341 30.0872C32.418 29.9897 32.5021 29.8922 32.5862 29.7949C34.8791 27.1346 36.9313 24.2943 38.6265 21.2033C38.7284 21.0178 38.8317 20.8332 38.9355 20.6488C39.9792 18.7439 40.7686 16.6345 41.1145 14.4791C41.126 14.4085 41.1376 14.338 41.1495 14.2652C41.4701 11.8977 40.8527 9.50522 39.4734 7.5848C37.9927 5.6116 35.9357 4.30111 33.5039 3.94753C31.2348 3.66473 28.9608 4.2285 27.1152 5.60486C26.951 5.73691 26.7881 5.8706 26.6268 6.00621C26.5566 6.06392 26.4864 6.12164 26.4141 6.1811C26.0437 6.499 25.7371 6.83512 25.436 7.2214C24.7988 8.03096 24.0449 8.51349 23.0268 8.68187C22.0263 8.77304 21.0562 8.56415 20.2339 7.95965C19.7545 7.53695 19.3456 7.04075 18.9504 6.53786C17.5573 4.91017 15.3449 4.08505 13.2806 3.88798C10.4781 3.73015 8.09695 4.85591 6.13824 6.83887Z" fill="black"/>
<path d="M25.6609 21.971C26.0385 22.2706 26.3777 22.6068 26.7146 22.9521C26.7668 23.0021 26.819 23.0521 26.8727 23.1036C27.6807 23.9464 28.1505 25.2728 28.1524 26.4248C28.1545 26.4926 28.1567 26.5604 28.1589 26.6302C28.1617 27.1884 28.0261 27.6697 27.6411 28.0831C27.0804 28.5765 26.5515 28.688 25.8153 28.6803C25.169 28.6264 24.5174 28.4697 23.8939 28.2922C22.6452 28.0058 21.4502 28.1833 20.2281 28.4929C19.3539 28.7126 18.5992 28.7751 17.7586 28.3926C17.337 28.1197 17.0433 27.8093 16.8805 27.3223C16.6458 26.1082 16.9286 24.9062 17.5583 23.861C18.4767 22.5132 19.736 21.4005 21.341 21.0238C22.8949 20.7516 24.3493 21.0909 25.6609 21.971Z" fill="black"/>
<path d="M29.7054 17.283C30.2354 17.5788 30.4903 18.0795 30.6987 18.6376C30.9185 19.8118 30.7813 21.1447 30.1445 22.1661C29.8739 22.5347 29.609 22.8045 29.1731 22.9521C28.6342 22.9977 28.2803 22.9493 27.8561 22.5953C27.222 21.953 27.1273 21.0666 27.1152 20.1984C27.1213 19.2764 27.2832 18.3786 27.8825 17.6533C28.4119 17.1502 29.0238 16.9979 29.7054 17.283Z" fill="black"/>
<path d="M20.5793 13.4646C21.2412 13.8384 21.477 14.4011 21.7098 15.1035C21.9861 16.088 21.913 17.4113 21.4464 18.3143C21.2077 18.6804 20.9744 18.9498 20.5683 19.117C20.1093 19.1911 19.7019 19.1508 19.3061 18.8828C18.589 18.2664 18.3221 17.361 18.1976 16.4413C18.1274 15.5516 18.2002 14.6306 18.7158 13.8789C19.2245 13.3198 19.8855 13.1505 20.5793 13.4646Z" fill="black"/>
<path d="M16.3537 17.244C17.1443 17.7793 17.4577 18.5127 17.6488 19.4347C17.7187 20.4103 17.7275 21.4975 17.1439 22.3277C16.7926 22.6934 16.4953 22.963 15.9805 22.9799C15.4979 22.9721 15.2517 22.7967 14.8998 22.4671C14.1949 21.7244 14.0535 20.7114 14.0434 19.7245C14.0408 19.6436 14.0383 19.5626 14.0356 19.4791C14.0292 18.7763 14.2108 18.2214 14.6251 17.6565C15.1246 17.1609 15.69 17.0193 16.3537 17.244Z" fill="black"/>
<path d="M25.8613 13.5231C26.4162 13.969 26.6163 14.5173 26.7805 15.1982C26.8744 16.3195 26.7086 17.4413 26.1 18.4034C25.8061 18.7542 25.5009 19.0738 25.0371 19.1455C24.5567 19.17 24.2791 19.0873 23.9049 18.7602C23.3143 18.1779 23.1847 17.4206 23.1605 16.6174C23.1525 15.5668 23.2143 14.6834 23.8939 13.8437C24.4395 13.2813 25.1575 13.1217 25.8613 13.5231Z" fill="black"/>
</svg>
