<svg width="22" height="25" viewBox="0 0 22 25" fill="none" xmlns="http://www.w3.org/2000/svg">
<path d="M20 16C20 20.9706 15.9706 25 11 25C6.02944 25 2 20.9706 2 16C2 11.0294 6.02944 7 11 7C15.9706 7 20 11.0294 20 16Z" fill="#C1D3FE"/>
<path d="M9.26548 0.718131C9.29283 0.73218 9.32018 0.746228 9.34836 0.760703C9.96418 1.07893 10.5107 1.50527 10.9787 2.02269C11.1221 1.9602 11.2058 1.88347 11.3107 1.76721C12.0704 0.980712 13.0611 0.484251 14.1001 0.201745C14.1306 0.193438 14.161 0.185131 14.1924 0.176573C14.6889 0.0503518 15.1876 0.00632583 15.6983 0.00877931C15.7795 0.00914717 15.7795 0.00914717 15.8624 0.00952247C17.5857 0.0320384 19.0995 0.767187 20.3074 1.99786C21.0154 2.74098 21.4989 3.66883 21.783 4.65625C21.7989 4.71092 21.7989 4.71092 21.815 4.7667C21.9643 5.30902 22.0027 5.84375 21.9999 6.40381C21.9998 6.43651 21.9997 6.4692 21.9996 6.50288C21.9974 6.97915 21.98 7.43077 21.858 7.89318C21.8459 7.94226 21.8459 7.94226 21.8336 7.99234C21.6308 8.80771 21.2954 9.57448 20.7872 10.2414C20.747 10.2965 20.747 10.2965 20.706 10.3528C20.5505 10.5572 20.3891 10.7337 20.2009 10.9072C19.6532 11.4152 19.6532 11.4152 19.4723 12.1167C19.4345 12.6112 19.1472 13.0071 18.8019 13.3385C18.4115 13.6751 17.9258 13.9206 17.4035 13.8941C17.4029 13.9226 17.4023 13.9511 17.4016 13.9804C17.3706 14.5833 17.0944 15.1 16.6673 15.514C16.2721 15.8528 15.8122 16.0142 15.3047 16.0684C15.301 16.1 15.2973 16.1316 15.2935 16.1642C15.2061 16.7996 14.9527 17.3374 14.4526 17.7451C14.0621 18.0166 13.6829 18.2067 13.206 18.1992C13.2033 18.236 13.2006 18.2729 13.1978 18.3109C13.1323 18.948 12.8782 19.4023 12.435 19.8516C12.382 19.9084 12.329 19.9653 12.2761 20.0223C11.7572 20.5742 11.2648 20.9693 10.485 20.9996C9.81499 21.0104 9.2433 20.7943 8.74648 20.3318C8.49284 20.0524 8.3372 19.7364 8.23752 19.3733C8.20842 19.3802 8.17933 19.3872 8.14935 19.3943C7.52899 19.5047 6.91669 19.3843 6.39576 19.0254C5.89392 18.631 5.54669 18.1242 5.46417 17.4735C5.46064 17.426 5.4571 17.3784 5.45346 17.3295C5.40841 17.333 5.36336 17.3366 5.31694 17.3403C4.76116 17.3373 4.27183 17.0407 3.87672 16.6663C3.49884 16.2607 3.25976 15.7025 3.25834 15.1416C3.26102 15.0736 3.26423 15.0056 3.26905 14.9378C3.22135 14.9342 3.17364 14.9306 3.12449 14.9269C2.58591 14.854 2.1215 14.5312 1.79404 14.098C1.38573 13.4848 1.28617 12.8056 1.41223 12.0824C1.5276 11.7029 1.7491 11.3809 1.9841 11.0676C1.95252 11.0434 1.92094 11.0192 1.8884 10.9942C1.69096 10.8266 1.54323 10.6198 1.38446 10.4153C1.35343 10.3773 1.3224 10.3393 1.29043 10.3002C0.787287 9.66117 0.446901 8.89417 0.228007 8.11061C0.218455 8.07685 0.208903 8.0431 0.199062 8.00833C-0.053993 7.0644 -0.0735403 5.83706 0.185175 4.89271C0.195776 4.85373 0.206377 4.81476 0.217299 4.77461C0.521187 3.69655 1.01067 2.79345 1.76994 1.9792C1.80506 1.94075 1.84018 1.90229 1.87635 1.86267C3.75539 -0.129695 6.88423 -0.544305 9.26548 0.718131ZM11.1179 4.0529C11.0419 4.13034 10.9658 4.20777 10.8897 4.28519C10.7051 4.47308 10.5206 4.6611 10.3363 4.84922C10.5118 5.22786 10.8635 5.51 11.2357 5.67544C11.265 5.68923 11.2943 5.70302 11.3244 5.71722C11.7037 5.8721 12.1626 5.86094 12.5456 5.72266C12.9147 5.55436 13.1927 5.31843 13.4604 5.01553C13.5217 4.94842 13.5217 4.94842 13.6343 4.84922C13.8099 4.85572 13.9013 4.97373 14.0197 5.09439C14.0407 5.11556 14.0617 5.13672 14.0832 5.15853C14.1535 5.22961 14.2232 5.30113 14.293 5.37267C14.3432 5.42368 14.3934 5.47467 14.4437 5.52563C14.5802 5.66414 14.7162 5.80306 14.8522 5.94204C14.9944 6.08719 15.1369 6.23197 15.2794 6.37679C15.5492 6.65113 15.8187 6.92579 16.0881 7.20057C16.3947 7.51337 16.7018 7.8258 17.0088 8.1382C17.6405 8.78087 18.2717 9.424 18.9026 10.0674C19.5886 9.74166 20.0564 8.69867 20.316 8.02364C20.7513 6.74061 20.6379 5.46426 20.0686 4.25045C19.4821 3.04482 18.4094 2.12566 17.1652 1.68024C14.6098 0.891819 12.8273 2.30891 11.1179 4.0529ZM4.93948 1.6748C4.90955 1.68459 4.87961 1.69437 4.84876 1.70445C3.6118 2.12057 2.5812 3.00848 1.98511 4.18692C1.62423 4.92848 1.4054 5.79904 1.47012 6.63211C1.4741 6.68716 1.47807 6.7422 1.48217 6.79892C1.59458 8.09589 2.1767 9.21481 3.09772 10.1109C3.12207 10.1025 3.14642 10.0941 3.17151 10.0854C3.20458 10.0741 3.23765 10.0628 3.27173 10.0511C3.30403 10.04 3.33633 10.0289 3.36961 10.0175C3.40709 10.0053 3.44458 9.99306 3.48321 9.98047C3.52942 9.965 3.57564 9.94953 3.62325 9.93359C4.21025 9.78631 4.82343 9.89143 5.34371 10.1952C5.82935 10.5157 6.20664 10.989 6.33703 11.5736C6.37123 11.7948 6.38302 12.0184 6.39576 12.2417C6.43408 12.2512 6.47239 12.2608 6.51187 12.2706C6.84927 12.3604 7.13764 12.4686 7.42372 12.6765C7.45088 12.6962 7.47805 12.7158 7.50604 12.736C7.99017 13.121 8.18472 13.699 8.32318 14.2855C8.37337 14.295 8.42356 14.3046 8.47527 14.3144C9.13178 14.4458 9.66465 14.6702 10.0825 15.231C10.231 15.4593 10.3315 15.6812 10.4219 15.9379C10.4495 15.9373 10.4771 15.9366 10.5056 15.9359C10.6329 15.9331 10.7603 15.9314 10.8877 15.9298C10.9528 15.9281 10.9528 15.9281 11.0192 15.9265C11.6656 15.9202 12.1598 16.1861 12.6452 16.606C12.8105 16.7372 12.9765 16.738 13.1787 16.7356C13.422 16.7034 13.5783 16.566 13.7387 16.3864C13.827 16.1963 13.8719 16.0178 13.8485 15.8075C13.7452 15.5258 13.5755 15.3321 13.3667 15.1247C13.3358 15.0933 13.3049 15.0618 13.273 15.0294C13.1714 14.9265 13.0692 14.8241 12.9671 14.7217C12.8962 14.6501 12.8254 14.5784 12.7546 14.5068C12.5688 14.3188 12.3825 14.1313 12.1961 13.944C12.0057 13.7525 11.8158 13.5605 11.6259 13.3686C11.2536 12.9925 10.8808 12.6169 10.5076 12.2417C10.5803 12.0842 10.6665 11.9833 10.789 11.8605C10.8274 11.8218 10.8658 11.7832 10.9053 11.7433C10.9655 11.6833 10.9655 11.6833 11.0269 11.622C11.0678 11.5809 11.1087 11.5398 11.1496 11.4987C11.2495 11.3983 11.3496 11.2981 11.4499 11.1981C11.5746 11.2552 11.6626 11.3164 11.7585 11.4151C11.7977 11.4551 11.7977 11.4551 11.8376 11.4958C11.8799 11.5396 11.8799 11.5396 11.9229 11.5842C11.953 11.615 11.983 11.6458 12.014 11.6775C12.0791 11.7443 12.1442 11.8111 12.2092 11.8781C12.3122 11.9842 12.4154 12.0899 12.5188 12.1955C12.8126 12.4959 13.1059 12.7968 13.3988 13.0981C13.5781 13.2824 13.7577 13.4663 13.9376 13.6499C14.0061 13.7199 14.0743 13.7901 14.1424 13.8604C14.2377 13.9589 14.3336 14.0568 14.4296 14.1546C14.4575 14.1837 14.4854 14.2128 14.5141 14.2427C14.7055 14.4362 14.8814 14.5713 15.1587 14.6023C15.4386 14.5753 15.6208 14.4903 15.8187 14.2855C15.9693 14.0753 15.9859 13.8422 15.9472 13.5897C15.8501 13.343 15.6964 13.1882 15.5125 13.0066C15.4815 12.9754 15.4505 12.9443 15.4185 12.9122C15.3515 12.8449 15.2842 12.7777 15.2168 12.7106C15.1103 12.6046 15.0043 12.4981 14.8984 12.3915C14.5972 12.0885 14.2953 11.7864 13.9931 11.4846C13.8081 11.2997 13.6236 11.1144 13.4394 10.9288C13.369 10.8581 13.2985 10.7876 13.2277 10.7173C13.1291 10.6193 13.0311 10.5207 12.9332 10.4219C12.9036 10.3929 12.874 10.3638 12.8436 10.3339C12.8171 10.3069 12.7907 10.28 12.7635 10.2522C12.7402 10.229 12.717 10.2058 12.693 10.1819C12.6492 10.1109 12.6492 10.1109 12.6584 10.0214C12.7432 9.80838 12.9548 9.64797 13.1123 9.48854C13.1515 9.44748 13.1908 9.40642 13.2312 9.36412C13.2691 9.32552 13.307 9.28693 13.346 9.24717C13.3807 9.21161 13.4155 9.17605 13.4512 9.13942C13.5486 9.06728 13.5486 9.06728 13.6317 9.07659C13.7328 9.11574 13.7836 9.15959 13.8595 9.23757C13.8861 9.26458 13.9126 9.29159 13.94 9.31942C13.9831 9.36412 13.9831 9.36412 14.027 9.40972C14.0576 9.44097 14.0882 9.47222 14.1197 9.50442C14.1861 9.57235 14.2524 9.64043 14.3185 9.70865C14.4232 9.81657 14.5282 9.92408 14.6334 10.0315C14.8946 10.2984 15.155 10.566 15.4155 10.8335C15.6356 11.0595 15.8559 11.2852 16.0766 11.5106C16.1801 11.6166 16.2832 11.7229 16.3864 11.8293C16.4499 11.8943 16.5134 11.9592 16.577 12.0241C16.6199 12.0687 16.6199 12.0687 16.6636 12.1141C16.862 12.3156 17.0213 12.4266 17.3098 12.4347C17.5454 12.4293 17.6983 12.3541 17.8746 12.1982C18.0348 12.0189 18.0719 11.855 18.1022 11.6224C18.0585 11.231 17.7664 10.9773 17.5048 10.7159C17.4626 10.673 17.4204 10.6301 17.3782 10.5872C17.2642 10.4715 17.1498 10.3563 17.0352 10.2412C16.9153 10.1206 16.7959 9.99944 16.6764 9.87836C16.4505 9.64948 16.2241 9.42104 15.9975 9.19276C15.7394 8.93272 15.4819 8.67218 15.2243 8.4116C14.6949 7.87586 14.1648 7.34075 13.6343 6.80605C13.5855 6.82705 13.5367 6.84804 13.4864 6.86968C13.4211 6.89746 13.3558 6.92523 13.2905 6.95298C13.2585 6.9668 13.2264 6.98061 13.1935 6.99484C12.3624 7.34656 11.4595 7.33214 10.6254 6.99358C10.0717 6.73486 9.65493 6.31802 9.22265 5.89286C9.16457 5.83637 9.16457 5.83637 9.10532 5.77874C9.0004 5.67664 8.89615 5.57387 8.79228 5.47067C8.73071 5.40971 8.66867 5.34925 8.60663 5.2888C8.56919 5.25125 8.53174 5.2137 8.49317 5.17502C8.44244 5.12481 8.44244 5.12481 8.39069 5.07359C8.32318 4.97968 8.32318 4.97968 8.33074 4.89755C8.37503 4.78228 8.43369 4.72134 8.52028 4.6343C8.55287 4.60123 8.58545 4.56816 8.61902 4.53409C8.6544 4.49884 8.68978 4.46359 8.72623 4.42728C8.7623 4.39085 8.79837 4.35442 8.83552 4.31688C8.95088 4.20049 9.06668 4.08457 9.18249 3.96865C9.26074 3.88986 9.33896 3.81104 9.41714 3.7322C9.60897 3.53889 9.80115 3.34595 9.99362 3.1533C9.95333 3.10484 9.91293 3.05647 9.87249 3.00814C9.83877 2.96772 9.83877 2.96772 9.80436 2.92649C9.09442 2.11332 7.99237 1.65459 6.95257 1.50086C6.27109 1.46081 5.59298 1.45999 4.93948 1.6748ZM3.25567 11.8857C3.23 11.9104 3.20434 11.9351 3.1779 11.9605C2.97847 12.1631 2.80711 12.4019 2.79262 12.6972C2.80779 12.9736 2.91666 13.1524 3.11646 13.3397C3.32495 13.4842 3.48631 13.529 3.7402 13.5028C4.04028 13.3786 4.23596 13.1986 4.46031 12.9646C4.50846 12.9162 4.50846 12.9162 4.5576 12.8668C4.74752 12.6717 4.91352 12.4982 4.95655 12.2172C4.95404 11.9518 4.93445 11.7562 4.73871 11.5607C4.51641 11.3618 4.3795 11.3061 4.07951 11.312C3.73468 11.3574 3.49542 11.6511 3.25567 11.8857ZM5.2286 14.1877C5.19889 14.2171 5.16919 14.2466 5.13858 14.277C4.92973 14.4907 4.76514 14.7038 4.70257 15.0032C4.70663 15.2745 4.77077 15.4612 4.96073 15.6556C5.1286 15.8044 5.26357 15.8582 5.48291 15.8673C5.51753 15.8694 5.55215 15.8715 5.58781 15.8737C5.92668 15.8108 6.17602 15.5302 6.40914 15.2911C6.43921 15.2614 6.46927 15.2318 6.50025 15.2012C6.69992 14.9983 6.83299 14.8254 6.88397 14.5367C6.88061 14.2687 6.80934 14.1106 6.64204 13.9077C6.46582 13.7573 6.30549 13.6872 6.0772 13.6577C5.71232 13.7032 5.4774 13.9293 5.2286 14.1877ZM7.41301 16.2749C7.38331 16.3044 7.3536 16.3339 7.323 16.3643C7.10084 16.5916 6.91341 16.8262 6.88832 17.1555C6.90248 17.4072 7.00986 17.6069 7.18547 17.7806C7.41932 17.9312 7.62015 17.9788 7.89487 17.9383C8.17179 17.8124 8.38385 17.5922 8.59356 17.3757C8.62362 17.3456 8.65368 17.3156 8.68466 17.2847C8.89561 17.0693 9.06862 16.8708 9.07274 16.5522C9.06505 16.3166 8.99028 16.1567 8.83716 15.9814C8.63065 15.8179 8.46606 15.7471 8.20156 15.7522C7.87035 15.7945 7.63553 16.0439 7.41301 16.2749ZM10.1087 17.8431C10.0792 17.873 10.0497 17.9028 10.0193 17.9336C9.8249 18.1347 9.6394 18.3333 9.58688 18.6192C9.5932 18.8823 9.61509 19.0779 9.8089 19.2715C9.98986 19.4334 10.0987 19.5108 10.3443 19.5173C10.3838 19.5189 10.4233 19.5206 10.4639 19.5222C10.8082 19.4729 11.0341 19.2079 11.2679 18.9683C11.3002 18.9364 11.3325 18.9045 11.3657 18.8716C11.5898 18.6439 11.7275 18.4634 11.7685 18.1367C11.7378 17.8832 11.6442 17.6805 11.4552 17.5088C10.9254 17.1431 10.5015 17.4275 10.1087 17.8431Z" fill="black"/>
</svg>
