<svg width="53" height="50" viewBox="0 0 53 50" fill="none" xmlns="http://www.w3.org/2000/svg">
<path d="M25.1784 4.12649C25.6216 4.54004 26.0197 4.97978 26.3999 5.45444C26.7274 5.30906 26.908 5.15495 27.1301 4.87015C29.4504 2.07885 33.0959 0.325697 36.6366 0.0364064C38.2377 -0.0327751 39.8308 -0.0402747 41.393 0.355115C41.4733 0.375091 41.5537 0.395068 41.6364 0.41565C44.2909 1.09979 46.5764 2.43613 48.5277 4.39208C48.6143 4.47329 48.701 4.5545 48.7902 4.63817C51.1901 6.95118 52.8444 10.6367 52.9906 14.0203C52.9954 14.4694 52.9994 14.9184 52.9998 15.3676C52.9999 15.4895 52.9999 15.4895 53 15.6138C52.9983 16.824 52.9464 17.9805 52.6637 19.1589C52.646 19.2376 52.6282 19.3163 52.61 19.3975C52.1331 21.4993 51.3929 23.4809 50.4923 25.4268C50.4536 25.5116 50.4148 25.5965 50.3749 25.6839C48.5758 29.6027 46.0722 33.1514 43.4095 36.4926C43.2706 36.6673 43.1325 36.8427 42.9945 37.0182C42.5484 37.5845 42.0885 38.1332 41.6111 38.6719C41.4193 38.8891 41.2309 39.1087 41.044 39.3305C40.3014 40.2045 39.5354 41.0477 38.7313 41.8623C38.5263 42.0761 38.3365 42.2945 38.1488 42.5242C37.8001 42.9431 37.4091 43.3084 37.0112 43.6765C36.6603 44.0018 36.3223 44.3363 35.9903 44.6821C35.5671 45.1211 35.1298 45.5301 34.672 45.9304C34.5644 46.0263 34.457 46.1223 34.3496 46.2184C33.9773 46.5507 33.6017 46.8789 33.2243 47.2052C33.1643 47.2574 33.1042 47.3096 33.0423 47.3633C30.7904 49.3037 28.2147 50.1862 25.2625 49.9673C22.5277 49.6554 20.4955 48.267 18.4982 46.391C18.2789 46.1872 18.0576 45.987 17.8346 45.7876C16.7909 44.8511 15.7939 43.8608 14.8125 42.8562C14.7412 42.7834 14.6699 42.7106 14.5964 42.6357C14.1959 42.2229 13.8151 41.7986 13.4446 41.3573C13.1578 41.0204 12.8567 40.6977 12.5571 40.3729C12.0568 39.8264 11.579 39.2702 11.1232 38.6835C10.9047 38.4066 10.68 38.1374 10.452 37.8688C9.69471 36.9753 8.99539 36.0426 8.3047 35.0943C8.2463 35.0147 8.1879 34.9351 8.12773 34.8531C4.86159 30.3988 1.85503 25.411 0.510846 19.9557C0.486162 19.8556 0.461478 19.7555 0.436046 19.6524C0.10863 18.2562 -0.00675544 16.8906 0.000303063 15.4606C0.000491543 15.3811 0.000680025 15.3016 0.000874217 15.2197C0.00550869 14.0584 0.0532022 12.9569 0.342819 11.8286C0.374748 11.6879 0.406656 11.5473 0.438546 11.4066C1.06892 8.8073 2.46536 6.50421 4.27206 4.60456C4.3547 4.51308 4.43734 4.4216 4.52248 4.32735C10.0759 -1.67664 19.4215 -1.07458 25.1784 4.12649ZM22.1851 16.6084C21.5319 17.5476 21.3996 18.5502 21.5715 19.6857C21.7684 20.7706 22.0682 21.7346 22.923 22.4589C23.3389 22.7305 23.6397 22.7359 24.1251 22.6647C24.7209 22.3831 25.0791 21.8763 25.3659 21.2836C25.5479 20.6763 25.6095 20.1244 25.605 19.4909C25.6045 19.407 25.604 19.3232 25.6034 19.2368C25.5814 18.1064 25.2677 17.1006 24.4611 16.2972C23.6642 15.7775 22.8177 15.8733 22.1851 16.6084ZM28.19 16.6889C27.2991 17.7902 27.3335 19.1744 27.4339 20.54C27.5769 21.2946 27.8938 21.9464 28.4679 22.4522C28.861 22.6888 29.1482 22.7124 29.6053 22.6647C30.2853 22.3828 30.618 21.9472 30.9495 21.2836C31.438 20.053 31.6824 18.7463 31.2597 17.4591C30.989 16.8756 30.6543 16.4249 30.1223 16.0781C29.2935 15.8315 28.7697 16.0486 28.19 16.6889ZM17.2812 21.1973C16.6374 22.0267 16.5092 23.0002 16.622 24.0362C16.8108 25.2968 17.1528 26.3118 18.1666 27.1067C18.5281 27.2747 18.7683 27.2825 19.1618 27.2328C19.723 26.9504 20.1158 26.5231 20.4026 25.958C20.827 24.5569 20.8545 23.1799 20.2657 21.8165C19.9788 21.2934 19.7082 20.8994 19.1618 20.6462C18.3681 20.4376 17.8481 20.5735 17.2812 21.1973ZM32.7207 21.4065C32.0119 22.5958 31.9088 24.0366 32.1576 25.3849C32.3702 26.1 32.6781 26.7547 33.3257 27.1432C33.6538 27.284 33.9062 27.2696 34.2584 27.2328C34.89 26.9596 35.2685 26.5721 35.6026 25.958C36.11 24.678 36.3717 23.2927 35.9168 21.9517C35.6732 21.4003 35.3723 20.9127 34.8271 20.6462C33.9415 20.3862 33.2827 20.6594 32.7207 21.4065ZM21.6434 27.3391C20.6021 28.5621 19.8819 30.0166 19.8864 31.669C19.9343 32.3851 20.1039 32.9083 20.6159 33.4144C21.305 33.9823 22.1279 34.1027 22.9876 34.0319C23.3391 33.9607 23.6823 33.8622 24.0281 33.7663C25.8237 33.3162 27.5344 33.3731 29.3211 33.8429C30.2579 34.0891 31.0932 34.1572 31.9835 33.7132C32.5244 33.3578 32.8269 32.9701 33.0175 32.3322C33.2141 30.5969 32.7122 29.1264 31.6733 27.764C30.4638 26.2706 28.8501 25.2575 26.9557 25.0085C24.9396 24.9074 23.0233 25.8658 21.6434 27.3391Z" fill="#004E89"/>
</svg>
