<svg width="55" height="50" viewBox="0 0 55 50" fill="none" xmlns="http://www.w3.org/2000/svg">
<path d="M25.8477 4.1242C26.3027 4.53752 26.7115 4.97702 27.1019 5.45142C27.4383 5.30612 27.6237 5.15209 27.8518 4.86744C30.2344 2.07769 33.9777 0.325516 37.6134 0.0363862C39.2575 -0.0327569 40.8934 -0.0402523 42.4976 0.354917C42.5801 0.374883 42.6625 0.394849 42.7475 0.41542C45.4733 1.09918 47.8201 2.43478 49.8238 4.38964C49.9128 4.47081 50.0017 4.55197 50.0934 4.63559C52.5577 6.94732 54.2564 10.6308 54.4065 14.0125C54.4114 14.4614 54.4156 14.9102 54.416 15.3591C54.4161 15.4809 54.4161 15.4809 54.4162 15.6051C54.4145 16.8146 54.3611 17.9705 54.0709 19.1483C54.0527 19.2269 54.0344 19.3056 54.0157 19.3867C53.526 21.4874 52.7659 23.4678 51.8412 25.4127C51.8014 25.4975 51.7616 25.5822 51.7206 25.6696C50.3088 28.6628 48.4909 31.5338 46.4261 34.1192C46.2991 34.2854 46.1721 34.4515 46.0456 34.6181C44.7195 36.3605 43.316 38.0456 41.8253 39.6495C41.6167 39.8773 41.4144 40.1071 41.2134 40.3414C40.7718 40.8466 40.3019 41.3205 39.827 41.7942C39.6902 41.9312 39.6902 41.9312 39.5506 42.0709C39.3588 42.2628 39.1669 42.4545 38.9748 42.6462C38.6827 42.9377 38.3912 43.2298 38.0997 43.5219C37.9124 43.7092 37.725 43.8965 37.5375 44.0837C37.4514 44.1701 37.3652 44.2565 37.2764 44.3455C36.7684 44.8514 36.2462 45.332 35.7022 45.7987C35.5315 45.9531 35.3612 46.1079 35.1913 46.2632C33.4534 47.8281 31.6364 49.1665 29.3316 49.7272C29.1861 49.763 29.1861 49.763 29.0376 49.7994C26.4331 50.3312 23.7461 49.784 21.4944 48.4133C20.5953 47.8103 19.7858 47.0945 18.9881 46.3652C18.7631 46.1617 18.5359 45.9617 18.307 45.7626C17.2541 44.8431 16.2467 43.8718 15.2565 42.8855C15.1884 42.8178 15.1202 42.7501 15.05 42.6804C14.6474 42.2765 14.2654 41.8603 13.8947 41.4269C13.721 41.2301 13.5394 41.0452 13.352 40.8615C12.9579 40.4725 12.5972 40.0608 12.2371 39.6404C12.0996 39.4815 12.0996 39.4815 11.9592 39.3194C10.6046 37.7519 9.30366 36.1536 8.07506 34.485C7.95157 34.3173 7.82772 34.1499 7.70344 33.9828C3.77128 28.6952 0.0055754 22.2595 0.000217098 15.4918C0.000145456 15.4107 7.38132e-05 15.3297 0 15.2462C0.001651 14.0724 0.0444631 12.9627 0.345292 11.822C0.378078 11.6814 0.410843 11.5408 0.443589 11.4002C1.09089 8.80241 2.52482 6.50059 4.38002 4.602C4.46488 4.51057 4.54974 4.41914 4.63717 4.32494C10.3396 -1.67571 19.9362 -1.07398 25.8477 4.1242ZM7.42266 8.14151C5.8131 9.84477 4.68625 12.3262 4.59237 14.6888C4.58416 14.8555 4.58416 14.8555 4.57578 15.0256C4.4285 20.7452 7.89866 26.5524 11.2427 30.9546C11.3949 31.1558 11.5449 31.3584 11.6946 31.5614C13.0161 33.3486 14.4272 35.0769 15.9251 36.7193C16.1244 36.9402 16.3202 37.1633 16.5153 37.3879C16.9047 37.8337 17.3057 38.2675 17.7119 38.6981C17.8217 38.8146 17.8217 38.8146 17.9338 38.9334C19.2737 40.3536 19.2737 40.3536 20.7139 41.6698C20.9679 41.8913 21.2117 42.1219 21.4563 42.3537C23.0617 43.8692 24.7029 45.3188 27.0335 45.3839C29.5178 45.2652 31.1644 43.5884 32.8927 42.002C33.1272 41.7884 33.365 41.5796 33.6053 41.3724C33.939 41.0828 34.2497 40.7767 34.5592 40.4616C34.748 40.2762 34.9436 40.1042 35.1448 39.9324C35.9306 39.2534 36.6555 38.5076 37.3293 37.718C37.5221 37.5001 37.7247 37.2963 37.932 37.0922C38.344 36.6849 38.7226 36.2574 39.0999 35.818C39.2014 35.702 39.3031 35.586 39.4048 35.4701C42.1775 32.3031 44.6591 28.9218 46.709 25.242C46.8323 25.0212 46.9572 24.8015 47.0827 24.5819C48.3448 22.3141 49.2993 19.8029 49.7176 17.2371C49.7316 17.153 49.7455 17.069 49.7599 16.9824C50.1476 14.164 49.401 11.3157 47.7332 9.02952C45.9426 6.68047 43.4552 5.12037 40.5145 4.69944C37.7707 4.36278 35.0208 5.03393 32.789 6.67245C32.5905 6.82966 32.3935 6.98881 32.1984 7.15025C32.1135 7.21896 32.0287 7.28766 31.9413 7.35845C31.4933 7.7369 31.1225 8.13704 30.7584 8.59691C29.9879 9.56067 29.0762 10.1351 27.8451 10.3356C26.6352 10.4441 25.4621 10.1954 24.4678 9.47577C23.8881 8.97256 23.3937 8.38184 22.9158 7.78316C21.2312 5.84544 18.5558 4.86315 16.0595 4.62854C12.6706 4.44065 9.79122 5.78084 7.42266 8.14151Z" fill="black"/>
<path d="M31.0303 26.1559C31.4869 26.5126 31.8971 26.9128 32.3045 27.3239C32.3676 27.3834 32.4307 27.443 32.4957 27.5043C33.4727 28.5077 34.0408 30.0867 34.0431 31.4581C34.0457 31.5388 34.0483 31.6195 34.051 31.7026C34.0544 32.3671 33.8904 32.9401 33.4249 33.4323C32.7467 34.0197 32.1072 34.1523 31.217 34.1433C30.4354 34.0791 29.6475 33.8925 28.8935 33.6812C27.3836 33.3403 25.9385 33.5515 24.4606 33.9201C23.4035 34.1816 22.4909 34.2561 21.4744 33.8007C20.9646 33.4758 20.6095 33.1063 20.4126 32.5266C20.1288 31.0812 20.4708 29.6502 21.2322 28.406C22.3428 26.8015 23.8656 25.4768 25.8064 25.0283C27.6855 24.7042 29.4442 25.1082 31.0303 26.1559Z" fill="black"/>
<path d="M35.9217 20.575C36.5626 20.9272 36.8708 21.5232 37.1228 22.1876C37.3886 23.5855 37.2227 25.1722 36.4526 26.3882C36.1254 26.827 35.8051 27.1482 35.278 27.3239C34.6263 27.3782 34.1983 27.3206 33.6853 26.8992C32.9185 26.1345 32.804 25.0793 32.7895 24.0457C32.7969 22.9481 32.9926 21.8792 33.7173 21.0159C34.3574 20.4169 35.0974 20.2356 35.9217 20.575Z" fill="black"/>
<path d="M24.8852 16.0293C25.6857 16.4743 25.9708 17.1442 26.2522 17.9803C26.5864 19.1524 26.498 20.7277 25.9337 21.8027C25.6451 22.2386 25.363 22.5592 24.8719 22.7582C24.3169 22.8465 23.8242 22.7986 23.3456 22.4795C22.4784 21.7457 22.1557 20.6678 22.0052 19.5729C21.9203 18.5138 22.0084 17.4173 22.6319 16.5224C23.247 15.8569 24.0463 15.6554 24.8852 16.0293Z" fill="black"/>
<path d="M19.7764 20.5285C20.7323 21.1659 21.1114 22.0389 21.3425 23.1365C21.4269 24.2979 21.4377 25.5922 20.732 26.5806C20.3071 27.0159 19.9475 27.3369 19.3251 27.3571C18.7415 27.3477 18.4437 27.139 18.0182 26.7465C17.1659 25.8623 16.9948 24.6565 16.9826 23.4816C16.9795 23.3852 16.9764 23.2887 16.9733 23.1894C16.9655 22.3527 17.185 21.6921 17.686 21.0196C18.2901 20.4296 18.9738 20.261 19.7764 20.5285Z" fill="black"/>
<path d="M31.2732 16.099C31.9442 16.6298 32.1862 17.2825 32.3847 18.0931C32.4983 19.428 32.2978 20.7635 31.5618 21.9089C31.2064 22.3265 30.8374 22.707 30.2765 22.7923C29.6956 22.8215 29.3599 22.7229 28.9074 22.3336C28.1932 21.6404 28.0366 20.7388 28.0073 19.7827C27.9976 18.5319 28.0723 17.4802 28.8941 16.4806C29.5538 15.8111 30.4221 15.621 31.2732 16.099Z" fill="black"/>
</svg>
