<svg width="57" height="50" viewBox="0 0 57 50" fill="none" xmlns="http://www.w3.org/2000/svg">
<path d="M21.8599 0C23.181 0.0309416 24.1559 0.110049 25.1504 1.04377C28.0165 4.8351 27.5901 8.40754 27.1661 12.9149C26.9012 15.9289 26.9012 15.9289 27.94 18.6765C28.8285 19.4968 29.7064 20.2495 30.7037 20.931C30.5577 21.6659 30.4118 22.4007 30.2615 23.1577C27.641 22.8561 26.3955 21.5296 24.6426 19.642C23.064 17.3772 23.6302 15.0491 23.9879 12.4417C24.6195 8.36866 24.6195 8.36866 23.6286 4.45341C23.3368 4.45341 23.0449 4.45341 22.7443 4.45341C22.5163 4.8943 22.2883 5.33519 22.0533 5.78944C21.6977 6.23033 21.342 6.67121 20.9755 7.12546C20.1309 7.20896 20.1308 7.20896 19.1515 7.12546C16.8135 6.95699 15.3781 7.8228 13.4013 8.99555C12.4898 9.74308 12.4898 9.74308 12.2716 10.8917C12.484 12.1613 12.484 12.1613 13.8314 12.9427C14.3659 13.2385 14.9051 13.5259 15.4481 13.8056C16.4975 14.3461 17.3573 14.8821 18.3224 15.5869C18.502 16.8116 18.502 16.8116 18.3224 17.8137C17.4468 17.8137 16.5713 17.8137 15.6692 17.8137C15.5598 18.0984 15.4503 18.3831 15.3376 18.6765C15.0301 19.4353 14.7106 20.1905 14.3478 20.9241C13.1231 23.4537 12.6902 25.6961 12.5739 28.5018C13.8388 27.8965 14.7226 27.3238 15.6692 26.2751C16.2529 26.5691 16.8366 26.863 17.438 27.1658C17.3827 28.1678 17.3827 28.1678 16.9958 29.3925C14.9844 30.9779 13.3788 31.6523 10.8552 31.7601C10.4406 31.7788 10.0259 31.7975 9.59863 31.8167C9.16685 31.8342 8.73507 31.8517 8.2902 31.8697C7.85329 31.889 7.41637 31.9082 6.96622 31.928C5.88758 31.9752 4.8089 32.0207 3.73012 32.0646C3.43828 32.6524 3.14643 33.2403 2.84574 33.8459C4.59662 33.8357 6.34627 33.8011 8.09674 33.7624C8.58695 33.7599 9.07716 33.7573 9.58222 33.7546C12.6105 33.6739 14.7398 33.2414 17.3432 31.6483C18.4824 31.0963 19.2845 31.0871 20.5333 31.1739C20.8097 32.0089 20.8097 32.0089 20.9755 32.9553C20.6837 33.2492 20.3918 33.5431 20.0911 33.8459C19.8929 34.931 19.8929 34.931 20.0911 36.0726C22.6545 39.4764 27.1336 41.3411 31.1459 42.3074C31.1253 41.9205 31.1048 41.5336 31.0837 41.1349C30.925 36.0319 30.925 36.0319 32.9146 33.8459C33.3568 33.4006 33.3568 33.4006 34.4899 33.3728C34.8456 33.382 35.2013 33.3911 35.5678 33.4006C35.7351 35.4236 35.7351 35.4236 34.9045 36.4345C34.079 37.6469 34.0326 38.6497 34.0754 40.1016C34.3259 41.4156 35.1718 42.1906 36.0099 43.1981C35.8994 44.4506 35.8994 44.4506 35.5678 45.4248C35.2691 45.4518 34.9704 45.4788 34.6626 45.5066C34.2682 45.5439 33.8737 45.5812 33.4674 45.6197C32.8825 45.6739 32.8825 45.6739 32.2859 45.7292C31.2814 45.8534 30.3506 46.0429 29.3771 46.3155C29.3771 46.6094 29.3771 46.9033 29.3771 47.2062C31.22 47.1829 33.062 47.1405 34.9045 47.0948C35.6825 47.0854 35.6825 47.0854 36.4763 47.0757C39.9251 46.9781 42.659 46.722 45.2251 44.1706C45.3853 43.9139 45.5454 43.6573 45.7105 43.3929C45.8786 43.1352 46.0468 42.8774 46.22 42.6119C47.3982 40.417 47.3572 38.0506 47.0647 35.6273C45.664 32.092 42.9944 30.3416 39.6304 28.8358C39.1168 28.6039 38.6032 28.372 38.0741 28.133C37.4901 27.8747 37.4901 27.8747 36.8943 27.6112C36.8943 26.8763 36.8943 26.1415 36.8943 25.3845C37.8967 25.0403 38.4696 24.8763 39.4923 25.2085C39.771 25.3573 40.0497 25.5061 40.3368 25.6593C40.6443 25.8195 40.9519 25.9796 41.2687 26.1447C41.5854 26.3163 41.902 26.488 42.2282 26.6648C42.8595 26.9983 43.4911 27.3312 44.1231 27.6634C44.4013 27.8131 44.6795 27.9629 44.9661 28.1172C45.8108 28.5602 45.8108 28.5602 47.0647 28.9472C48.5711 26.3044 49.3995 24.0144 49.2756 20.931C48.6966 19.1815 47.7905 18.055 46.5948 16.7003C44.7128 14.5461 44.1755 12.3858 44.2423 9.54874C44.6467 6.95073 45.9033 4.71472 47.7556 2.89472C48.1113 2.67427 48.467 2.45383 48.8334 2.22671C49.107 2.03382 49.3806 1.84093 49.6625 1.6422C51.1314 1.16359 52.2205 1.40273 53.6975 1.78137C55.0187 2.85447 55.0303 3.607 55.2728 5.31626C55.2417 6.44225 55.1962 6.93849 54.4282 7.7726C54.187 7.954 53.9459 8.13541 53.6975 8.32232C52.2741 9.18506 52.2741 9.18506 52.1965 10.422C52.4108 11.8433 52.8349 12.2988 53.8357 13.3046C56.1199 15.6099 56.9503 17.9469 57 21.1347C56.9955 21.4716 56.9909 21.8086 56.9863 22.1557C56.9826 22.5085 56.979 22.8612 56.9752 23.2246C56.8358 28.1196 55.1596 31.5582 51.9287 35.182C51.6859 35.3783 51.4431 35.5746 51.1929 35.7769C50.285 36.9158 50.3594 38.0323 50.2429 39.4684C49.8155 42.8875 48.8315 45.1374 46.296 47.4671C43.6679 49.4977 41.0483 50.0131 37.7683 49.9652C37.4384 49.9639 37.1084 49.9627 36.7685 49.9614C35.7233 49.9564 34.6783 49.9453 33.6332 49.9339C32.921 49.9294 32.2087 49.9254 31.4965 49.9217C29.7582 49.9119 28.02 49.8966 26.2818 49.8782C25.8757 48.1188 25.8095 47.3278 26.6963 45.731C26.8645 45.4204 27.0326 45.1098 27.2059 44.7899C27.3387 44.5585 27.4715 44.3272 27.6083 44.0888C27.296 44.0429 26.9836 43.9969 26.6618 43.9496C25.2268 43.6021 24.1397 43.0349 22.8548 42.3074C22.4284 42.0686 22.0021 41.8298 21.5628 41.5837C20.5333 40.9714 20.5333 40.9714 20.0911 40.5261C20.0695 40.9503 20.0478 41.3745 20.0255 41.8116C19.9924 42.3702 19.9594 42.9288 19.9253 43.5043C19.8945 44.0571 19.8637 44.6099 19.832 45.1795C19.6623 46.6455 19.4472 47.6896 18.7646 48.9875C17.3884 49.9115 17.0663 49.9919 15.5017 49.9965C15.1309 49.9977 14.7601 49.9988 14.3781 50C13.9925 49.9966 13.6068 49.9931 13.2096 49.9896C12.6286 49.9947 12.6286 49.9947 12.0359 50C11.6656 49.9989 11.2954 49.9977 10.914 49.9965C10.5751 49.9955 10.2362 49.9945 9.88698 49.9935C9.03639 49.8782 9.0364 49.8782 8.15202 48.9875C7.79772 45.8781 7.79772 45.8781 9.17458 44.1166C10.363 43.1981 10.363 43.1981 11.6895 42.7528C11.6895 40.6953 11.6895 38.6378 11.6895 36.518C10.5558 36.5257 10.5558 36.5257 9.39913 36.5336C8.41226 36.5378 7.4254 36.5419 6.43853 36.5458C5.69039 36.5514 5.69039 36.5514 4.92714 36.5571C4.45118 36.5586 3.97522 36.56 3.48484 36.5615C3.04487 36.5638 2.60489 36.5661 2.15158 36.5685C1.07699 36.518 1.07698 36.518 0.192606 36.0726C-0.154647 32.0702 -0.154645 32.0702 1.24281 30.2554C3.1031 28.8725 4.12524 28.8982 6.43853 28.9194C7.28842 28.9254 7.28841 28.9254 8.15547 28.9315C8.59209 28.9367 9.02873 28.9419 9.47859 28.9472C9.46719 28.4828 9.45578 28.0183 9.44403 27.5398C9.51919 23.8195 10.8518 20.6058 12.5739 17.3683C12.7198 16.9274 12.8658 16.4865 13.0161 16.0323C12.5236 15.7384 12.0311 15.4444 11.5237 15.1416C9.93608 14.0023 9.47154 13.0524 9.07784 11.1614C9.02494 9.98909 9.10278 9.13375 9.47859 8.01614C10.4113 7.26115 10.4113 7.26115 11.579 6.62445C11.9597 6.41205 12.3405 6.19964 12.7328 5.98079C13.1181 5.77068 13.5035 5.56057 13.9005 5.3441C14.2767 5.09897 14.6529 4.85384 15.0405 4.60128C16.1395 3.99254 16.6566 3.89724 17.8802 3.92457C19.1365 3.82393 19.5178 3.71189 20.3675 2.74511C20.9177 1.84774 21.4116 0.952778 21.8599 0ZM51.4866 4.00807C48.6699 5.75254 48.6699 5.75254 47.234 8.62501C46.985 11.0639 46.9587 12.6019 48.3912 14.6963C48.8383 15.2196 49.29 15.739 49.7454 16.255C51.5599 18.3272 52.1238 20.2808 52.0393 23.0673C51.6548 26.48 50.3409 29.286 48.3912 32.0646C49.0479 32.7259 49.0479 32.7259 49.7178 33.4006C53.2366 29.463 54.3112 25.9732 54.2623 20.6997C54.0322 17.7913 52.8923 16.1126 50.9338 14.0561C49.8601 12.8537 49.5016 12.0317 49.4138 10.4099C49.5172 8.79595 49.6855 8.49898 50.7956 7.20896C51.1696 6.88748 51.5435 6.566 51.9287 6.23478C52.3096 5.26684 52.3096 5.26684 52.3709 4.45341C52.0791 4.30645 51.7873 4.15949 51.4866 4.00807ZM14.3427 36.0726C14.3427 39.1589 14.3427 42.2451 14.3427 45.4248C13.3212 45.5718 12.2997 45.7187 11.2473 45.8702C11.1014 46.311 10.9555 46.7519 10.8051 47.2062C12.7021 47.2062 14.5991 47.2062 16.5536 47.2062C17.1306 46.0441 17.0458 45.1901 17.039 43.8905C17.0376 43.4111 17.0361 42.9318 17.0347 42.4379C17.0291 41.6844 17.0291 41.6844 17.0234 40.9157C17.0214 40.41 17.0194 39.9042 17.0174 39.3831C17.0122 38.1312 17.0049 36.8792 16.9958 35.6273C15.9505 35.5913 15.9505 35.5913 14.3427 36.0726Z" fill="#003566"/>
<path d="M32.4724 23.1577C33.202 23.1577 33.9316 23.1577 34.6834 23.1577C34.8293 23.5986 34.9752 24.0395 35.1255 24.4938C34.6878 25.1551 34.6878 25.1551 34.2412 25.8298C33.6575 25.6828 33.0738 25.5359 32.4724 25.3845C32.4724 24.6496 32.4724 23.9148 32.4724 23.1577Z" fill="#003566"/>
</svg>
