<svg width="56" height="50" viewBox="0 0 56 50" fill="none" xmlns="http://www.w3.org/2000/svg">
<path d="M24.2993 3.18788C25.5841 4.25335 26.5643 5.42967 27.5667 6.78225C27.8519 6.78225 28.137 6.78225 28.4308 6.78225C28.8617 6.25779 29.2722 5.71547 29.673 5.16618C32.0219 2.29346 35.6818 0.34792 39.3301 0.00449734C44.359 -0.0969174 48.0144 1.51528 51.7618 4.999C52.8227 6.25607 53.6207 7.52862 54.3542 9.01131C54.5001 9.29635 54.646 9.5814 54.7963 9.87507C56.5268 14.0688 56.257 19.8275 54.8402 24.0575C50.7729 33.3463 42.808 40.2484 34.9117 46.0138C34.6248 46.2263 34.3379 46.4389 34.0423 46.6579C33.2317 47.253 32.4138 47.8343 31.5902 48.41C31.1252 48.7353 30.6601 49.0606 30.181 49.3957C28.5593 50.1713 27.9576 50.1642 26.2706 49.5803C25.1294 48.9387 24.0841 48.1897 23.0301 47.407C22.576 47.0752 22.576 47.0752 22.1128 46.7367C21.1895 46.0566 20.2729 45.3678 19.3577 44.6763C19.0965 44.4818 18.8354 44.2873 18.5663 44.0869C12.0619 39.2064 5.8511 33.3616 2.07545 25.9522C1.87272 25.558 1.66999 25.1637 1.46112 24.7576C-0.347871 20.5513 -0.488678 14.769 1.10333 10.4602C1.40836 9.81864 1.73043 9.18512 2.07545 8.5655C2.33387 8.09656 2.5923 7.62762 2.85855 7.14447C8.31159 -0.0898247 16.7343 -2.41668 24.2993 3.18788Z" fill="#FF6B35"/>
</svg>
