<svg width="50" height="50" viewBox="0 0 50 50" fill="none" xmlns="http://www.w3.org/2000/svg">
<path d="M26.9399 0.182566C28.5489 1.08742 29.1363 1.933 29.6557 3.67342C29.7596 4.95357 29.7459 6.22763 29.7314 7.51124C29.7304 7.8787 29.7293 8.24615 29.7281 8.62474C29.7238 9.79451 29.7141 10.9642 29.7042 12.1339C29.7003 12.9286 29.6967 13.7233 29.6936 14.518C29.685 16.4627 29.6716 18.4073 29.6557 20.352C30.1489 20.3459 30.642 20.3398 31.1502 20.3335C32.9852 20.3124 34.8203 20.2991 36.6555 20.288C37.4487 20.2822 38.242 20.2743 39.0352 20.2642C40.1774 20.25 41.3195 20.2435 42.4618 20.2383C42.8147 20.2323 43.1676 20.2263 43.5312 20.2201C45.5428 20.2196 46.9227 20.3965 48.6663 21.5156C49.7607 22.6281 49.9976 23.4359 50 24.9822C49.9562 26.3348 49.8544 26.9029 49.1756 28.1094C47.126 29.8815 45.0812 29.7658 42.4997 29.7367C42.1321 29.7356 41.7646 29.7345 41.3859 29.7333C40.2158 29.729 39.0459 29.7193 37.8758 29.7094C37.081 29.7055 36.2861 29.702 35.4912 29.6988C33.546 29.6903 31.6008 29.6769 29.6557 29.6609C29.6618 30.154 29.6679 30.647 29.6741 31.155C29.6953 32.9896 29.7086 34.8242 29.7196 36.6589C29.7255 37.452 29.7334 38.245 29.7435 39.038C29.7576 40.18 29.7642 41.3217 29.7693 42.4637C29.7753 42.8166 29.7814 43.1694 29.7875 43.5329C29.7881 45.544 29.6111 46.9235 28.4918 48.6667C27.3789 49.7607 26.5709 49.9976 25.0242 50C23.6713 49.9562 23.1031 49.8545 21.8962 49.1758C20.1236 47.1268 20.2394 45.0825 20.2685 42.5016C20.2696 42.1342 20.2707 41.7667 20.2719 41.3881C20.2762 40.2184 20.2859 39.0487 20.2958 37.879C20.2997 37.0843 20.3033 36.2896 20.3064 35.4949C20.315 33.5502 20.3284 31.6056 20.3443 29.6609C19.8511 29.667 19.358 29.6731 18.8498 29.6794C17.0148 29.7005 15.1797 29.7138 13.3445 29.7248C12.5513 29.7307 11.758 29.7386 10.9648 29.7487C9.82255 29.7629 8.68049 29.7694 7.53819 29.7745C7.18529 29.7806 6.83239 29.7866 6.46879 29.7927C4.45719 29.7933 3.07727 29.6164 1.33366 28.4973C0.239328 27.3847 0.00238313 26.5769 0 25.0307C0.0438376 23.678 0.145584 23.11 0.824442 21.9035C2.87399 20.1313 4.91875 20.2471 7.5003 20.2762C7.86785 20.2773 8.2354 20.2784 8.61409 20.2795C9.78416 20.2839 10.9541 20.2936 12.1242 20.3035C12.919 20.3074 13.7139 20.3109 14.5088 20.3141C16.454 20.3226 18.3992 20.336 20.3443 20.352C20.3382 19.8589 20.3321 19.3659 20.3259 18.8579C20.3047 17.0232 20.2914 15.1887 20.2804 13.354C20.2745 12.5609 20.2666 11.7678 20.2565 10.9748C20.2424 9.8329 20.2358 8.69113 20.2307 7.54912C20.2217 7.01991 20.2217 7.01991 20.2125 6.48C20.2119 4.46891 20.3889 3.08935 21.5082 1.34619C23.0981 -0.216807 24.8277 -0.125454 26.9399 0.182566Z" fill="#001D3D"/>
</svg>
