<svg width="24" height="24" viewBox="0 0 24 24" fill="none" xmlns="http://www.w3.org/2000/svg">
<path d="M12.0027 6.38965C8.89722 6.38965 6.39233 8.89453 6.39233 12C6.39233 15.1055 8.89722 17.6103 12.0027 17.6103C15.1082 17.6103 17.613 15.1055 17.613 12C17.613 8.89453 15.1082 6.38965 12.0027 6.38965ZM12.0027 15.6475C9.99585 15.6475 8.35522 14.0117 8.35522 12C8.35522 9.98828 9.99097 8.35254 12.0027 8.35254C14.0144 8.35254 15.6501 9.98828 15.6501 12C15.6501 14.0117 14.0095 15.6475 12.0027 15.6475ZM19.1511 6.16016C19.1511 6.8877 18.5652 7.46875 17.8425 7.46875C17.115 7.46875 16.5339 6.88281 16.5339 6.16016C16.5339 5.4375 17.1199 4.85156 17.8425 4.85156C18.5652 4.85156 19.1511 5.4375 19.1511 6.16016ZM22.8669 7.48828C22.7839 5.73535 22.3835 4.18262 21.0994 2.90332C19.8201 1.62402 18.2673 1.22363 16.5144 1.13574C14.7078 1.0332 9.29272 1.0332 7.48608 1.13574C5.73804 1.21875 4.1853 1.61914 2.90112 2.89844C1.61694 4.17773 1.22144 5.73047 1.13354 7.4834C1.03101 9.29004 1.03101 14.7051 1.13354 16.5117C1.21655 18.2646 1.61694 19.8174 2.90112 21.0967C4.1853 22.376 5.73315 22.7764 7.48608 22.8643C9.29272 22.9668 14.7078 22.9668 16.5144 22.8643C18.2673 22.7812 19.8201 22.3809 21.0994 21.0967C22.3787 19.8174 22.7791 18.2646 22.8669 16.5117C22.9695 14.7051 22.9695 9.29492 22.8669 7.48828ZM20.533 18.4502C20.1521 19.4072 19.4148 20.1445 18.4529 20.5303C17.0125 21.1016 13.5945 20.9697 12.0027 20.9697C10.4109 20.9697 6.98804 21.0967 5.55249 20.5303C4.59546 20.1494 3.85815 19.4121 3.47241 18.4502C2.90112 17.0098 3.03296 13.5918 3.03296 12C3.03296 10.4082 2.90601 6.98535 3.47241 5.5498C3.85327 4.59277 4.59058 3.85547 5.55249 3.46973C6.99292 2.89844 10.4109 3.03027 12.0027 3.03027C13.5945 3.03027 17.0173 2.90332 18.4529 3.46973C19.4099 3.85059 20.1472 4.58789 20.533 5.5498C21.1042 6.99023 20.9724 10.4082 20.9724 12C20.9724 13.5918 21.1042 17.0146 20.533 18.4502Z" fill="black"/>
</svg>
