<svg style="position: relative; margin-left: 10rem" xmlns="http://www.w3.org/2000/svg" width="559" height="671" viewBox="0 0 559 671" fill="none">
            <path fill-rule="evenodd" clip-rule="evenodd" d="M0 432.981L0.0155352 430.446L0.0660213 427.899L0.151454 425.341L0.27183 422.772L0.427145 420.191L0.617395 417.599L0.842575 414.995L1.10268 412.379L1.39771 409.752L1.72766 407.112L2.09252 404.46L2.4923 401.796L2.92698 399.12L3.39656 396.431L3.90104 393.73L4.44042 391.016L5.01469 388.289L5.62384 385.549L6.26788 382.797L6.94679 380.031L7.66058 377.253L8.40924 374.461L9.19276 371.655L10.0111 368.837L10.8644 366.004L11.7525 363.158L12.6754 360.298L13.6332 357.425L14.2293 354.899L14.8426 352.372L15.473 349.847L16.1202 347.321L16.7841 344.795L17.4646 342.27L18.1616 339.746L18.8748 337.221L19.6041 334.698L20.3493 332.175L21.1104 329.652L21.887 327.131L22.6792 324.61L23.4866 322.09L24.3093 319.571L25.1469 317.053L25.9994 314.536L26.8666 312.021L27.7483 309.506L28.6445 306.993L29.5548 304.481L30.4792 301.971L31.4175 299.462L32.3696 296.955L33.3353 294.45L34.3144 291.946L35.3069 289.444L36.3124 286.944L37.3309 284.445L38.3623 281.949L39.4063 279.455L40.4628 276.963L41.5317 274.473L42.6127 271.985L43.7058 269.5L44.8108 267.017L45.9275 264.536L47.0558 262.058L48.1955 259.583L49.3464 257.111L50.5085 254.641L51.6815 252.174L52.8652 249.709L54.0596 247.248L55.2645 244.79L56.4797 242.335L57.7051 239.883L58.9404 237.434L60.1856 234.989L61.4405 232.546L62.705 230.108L63.9788 227.673L65.2618 225.241L66.5539 222.813L67.855 220.389L69.1647 217.968L70.4831 215.552L71.8099 213.139L73.145 210.73L74.4882 208.326L75.8394 205.925L77.1984 203.529L78.5651 201.136L79.9393 198.749L81.3208 196.365L82.7095 193.986L84.1053 191.612L85.5079 189.242L86.9172 186.877L88.3331 184.516L89.7555 182.161L91.184 179.81L92.6187 177.464L94.0593 175.123L95.5057 172.787L96.9577 170.457L98.4152 168.131L99.878 165.811L101.346 163.497L102.819 161.187L104.297 158.884L105.779 156.585L107.266 154.293L108.758 152.006L110.253 149.724L111.753 147.449L113.257 145.18L114.764 142.916L116.275 140.659L117.789 138.407L119.307 136.162L120.828 133.923L122.351 131.691L123.878 129.465L125.407 127.245L126.939 125.032L128.473 122.825L130.009 120.625L131.547 118.432L133.088 116.245L134.572 114.283L136.086 112.334L137.629 110.397L139.201 108.473L140.802 106.562L142.431 104.664L144.089 102.779L145.774 100.907L147.487 99.0478L149.228 97.2024L150.996 95.3704L152.791 93.5521L154.612 91.7475L156.461 89.9568L158.335 88.1799L160.236 86.4172L162.163 84.6686L164.115 82.9343L166.093 81.2145L168.095 79.5091L170.123 77.8184L172.175 76.1424L174.252 74.4813L176.353 72.8351L178.478 71.2041L180.627 69.5882L182.8 67.9877L184.995 66.4026L187.214 64.833L189.455 63.2791L191.719 61.741L194.006 60.2188L196.314 58.7125L198.645 57.2224L200.997 55.7485L203.37 54.2909L205.765 52.8498L208.18 51.4253L210.616 50.0174L213.073 48.6264L215.55 47.2522L218.047 45.8951L220.564 44.5551L223.1 43.2324L225.656 41.927L228.23 40.6391L230.824 39.3688L233.436 38.1162L236.066 36.8814L238.715 35.6646L241.381 34.4658L244.065 33.2852L246.766 32.1228L249.485 30.9789L252.221 29.8534L254.973 28.7466L257.742 27.6585L260.527 26.5892L263.328 25.5389L266.145 24.5077L268.977 23.4957L271.825 22.5029L274.687 21.5296L277.565 20.5758L280.457 19.6417L283.364 18.7273L286.284 17.8327L289.219 16.9582L292.167 16.1038L295.129 15.2695L298.104 14.4556L301.092 13.6622L304.092 12.8893L307.105 12.137L310.131 11.4056L313.168 10.695L316.217 10.0054L319.278 9.33699L322.35 8.68979L325.433 8.06394L328.527 7.45955L331.631 6.87675L334.746 6.31563L337.871 5.77632L341.006 5.25893L344.151 4.76358L347.305 4.29037L350.468 3.83942L353.641 3.41085L356.822 3.00477L360.011 2.62128L363.209 2.26052L366.415 1.92259L369.628 1.6076L372.85 1.31567L376.078 1.04691L379.314 0.801434L382.556 0.579361L385.806 0.380801L389.061 0.205868L392.602 0.101024L396.107 0.0324065L399.574 0L403.004 0.00378714L406.397 0.0437509L409.753 0.119874L413.072 0.23214L416.353 0.380532L419.598 0.565032L422.805 0.785625L425.975 1.04229L429.108 1.33502L432.204 1.66378L435.262 2.02857L438.284 2.42937L441.268 2.86615L444.215 3.33891L447.125 3.84762L449.997 4.39228L452.833 4.97285L455.631 5.58933L458.392 6.2417L461.116 6.92994L463.802 7.65403L466.452 8.41396L469.064 9.20971L471.639 10.0413L474.176 10.9086L476.676 11.8117L479.139 12.7506L481.565 13.7252L483.953 14.7355L486.305 15.7815L488.618 16.8632L490.895 17.9805L493.134 19.1336L495.336 20.3222L497.501 21.5465L499.628 22.8063L501.718 24.1018L503.771 25.4328L505.786 26.7993L507.764 28.2014L509.704 29.639L511.608 31.1121L513.473 32.6207L515.302 34.1647L517.093 35.7442L518.847 37.3592L520.563 39.0095L522.242 40.6952L523.883 42.4163L525.488 44.1728L527.054 45.9646L528.584 47.7917L530.075 49.6542L531.53 51.5519L532.947 53.4849L534.326 55.4532L535.668 57.4567L536.973 59.4955L538.24 61.5694L539.47 63.6786L540.662 65.8229L541.817 68.0024L542.934 70.217L544.014 72.4667L545.056 74.7516L546.061 77.0715L547.028 79.4265L547.958 81.8166L548.85 84.2417L549.705 86.7018L550.522 89.1969L551.301 91.7271L552.043 94.2921L552.748 96.8922L553.415 99.5272L554.044 102.197L554.636 104.902L555.19 107.642L555.707 110.416L556.186 113.225L556.627 116.07L557.031 118.949L557.397 121.863L557.726 124.811L558.017 127.795L558.27 130.813L558.486 133.866L558.664 136.953L558.805 140.076L558.907 143.233L558.973 146.424L559 149.651L558.99 152.912L558.942 156.207L558.856 159.537L558.733 162.902L558.572 166.301L558.368 169.918L558.164 173.527L557.961 177.128L557.76 180.72L557.559 184.305L557.36 187.881L557.162 191.45L556.965 195.011L556.769 198.564L556.574 202.109L556.381 205.647L556.189 209.177L555.998 212.699L555.809 216.215L555.621 219.723L555.434 223.223L555.248 226.717L555.065 230.203L554.882 233.682L554.701 237.154L554.522 240.62L554.344 244.078L554.167 247.53L553.992 250.975L553.819 254.413L553.648 257.845L553.478 261.27L553.309 264.689L553.143 268.102L552.978 271.508L552.815 274.908L552.653 278.302L552.494 281.69L552.336 285.071L552.18 288.447L552.026 291.817L551.874 295.181L551.724 298.54L551.575 301.892L551.429 305.24L551.285 308.581L551.142 311.917L551.002 315.248L550.864 318.574L550.728 321.894L550.594 325.209L550.462 328.519L550.332 331.824L550.205 335.124L550.08 338.419L549.957 341.71L549.836 344.995L549.718 348.276L549.602 351.552L549.488 354.824L549.376 358.091L549.267 361.354L549.161 364.613L549.057 367.867L548.955 371.117L548.856 374.363L548.759 377.605L548.665 380.843L548.573 384.077L548.484 387.307L548.398 390.534L548.314 393.757L548.263 395.787L546.46 395.887L544.574 396.023L542.68 396.191L540.779 396.391L538.87 396.622L536.954 396.886L535.031 397.181L533.1 397.509L531.161 397.868L529.216 398.26L527.263 398.685L525.302 399.141L523.334 399.631L521.358 400.152L519.376 400.707L517.385 401.293L515.388 401.913L513.382 402.566L511.37 403.251L509.35 403.97L507.323 404.721L505.288 405.505L503.268 406.253L501.242 407.01L499.21 407.778L497.174 408.556L495.133 409.344L493.086 410.142L491.035 410.95L488.979 411.768L486.919 412.596L484.854 413.434L482.784 414.282L480.71 415.139L478.632 416.006L476.55 416.883L474.464 417.769L472.374 418.665L470.28 419.57L468.183 420.484L466.082 421.408L463.978 422.341L461.87 423.283L459.759 424.234L457.645 425.194L455.528 426.164L453.408 427.142L451.286 428.129L449.16 429.125L447.032 430.13L444.902 431.143L442.769 432.165L440.634 433.196L438.497 434.235L436.358 435.283L434.217 436.339L432.074 437.404L429.93 438.476L427.784 439.557L425.636 440.647L423.487 441.744L421.337 442.849L419.186 443.963L417.033 445.084L414.88 446.213L412.726 447.35L410.571 448.495L408.416 449.647L406.26 450.807L404.103 451.975L401.947 453.15L399.79 454.333L397.633 455.523L395.476 456.72L393.32 457.925L391.163 459.137L389.007 460.356L386.852 461.582L384.697 462.816L382.543 464.056L380.389 465.303L378.237 466.557L376.085 467.818L373.935 469.086L371.786 470.36L369.638 471.641L367.492 472.928L365.347 474.223L363.204 475.523L361.063 476.83L358.923 478.143L356.786 479.463L354.651 480.788L352.518 482.12L350.387 483.458L348.259 484.802L346.133 486.152L344.01 487.508L341.89 488.87L339.773 490.238L337.658 491.611L335.547 492.99L333.439 494.375L331.334 495.765L329.233 497.161L327.135 498.562L325.041 499.969L322.95 501.381L320.864 502.798L318.781 504.221L316.702 505.648L314.628 507.081L312.558 508.519L310.492 509.961L308.431 511.409L306.374 512.861L304.323 514.319L302.276 515.781L300.234 517.247L298.197 518.719L296.165 520.195L294.138 521.675L292.008 523.26L289.917 524.846L287.866 526.433L285.853 528.022L283.88 529.612L281.945 531.204L280.05 532.798L278.194 534.394L276.377 535.991L274.599 537.591L272.86 539.194L271.16 540.798L269.499 542.406L267.877 544.016L266.294 545.629L264.749 547.245L263.244 548.864L261.777 550.486L260.349 552.112L258.96 553.742L257.61 555.375L256.298 557.012L255.025 558.653L253.791 560.298L252.595 561.947L251.438 563.601L250.32 565.259L249.24 566.922L248.199 568.59L247.197 570.262L246.232 571.94L245.307 573.623L244.42 575.311L243.571 577.005L242.761 578.704L241.989 580.409L241.256 582.12L240.561 583.837L239.904 585.56L239.285 587.289L238.705 589.025L238.163 590.767L237.66 592.516L237.194 594.272L236.767 596.035L236.378 597.805L236.027 599.582L235.714 601.367L235.439 603.159L235.202 604.958L235.004 606.766L234.843 608.581L234.72 610.405L234.636 612.236L234.589 614.076L234.58 615.925L234.609 617.782L234.676 619.648L234.781 621.522L234.924 623.406L235.104 625.299L235.322 627.201L235.578 629.112L235.872 631.034L236.203 632.964L236.572 634.905L236.979 636.855L237.424 638.816L237.906 640.787L238.425 642.768L238.982 644.76L239.577 646.762L240.209 648.776L240.879 650.8L241.586 652.835L242.331 654.881L243.113 656.939L243.933 659.008L244.789 661.089L245.684 663.181L246.615 665.285L247.584 667.402L248.59 669.53L249.306 671L247.756 670.643L244.914 669.964L242.082 669.261L239.259 668.534L236.445 667.784L233.64 667.01L230.844 666.214L228.056 665.394L225.276 664.55L222.505 663.684L219.742 662.795L216.987 661.883L214.24 660.949L211.5 659.991L208.768 659.011L206.043 658.009L203.325 656.984L200.614 655.937L197.911 654.867L195.213 653.775L192.523 652.662L189.838 651.526L187.16 650.368L184.488 649.189L181.822 647.987L179.162 646.764L176.507 645.52L173.857 644.254L171.213 642.967L168.574 641.658L165.94 640.328L163.311 638.977L160.686 637.605L158.066 636.212L155.45 634.798L152.838 633.364L150.23 631.908L147.626 630.432L145.026 628.936L142.43 627.419L139.836 625.881L137.246 624.324L134.659 622.746L132.075 621.148L129.494 619.53L126.915 617.892L124.338 616.234L121.764 614.557L119.192 612.859L116.622 611.143L114.054 609.406L111.487 607.651L108.922 605.876L106.358 604.081L103.796 602.268L101.234 600.435L98.6731 598.584L96.1129 596.713L93.5533 594.824L90.9941 592.916L88.4826 590.911L86.0063 588.903L83.5652 586.891L81.1594 584.875L78.7888 582.855L76.4534 580.831L74.1533 578.802L71.8884 576.77L69.6586 574.733L67.4641 572.691L65.3048 570.645L63.1807 568.594L61.0918 566.539L59.0381 564.478L57.0196 562.413L55.0363 560.342L53.0881 558.266L51.1751 556.185L49.2973 554.098L47.4547 552.006L45.6472 549.908L43.8749 547.804L42.1377 545.695L40.4357 543.579L38.7689 541.458L37.1372 539.33L35.5406 537.196L33.9791 535.056L32.4528 532.909L30.9617 530.756L29.5056 528.595L28.0847 526.428L26.6989 524.255L25.3482 522.074L24.0326 519.886L22.7521 517.691L21.5067 515.488L20.2964 513.278L19.1212 511.061L17.9811 508.836L16.8761 506.603L15.8062 504.362L14.7713 502.114L13.7715 499.857L12.8068 497.592L11.8771 495.319L10.9825 493.038L10.1229 490.748L9.29844 488.45L8.50899 486.143L7.75458 483.827L7.03521 481.502L6.35088 479.168L5.70158 476.825L5.08731 474.473L4.50806 472.112L3.96383 469.741L3.45462 467.361L2.98042 464.971L2.54122 462.572L2.13703 460.162L1.76784 457.743L1.43364 455.314L1.13444 452.874L0.87022 450.424L0.640985 447.964L0.44673 445.494L0.28745 443.013L0.163141 440.521L0.0737987 438.019L0.0194198 435.505L0 432.981Z" fill="#001D3D"/>
          </svg>