<svg xmlns="http://www.w3.org/2000/svg" style="position: relative; margin-left: 7.5rem" width="847" height="912" viewBox="0 0 847 912" fill="none">
              <path fill-rule="evenodd" clip-rule="evenodd" d="M0 150.889L0.0242989 147.26L0.115622 143.645L0.275148 140.045L0.504056 136.46L0.803524 132.892L1.17473 129.342L1.61885 125.81L2.13708 122.297L2.73057 118.805L3.40052 115.334L4.1481 111.884L4.97449 108.458L5.88088 105.055L6.86843 101.677L7.93832 98.324L9.09175 94.9978L10.3299 91.6989L11.6539 88.4283L13.065 85.1868L14.5643 81.9752L16.153 78.7946L17.8323 75.6458L19.6034 72.5297L21.4675 69.4471L23.4257 66.3991L25.4792 63.3864L27.6292 60.4099L29.8769 57.4707L32.2234 54.5694L34.6699 51.7071L37.2177 48.8847L39.8678 46.103L42.6215 43.3629L45.4799 40.6653L48.4443 38.0112L51.5158 35.4013L54.6955 32.8367L57.9847 30.3181L61.3845 27.8465L64.8962 25.4228L67.1196 23.9537L69.3555 22.528L71.6042 21.1458L73.8657 19.807L76.1401 18.5118L78.4275 17.2601L80.7281 16.0519L83.042 14.8874L85.3692 13.7665L87.7099 12.6892L90.0643 11.6556L92.4323 10.6657L94.8142 9.71952L97.2101 8.81711L99.62 7.95848L102.044 7.14366L104.482 6.37268L106.935 5.64557L109.403 4.96236L111.885 4.32306L114.381 3.72772L116.893 3.17635L119.42 2.66898L121.961 2.20564L124.518 1.78636L127.09 1.41117L129.678 1.08009L132.281 0.793154L134.9 0.550382L137.535 0.351806L140.186 0.197452L142.852 0.0873486L145.535 0.021522L148.234 0L150.949 0.02281L153.681 0.0899794L156.429 0.201535L159.195 0.357506L161.977 0.557917L164.775 0.802798L167.591 1.09218L170.424 1.42608L173.275 1.80453L176.143 2.22756L179.028 2.69519L181.931 3.20746L184.851 3.76439L187.79 4.36601L190.746 5.01234L193.721 5.70342L196.713 6.43926L199.725 7.2199L202.754 8.04537L205.802 8.91569L208.869 9.83089L211.954 10.791L215.058 11.796L218.182 12.846L221.324 13.941L224.486 15.081L227.667 16.2661L230.867 17.4962L234.087 18.7714L237.327 20.0918L240.586 21.4573L243.865 22.868L247.165 24.3239L250.484 25.825L253.824 27.3714L257.184 28.963L260.565 30.6L263.966 32.2824L267.388 34.0101L270.831 35.7832L274.295 37.6017L277.78 39.4657L281.286 41.3752L284.813 43.3302L288.362 45.3307L291.932 47.3768L295.524 49.4685L299.137 51.6058L302.773 53.7887L306.43 56.0173L310.11 58.2917L313.812 60.6117L317.536 62.9775L321.282 65.3891L325.051 67.8465L328.843 70.3497L332.657 72.8988L336.495 75.4938L340.355 78.1347L344.239 80.8216L348.145 83.5544L352.076 86.3332L356.029 89.1581L360.006 92.029L364.007 94.946L368.032 97.9091L370.821 99.9682L373.581 101.996L376.31 103.992L379.01 105.958L381.681 107.894L384.324 109.799L386.941 111.674L389.531 113.519L392.095 115.336L394.634 117.123L397.15 118.881L399.641 120.611L402.11 122.312L404.557 123.986L406.982 125.632L409.386 127.25L411.771 128.842L414.136 130.406L416.483 131.944L418.812 133.456L421.124 134.942L423.42 136.402L425.7 137.837L427.964 139.247L430.215 140.632L432.452 141.993L434.676 143.329L436.888 144.641L439.089 145.93L441.279 147.195L443.459 148.437L445.63 149.656L447.792 150.853L449.947 152.027L452.094 153.18L454.235 154.311L456.371 155.42L458.501 156.508L460.627 157.576L462.749 158.623L464.869 159.649L466.987 160.656L469.103 161.643L471.218 162.611L473.334 163.559L475.45 164.489L477.568 165.4L479.687 166.293L481.81 167.168L483.936 168.025L486.067 168.865L488.203 169.687L490.344 170.493L492.492 171.282L494.647 172.055L496.81 172.812L498.981 173.553L501.162 174.279L503.353 174.99L505.555 175.686L507.768 176.367L509.993 177.034L512.231 177.687L514.482 178.326L516.748 178.952L519.029 179.564L521.326 180.164L523.639 180.752L525.969 181.327L528.317 181.889L530.684 182.441L533.07 182.98L535.476 183.509L537.903 184.027L540.351 184.534L542.822 185.031L545.315 185.518L547.832 185.995L550.373 186.463L552.939 186.921L555.531 187.371L558.15 187.812L560.795 188.245L563.468 188.67L566.17 189.087L568.902 189.496L571.663 189.899L574.455 190.294L577.278 190.683L580.134 191.066L583.022 191.442L585.944 191.813L588.901 192.178L591.892 192.539L594.919 192.894L597.983 193.245L601.083 193.591L604.222 193.933L607.399 194.272L610.615 194.607L617.583 195.355L624.453 196.155L631.226 197.006L637.901 197.909L644.477 198.864L650.955 199.87L657.334 200.928L663.614 202.037L669.794 203.198L675.874 204.41L681.854 205.674L687.734 206.989L693.513 208.356L699.19 209.774L704.766 211.243L710.24 212.763L715.612 214.335L720.882 215.958L726.049 217.633L731.112 219.358L736.072 221.135L740.929 222.963L745.681 224.842L750.329 226.772L754.872 228.753L759.31 230.785L763.643 232.868L767.87 235.002L771.991 237.187L776.006 239.423L779.913 241.71L783.714 244.047L787.408 246.436L790.994 248.875L794.472 251.365L797.842 253.906L801.103 256.497L804.255 259.139L807.298 261.832L810.231 264.576L813.054 267.37L815.767 270.214L818.37 273.109L820.862 276.055L823.242 279.051L825.511 282.097L827.668 285.194L829.713 288.342L831.645 291.54L833.465 294.788L835.171 298.086L836.764 301.435L838.243 304.834L839.609 308.283L840.859 311.782L841.995 315.331L843.016 318.931L843.921 322.581L844.711 326.281L845.384 330.03L845.942 333.83L846.382 337.68L846.705 341.58L846.912 345.53L847 349.53L846.97 353.579L846.822 357.679L846.556 361.828L846.17 366.027L845.666 370.276L845.041 374.574L844.297 378.923L843.432 383.321L842.447 387.768L841.341 392.265L840.114 396.812L838.765 401.409L837.294 406.054L835.701 410.75L833.986 415.495L832.147 420.289L830.186 425.133L828.101 430.026L825.892 434.969L823.559 439.961L821.102 445.002L818.519 450.092L815.812 455.232L812.979 460.421L810.021 465.659L806.936 470.946L803.725 476.283L800.387 481.668L796.923 487.103L793.331 492.587L789.611 498.12L785.763 503.701L781.787 509.332L777.682 515.012L773.448 520.74L770.962 524.103L768.493 527.512L766.041 530.966L763.606 534.463L761.186 538.002L758.781 541.583L756.39 545.203L754.013 548.862L751.65 552.558L749.298 556.291L746.959 560.059L744.63 563.86L742.313 567.694L740.005 571.559L737.706 575.455L735.416 579.379L733.134 583.331L730.86 587.31L728.592 591.314L726.331 595.342L724.074 599.393L721.823 603.465L719.576 607.558L717.333 611.67L715.092 615.8L712.854 619.947L710.617 624.11L708.382 628.286L706.147 632.476L703.912 636.678L701.676 640.891L699.438 645.113L697.199 649.344L694.956 653.581L692.711 657.824L690.461 662.072L688.206 666.324L685.947 670.578L683.681 674.832L681.409 679.087L679.13 683.34L676.843 687.59L674.547 691.837L672.243 696.078L669.928 700.313L667.604 704.541L665.268 708.76L662.921 712.969L660.562 717.167L658.189 721.353L655.803 725.525L653.404 729.682L650.989 733.823L648.559 737.947L646.113 742.053L643.65 746.139L641.17 750.204L638.672 754.247L636.155 758.267L633.619 762.262L631.064 766.232L628.488 770.174L625.89 774.089L623.271 777.974L620.63 781.829L617.966 785.652L615.278 789.442L612.566 793.197L609.829 796.918L607.066 800.601L604.277 804.247L601.462 807.854L598.619 811.42L595.748 814.945L592.848 818.428L589.919 821.866L586.96 825.259L583.971 828.606L580.95 831.905L577.897 835.156L574.812 838.357L571.694 841.506L568.542 844.603L565.355 847.646L562.134 850.635L558.876 853.567L555.583 856.442L552.253 859.259L548.885 862.016L545.479 864.712L542.034 867.346L538.55 869.917L535.025 872.423L531.46 874.863L527.853 877.237L524.205 879.542L520.514 881.777L516.779 883.942L513.001 886.036L509.178 888.056L505.975 889.677L502.759 891.239L499.531 892.742L496.293 894.188L493.044 895.576L489.786 896.906L486.518 898.178L483.242 899.393L479.958 900.551L476.666 901.651L473.368 902.695L470.063 903.683L466.752 904.614L463.436 905.489L460.116 906.307L456.792 907.07L453.464 907.778L450.133 908.429L446.801 909.026L443.466 909.568L440.131 910.055L436.795 910.487L433.459 910.864L430.124 911.188L426.789 911.457L423.457 911.673L420.127 911.835L416.801 911.943L413.477 911.998L410.158 912L406.844 911.949L403.535 911.846L400.231 911.689L396.934 911.481L393.645 911.22L390.362 910.908L387.088 910.544L383.823 910.128L380.567 909.661L377.321 909.143L374.086 908.574L370.862 907.954L367.649 907.283L364.449 906.562L361.261 905.791L358.087 904.97L354.927 904.1L351.781 903.179L348.651 902.209L345.536 901.19L342.437 900.123L339.356 899.006L336.292 897.84L335.946 897.703L337.64 896.083L340.14 893.619L342.603 891.116L345.027 888.577L347.412 886L349.758 883.387L352.064 880.738L354.33 878.053L356.556 875.334L358.74 872.579L360.882 869.791L362.983 866.969L365.04 864.114L367.055 861.226L369.027 858.305L370.954 855.353L372.837 852.37L374.675 849.356L376.467 846.311L378.214 843.237L379.914 840.133L381.568 837L383.174 833.839L384.733 830.65L386.243 827.433L387.705 824.189L389.117 820.919L390.48 817.622L391.793 814.3L393.055 810.952L394.266 807.58L395.425 804.184L396.533 800.764L397.588 797.32L398.591 793.854L399.539 790.366L400.434 786.855L401.275 783.323L402.061 779.77L402.792 776.197L403.466 772.604L404.085 768.991L404.647 765.359L405.152 761.708L405.599 758.04L405.988 754.354L406.319 750.65L406.59 746.93L406.802 743.194L406.954 739.441L407.046 735.674L407.076 731.892L407.046 728.109L406.954 724.342L406.802 720.59L406.59 716.854L406.319 713.133L405.988 709.43L405.599 705.744L405.152 702.075L404.647 698.425L404.085 694.793L403.466 691.18L402.792 687.587L402.061 684.013L401.275 680.46L400.434 676.929L399.539 673.418L398.591 669.929L397.588 666.463L396.533 663.02L395.425 659.6L394.266 656.203L393.055 652.831L391.793 649.484L390.48 646.162L389.117 642.865L387.705 639.595L386.243 636.351L384.733 633.134L383.174 629.945L381.568 626.783L379.914 623.651L378.214 620.547L376.467 617.472L374.675 614.428L372.837 611.414L370.954 608.43L369.027 605.478L367.055 602.558L365.04 599.67L362.983 596.815L360.882 593.993L358.74 591.204L356.556 588.45L354.33 585.73L352.064 583.046L349.758 580.397L347.412 577.783L345.027 575.207L342.603 572.667L340.14 570.165L337.64 567.701L335.103 565.275L332.528 562.888L329.917 560.54L327.27 558.232L324.587 555.964L321.87 553.737L319.118 551.551L316.332 549.407L313.512 547.304L310.659 545.245L307.773 543.229L304.855 541.256L301.905 539.327L298.924 537.443L295.913 535.603L292.871 533.809L289.799 532.061L286.697 530.359L283.567 528.704L280.408 527.097L277.222 525.537L274.007 524.026L270.766 522.563L267.498 521.149L264.204 519.785L260.885 518.471L257.54 517.208L254.171 515.996L250.777 514.836L247.359 513.727L243.919 512.671L240.455 511.668L236.969 510.718L233.462 509.823L229.933 508.981L226.383 508.195L222.812 507.464L219.222 506.788L215.612 506.169L211.983 505.607L208.335 505.101L204.669 504.654L200.986 504.265L197.286 503.934L193.568 503.662L189.835 503.45L186.086 503.298L182.321 503.206L178.542 503.176L174.763 503.206L170.999 503.298L167.249 503.45L163.516 503.662L159.799 503.934L156.098 504.265L152.415 504.654L148.749 505.101L145.102 505.607L141.473 506.169L141.341 506.192L140.211 502.284L138.937 497.975L137.635 493.667L136.303 489.359L134.94 485.051L133.544 480.744L132.116 476.437L130.653 472.13L129.154 467.824L127.619 463.518L126.045 459.213L124.432 454.908L122.779 450.604L121.084 446.3L119.346 441.997L117.564 437.693L115.737 433.391L113.864 429.089L111.943 424.787L109.974 420.485L107.954 416.185L105.884 411.884L103.761 407.584L101.585 403.284L99.3536 398.985L97.0668 394.687L94.7229 390.388L92.3207 386.091L89.8592 381.793L87.3371 377.497L84.7532 373.2L82.1063 368.904L79.3952 364.609L76.6188 360.314L74.7787 357.485L72.9348 354.616L71.0884 351.708L69.2407 348.762L67.3928 345.779L65.5459 342.761L63.7012 339.707L61.8599 336.618L60.0232 333.496L58.1922 330.342L56.3681 327.156L54.5521 323.939L52.7453 320.693L50.949 317.417L49.1644 314.114L47.3925 310.783L45.6346 307.426L43.8919 304.043L42.1655 300.637L40.4567 297.206L38.7665 293.753L37.0963 290.278L35.447 286.782L33.82 283.266L32.2165 279.731L30.6375 276.177L29.0843 272.606L27.558 269.019L26.0599 265.417L24.5911 261.799L23.1527 258.168L21.746 254.524L20.3722 250.868L19.0324 247.201L17.7278 243.523L16.4595 239.837L15.2289 236.142L14.0369 232.439L12.8849 228.73L11.7739 225.015L10.7053 221.295L9.68007 217.571L8.69948 213.845L7.76471 210.116L6.87692 206.386L6.0373 202.655L5.24702 198.925L4.50726 195.196L3.81921 191.47L3.18403 187.747L2.60292 184.028L2.07704 180.314L1.60758 176.606L1.19571 172.904L0.842615 169.211L0.549473 165.526L0.317462 161.85L0.14776 158.185L0.0415466 154.531L0 150.889Z" fill="#D7E3FC"/>
            </svg>