<svg xmlns="http://www.w3.org/2000/svg" width="338" height="298" viewBox="0 0 338 298" fill="none">
  <path d="M307.771 213.676C277.067 261.644 228.843 282.679 170.128 295.351C111.702 306.69 66.7671 281.068 26.7733 229.098C-13.3581 171.785 -8.80173 132.165 43.3361 93.7341C92.4231 57.7732 148.033 27.2013 196.971 9.20329C246.41 -10.227 286.883 10.5771 318.052 62.8918C342.731 121.14 343.666 169.487 307.771 213.676Z" fill="#D7E3FC"/>
  <path d="M307.771 213.676C270.839 259.446 225.017 283.44 170.128 295.351L307.771 213.676ZM307.771 213.676C272.648 256.272 229.385 285.595 170.128 295.351L307.771 213.676ZM170.128 295.351C113.812 303.421 67.4266 281.572 26.7733 229.098L170.128 295.351ZM170.128 295.351C114.899 303.838 66.5783 282.617 26.7733 229.098L170.128 295.351ZM26.7733 229.098C-13.0663 172.676 -6.47299 128.248 43.3361 93.7341L26.7733 229.098ZM26.7733 229.098C-13.7947 176.035 -4.1911 130.532 43.3361 93.7341L26.7733 229.098ZM43.3361 93.7341C91.1919 59.5033 144.624 30.8946 196.971 9.20329L43.3361 93.7341ZM43.3361 93.7341C90.6047 57.8162 146.137 29.6407 196.971 9.20329L43.3361 93.7341ZM196.971 9.20329C251.389 -11.7248 290.594 4.46102 318.052 62.8918L196.971 9.20329ZM196.971 9.20329C249.835 -13.9665 288.733 7.58574 318.052 62.8918L196.971 9.20329ZM318.052 62.8918C345.06 117.585 340.292 170.701 307.771 213.676L318.052 62.8918ZM318.052 62.8918C347.337 118.224 344.765 170.201 307.771 213.676L318.052 62.8918Z" fill="none"/>
</svg>