<svg width="68" height="20" viewBox="0 0 68 20" fill="none" xmlns="http://www.w3.org/2000/svg">
<rect width="68" height="20" rx="8" fill="#FFCFE1"/>
<path d="M18 7.85714C18 5.72768 16.2083 4 14 4C11.7917 4 10 5.72768 10 7.85714C10 9.69196 11.3306 11.2295 13.1111 11.6179V13H12.1111C11.9278 13 11.7778 13.1446 11.7778 13.3214V14.3929C11.7778 14.5696 11.9278 14.7143 12.1111 14.7143H13.1111V15.6786C13.1111 15.8554 13.2611 16 13.4444 16H14.5556C14.7389 16 14.8889 15.8554 14.8889 15.6786V14.7143H15.8889C16.0722 14.7143 16.2222 14.5696 16.2222 14.3929V13.3214C16.2222 13.1446 16.0722 13 15.8889 13H14.8889V11.6179C16.6694 11.2295 18 9.69196 18 7.85714ZM11.7778 7.85714C11.7778 6.67589 12.775 5.71429 14 5.71429C15.225 5.71429 16.2222 6.67589 16.2222 7.85714C16.2222 9.03839 15.225 10 14 10C12.775 10 11.7778 9.03839 11.7778 7.85714Z" fill="#FF99C8"/>
<path d="M23.4282 14V6H28.3892V7.03906H24.6353V9.47656H28.0337V10.5117H24.6353V14H23.4282ZM31.9253 14.1211C31.3341 14.1211 30.825 13.9948 30.3979 13.7422C29.9735 13.487 29.6453 13.1289 29.4136 12.668C29.1844 12.2044 29.0698 11.6615 29.0698 11.0391C29.0698 10.4245 29.1844 9.88281 29.4136 9.41406C29.6453 8.94531 29.9683 8.57943 30.3823 8.31641C30.799 8.05339 31.286 7.92188 31.8433 7.92188C32.1818 7.92188 32.5099 7.97786 32.8276 8.08984C33.1453 8.20182 33.4305 8.3776 33.6831 8.61719C33.9357 8.85677 34.1349 9.16797 34.2808 9.55078C34.4266 9.93099 34.4995 10.3932 34.4995 10.9375V11.3516H29.73V10.4766H33.355C33.355 10.1693 33.2925 9.89714 33.1675 9.66016C33.0425 9.42057 32.8667 9.23177 32.6401 9.09375C32.4162 8.95573 32.1532 8.88672 31.8511 8.88672C31.5229 8.88672 31.2365 8.96745 30.9917 9.12891C30.7495 9.28776 30.562 9.49609 30.4292 9.75391C30.299 10.0091 30.2339 10.2865 30.2339 10.5859V11.2695C30.2339 11.6706 30.3042 12.0117 30.4448 12.293C30.5881 12.5742 30.7873 12.7891 31.0425 12.9375C31.2977 13.0833 31.5959 13.1562 31.937 13.1562C32.1584 13.1562 32.3602 13.125 32.5425 13.0625C32.7248 12.9974 32.8823 12.901 33.0151 12.7734C33.1479 12.6458 33.2495 12.4883 33.3198 12.3008L34.4253 12.5C34.3368 12.8255 34.1779 13.1107 33.9487 13.3555C33.7222 13.5977 33.437 13.7865 33.0933 13.9219C32.7521 14.0547 32.3628 14.1211 31.9253 14.1211ZM32.6011 7.28125L31.8003 6.23437L30.9956 7.28125H29.9409V7.22266L31.312 5.56641H32.2847L33.6597 7.22266V7.28125H32.6011ZM35.7954 14V8H36.9165V8.97656H36.9907C37.1157 8.64583 37.3201 8.38802 37.604 8.20313C37.8879 8.01563 38.2277 7.92188 38.6235 7.92188C39.0246 7.92188 39.3605 8.01563 39.6313 8.20313C39.9048 8.39062 40.1066 8.64844 40.2368 8.97656H40.2993C40.4425 8.65625 40.6704 8.40104 40.9829 8.21094C41.2954 8.01823 41.6678 7.92188 42.1001 7.92188C42.6444 7.92188 43.0884 8.09245 43.4321 8.43359C43.7785 8.77474 43.9517 9.28906 43.9517 9.97656V14H42.7837V10.0859C42.7837 9.67969 42.673 9.38542 42.4517 9.20312C42.2303 9.02083 41.966 8.92969 41.6587 8.92969C41.2785 8.92969 40.9829 9.04687 40.772 9.28125C40.561 9.51302 40.4556 9.8112 40.4556 10.1758V14H39.2915V10.0117C39.2915 9.6862 39.1899 9.42448 38.9868 9.22656C38.7837 9.02865 38.5194 8.92969 38.1938 8.92969C37.9725 8.92969 37.7681 8.98828 37.5806 9.10547C37.3957 9.22005 37.2459 9.38021 37.1313 9.58594C37.0194 9.79167 36.9634 10.0299 36.9634 10.3008V14H35.7954ZM48.103 14.1211C47.5119 14.1211 47.0028 13.9948 46.5757 13.7422C46.1512 13.487 45.8231 13.1289 45.5913 12.668C45.3621 12.2044 45.2476 11.6615 45.2476 11.0391C45.2476 10.4245 45.3621 9.88281 45.5913 9.41406C45.8231 8.94531 46.146 8.57943 46.5601 8.31641C46.9767 8.05339 47.4637 7.92188 48.021 7.92188C48.3595 7.92188 48.6877 7.97786 49.0054 8.08984C49.3231 8.20182 49.6082 8.3776 49.8608 8.61719C50.1134 8.85677 50.3127 9.16797 50.4585 9.55078C50.6043 9.93099 50.6772 10.3932 50.6772 10.9375V11.3516H45.9077V10.4766H49.5327C49.5327 10.1693 49.4702 9.89714 49.3452 9.66016C49.2202 9.42057 49.0444 9.23177 48.8179 9.09375C48.5939 8.95573 48.3309 8.88672 48.0288 8.88672C47.7007 8.88672 47.4142 8.96745 47.1694 9.12891C46.9272 9.28776 46.7397 9.49609 46.6069 9.75391C46.4767 10.0091 46.4116 10.2865 46.4116 10.5859V11.2695C46.4116 11.6706 46.4819 12.0117 46.6226 12.293C46.7658 12.5742 46.965 12.7891 47.2202 12.9375C47.4754 13.0833 47.7736 13.1562 48.1147 13.1562C48.3361 13.1562 48.5379 13.125 48.7202 13.0625C48.9025 12.9974 49.0601 12.901 49.1929 12.7734C49.3257 12.6458 49.4272 12.4883 49.4976 12.3008L50.603 12.5C50.5145 12.8255 50.3556 13.1107 50.1265 13.3555C49.8999 13.5977 49.6147 13.7865 49.271 13.9219C48.9299 14.0547 48.5405 14.1211 48.103 14.1211ZM53.7192 14.1328C53.339 14.1328 52.9953 14.0625 52.688 13.9219C52.3807 13.7786 52.1372 13.5716 51.9575 13.3008C51.7804 13.0299 51.6919 12.6979 51.6919 12.3047C51.6919 11.9661 51.757 11.6875 51.8872 11.4687C52.0174 11.25 52.1932 11.0768 52.4146 10.9492C52.6359 10.8216 52.8833 10.7253 53.1567 10.6602C53.4302 10.5951 53.7088 10.5456 53.9927 10.5117C54.3521 10.4701 54.6437 10.4362 54.8677 10.4102C55.0916 10.3815 55.2544 10.3359 55.356 10.2734C55.4575 10.2109 55.5083 10.1094 55.5083 9.96875V9.94141C55.5083 9.60026 55.4119 9.33594 55.2192 9.14844C55.0291 8.96094 54.7453 8.86719 54.3677 8.86719C53.9744 8.86719 53.6646 8.95443 53.438 9.12891C53.214 9.30078 53.0591 9.49219 52.9731 9.70312L51.8755 9.45312C52.0057 9.08854 52.1958 8.79427 52.4458 8.57031C52.6984 8.34375 52.9888 8.17969 53.3169 8.07812C53.645 7.97396 53.9901 7.92188 54.3521 7.92188C54.5916 7.92188 54.8455 7.95052 55.1138 8.00781C55.3846 8.0625 55.6372 8.16406 55.8716 8.3125C56.1086 8.46094 56.3026 8.67318 56.4536 8.94922C56.6047 9.22266 56.6802 9.57813 56.6802 10.0156V14H55.5396V13.1797H55.4927C55.4172 13.3307 55.3039 13.4792 55.1528 13.625C55.0018 13.7708 54.8078 13.8919 54.5708 13.9883C54.3338 14.0846 54.05 14.1328 53.7192 14.1328ZM53.9731 13.1953C54.2961 13.1953 54.5721 13.1315 54.8013 13.0039C55.033 12.8763 55.2088 12.7096 55.3286 12.5039C55.451 12.2956 55.5122 12.0729 55.5122 11.8359V11.0625C55.4705 11.1042 55.3898 11.1432 55.27 11.1797C55.1528 11.2135 55.0187 11.2435 54.8677 11.2695C54.7166 11.293 54.5695 11.3151 54.4263 11.3359C54.283 11.3542 54.1632 11.3698 54.0669 11.3828C53.8403 11.4115 53.6333 11.4596 53.4458 11.5273C53.2609 11.5951 53.1125 11.6927 53.0005 11.8203C52.8911 11.9453 52.8364 12.112 52.8364 12.3203C52.8364 12.6094 52.9432 12.8281 53.1567 12.9766C53.3703 13.1224 53.6424 13.1953 53.9731 13.1953Z" fill="#FF99C8"/>
</svg>
