<svg width="68" height="20" viewBox="0 0 68 20" fill="none" xmlns="http://www.w3.org/2000/svg">
<rect width="68" height="20" rx="8" fill="#F7C59F"/>
<path d="M17.3783 8C16.8659 8 14.666 8.0495 13.25 10.1488V8C13.25 6.6765 12.1567 5.6 10.8125 5.6C10.3638 5.6 10 5.95825 10 6.4C10 6.84175 10.3638 7.2 10.8125 7.2C11.2604 7.2 11.625 7.559 11.625 8V14.4C11.625 15.2825 12.3537 16 13.25 16H17.7188C17.9432 16 18.125 15.821 18.125 15.6V15.2C18.125 14.7583 17.7612 14.4 17.3125 14.4H16.5L19.75 12V15.6C19.75 15.821 19.9318 16 20.1562 16H20.9688C21.1932 16 21.375 15.821 21.375 15.6V10.4465C21.1137 10.5132 20.8446 10.56 20.5625 10.56C18.9931 10.56 17.6802 9.45875 17.3783 8ZM21.375 5.6H19.75L18.125 4V7.36C18.125 8.6855 19.2163 9.76 20.5625 9.76C21.9087 9.76 23 8.6855 23 7.36V4L21.375 5.6ZM19.5469 7.6C19.3224 7.6 19.1406 7.421 19.1406 7.2C19.1406 6.979 19.3224 6.8 19.5469 6.8C19.7713 6.8 19.9531 6.979 19.9531 7.2C19.9531 7.421 19.7713 7.6 19.5469 7.6ZM21.5781 7.6C21.3537 7.6 21.1719 7.421 21.1719 7.2C21.1719 6.979 21.3537 6.8 21.5781 6.8C21.8026 6.8 21.9844 6.979 21.9844 7.2C21.9844 7.421 21.8026 7.6 21.5781 7.6Z" fill="#FF6B35"/>
<path d="M36.2139 8.52734C36.1383 8.29036 36.0368 8.07812 35.9092 7.89062C35.7842 7.70052 35.6344 7.53906 35.46 7.40625C35.2855 7.27083 35.0863 7.16797 34.8623 7.09766C34.641 7.02734 34.3975 6.99219 34.1318 6.99219C33.6813 6.99219 33.2751 7.10807 32.9131 7.33984C32.5511 7.57161 32.2646 7.91146 32.0537 8.35937C31.8454 8.80469 31.7412 9.35026 31.7412 9.99609C31.7412 10.6445 31.8467 11.1927 32.0576 11.6406C32.2686 12.0885 32.5576 12.4284 32.9248 12.6602C33.292 12.8919 33.71 13.0078 34.1787 13.0078C34.6136 13.0078 34.9925 12.9193 35.3154 12.7422C35.641 12.5651 35.8923 12.3151 36.0693 11.9922C36.249 11.6667 36.3389 11.2839 36.3389 10.8438L36.6514 10.9023H34.3623V9.90625H37.5068V10.8164C37.5068 11.4883 37.3636 12.0716 37.0771 12.5664C36.7933 13.0586 36.4001 13.4388 35.8975 13.707C35.3975 13.9753 34.8245 14.1094 34.1787 14.1094C33.4548 14.1094 32.8193 13.9427 32.2725 13.6094C31.7282 13.276 31.3037 12.8034 30.999 12.1914C30.6943 11.5768 30.542 10.8477 30.542 10.0039C30.542 9.36589 30.6305 8.79297 30.8076 8.28516C30.9847 7.77734 31.2334 7.34635 31.5537 6.99219C31.8766 6.63542 32.2555 6.36328 32.6904 6.17578C33.1279 5.98568 33.6058 5.89062 34.124 5.89062C34.5563 5.89062 34.9587 5.95443 35.3311 6.08203C35.7061 6.20964 36.0394 6.39062 36.3311 6.625C36.6253 6.85937 36.8688 7.13802 37.0615 7.46094C37.2542 7.78125 37.3844 8.13672 37.4521 8.52734H36.2139ZM40.6914 14.1328C40.3112 14.1328 39.9674 14.0625 39.6602 13.9219C39.3529 13.7786 39.1094 13.5716 38.9297 13.3008C38.7526 13.0299 38.6641 12.6979 38.6641 12.3047C38.6641 11.9661 38.7292 11.6875 38.8594 11.4687C38.9896 11.25 39.1654 11.0768 39.3867 10.9492C39.6081 10.8216 39.8555 10.7253 40.1289 10.6602C40.4023 10.5951 40.681 10.5456 40.9648 10.5117C41.3242 10.4701 41.6159 10.4362 41.8398 10.4102C42.0638 10.3815 42.2266 10.3359 42.3281 10.2734C42.4297 10.2109 42.4805 10.1094 42.4805 9.96875V9.94141C42.4805 9.60026 42.3841 9.33594 42.1914 9.14844C42.0013 8.96094 41.7174 8.86719 41.3398 8.86719C40.9466 8.86719 40.6367 8.95443 40.4102 9.12891C40.1862 9.30078 40.0313 9.49219 39.9453 9.70312L38.8477 9.45312C38.9779 9.08854 39.168 8.79427 39.418 8.57031C39.6706 8.34375 39.9609 8.17969 40.2891 8.07812C40.6172 7.97396 40.9622 7.92188 41.3242 7.92188C41.5638 7.92188 41.8177 7.95052 42.0859 8.00781C42.3568 8.0625 42.6094 8.16406 42.8438 8.3125C43.0807 8.46094 43.2747 8.67318 43.4258 8.94922C43.5768 9.22266 43.6523 9.57813 43.6523 10.0156V14H42.5117V13.1797H42.4648C42.3893 13.3307 42.276 13.4792 42.125 13.625C41.974 13.7708 41.7799 13.8919 41.543 13.9883C41.306 14.0846 41.0221 14.1328 40.6914 14.1328ZM40.9453 13.1953C41.2682 13.1953 41.5443 13.1315 41.7734 13.0039C42.0052 12.8763 42.181 12.7096 42.3008 12.5039C42.4232 12.2956 42.4844 12.0729 42.4844 11.8359V11.0625C42.4427 11.1042 42.362 11.1432 42.2422 11.1797C42.125 11.2135 41.9909 11.2435 41.8398 11.2695C41.6888 11.293 41.5417 11.3151 41.3984 11.3359C41.2552 11.3542 41.1354 11.3698 41.0391 11.3828C40.8125 11.4115 40.6055 11.4596 40.418 11.5273C40.2331 11.5951 40.0846 11.6927 39.9727 11.8203C39.8633 11.9453 39.8086 12.112 39.8086 12.3203C39.8086 12.6094 39.9154 12.8281 40.1289 12.9766C40.3424 13.1224 40.6146 13.1953 40.9453 13.1953ZM48.0088 8V8.9375H44.7314V8H48.0088ZM45.6104 6.5625H46.7783V12.2383C46.7783 12.4648 46.8122 12.6354 46.8799 12.75C46.9476 12.862 47.0348 12.9388 47.1416 12.9805C47.251 13.0195 47.3695 13.0391 47.4971 13.0391C47.5908 13.0391 47.6729 13.0326 47.7432 13.0195C47.8135 13.0065 47.8682 12.9961 47.9072 12.9883L48.1182 13.9531C48.0505 13.9792 47.9541 14.0052 47.8291 14.0313C47.7041 14.0599 47.5479 14.0755 47.3604 14.0781C47.0531 14.0833 46.7666 14.0286 46.501 13.9141C46.2354 13.7995 46.0205 13.6224 45.8564 13.3828C45.6924 13.1432 45.6104 12.8424 45.6104 12.4805V6.5625ZM51.7637 14.1211C51.2012 14.1211 50.7103 13.9922 50.291 13.7344C49.8717 13.4766 49.5462 13.1159 49.3145 12.6523C49.0827 12.1888 48.9668 11.6471 48.9668 11.0273C48.9668 10.4049 49.0827 9.86068 49.3145 9.39453C49.5462 8.92839 49.8717 8.56641 50.291 8.30859C50.7103 8.05078 51.2012 7.92188 51.7637 7.92188C52.3262 7.92188 52.8171 8.05078 53.2363 8.30859C53.6556 8.56641 53.9811 8.92839 54.2129 9.39453C54.4447 9.86068 54.5605 10.4049 54.5605 11.0273C54.5605 11.6471 54.4447 12.1888 54.2129 12.6523C53.9811 13.1159 53.6556 13.4766 53.2363 13.7344C52.8171 13.9922 52.3262 14.1211 51.7637 14.1211ZM51.7676 13.1406C52.1322 13.1406 52.4342 13.0443 52.6738 12.8516C52.9134 12.6589 53.0905 12.4023 53.2051 12.082C53.3223 11.7617 53.3809 11.4089 53.3809 11.0234C53.3809 10.6406 53.3223 10.2891 53.2051 9.96875C53.0905 9.64583 52.9134 9.38672 52.6738 9.19141C52.4342 8.99609 52.1322 8.89844 51.7676 8.89844C51.4004 8.89844 51.0957 8.99609 50.8535 9.19141C50.6139 9.38672 50.4355 9.64583 50.3184 9.96875C50.2038 10.2891 50.1465 10.6406 50.1465 11.0234C50.1465 11.4089 50.2038 11.7617 50.3184 12.082C50.4355 12.4023 50.6139 12.6589 50.8535 12.8516C51.0957 13.0443 51.4004 13.1406 51.7676 13.1406Z" fill="#FF6B35"/>
</svg>
