<svg width="84" height="20" viewBox="0 0 84 20" fill="none" xmlns="http://www.w3.org/2000/svg">
<rect width="84" height="20" rx="8" fill="#D0F4DE"/>
<path d="M19.2857 8.92857H16.0714V5.71429C16.0714 5.31987 15.7516 5 15.3571 5H14.6429C14.2484 5 13.9286 5.31987 13.9286 5.71429V8.92857H10.7143C10.3199 8.92857 10 9.24844 10 9.64286V10.3571C10 10.7516 10.3199 11.0714 10.7143 11.0714H13.9286V14.2857C13.9286 14.6801 14.2484 15 14.6429 15H15.3571C15.7516 15 16.0714 14.6801 16.0714 14.2857V11.0714H19.2857C19.6801 11.0714 20 10.7516 20 10.3571V9.64286C20 9.24844 19.6801 8.92857 19.2857 8.92857Z" fill="#469C67"/>
<path d="M26.9014 14V6H31.8623V7.03906H28.1084V9.47656H31.5068V10.5117H28.1084V14H26.9014ZM34.5537 6V14H33.3467V6H34.5537ZM37.0107 6L39.2373 12.5156H39.3271L41.5537 6H42.8584L39.9795 14H38.585L35.7061 6H37.0107ZM46.1826 5.625L43.6045 15.2031H42.5615L45.1396 5.625H46.1826ZM47.2686 14V6H52.2295V7.03906H48.4756V9.47656H51.874V10.5117H48.4756V14H47.2686ZM55.7656 14.1211C55.1745 14.1211 54.6654 13.9948 54.2383 13.7422C53.8138 13.487 53.4857 13.1289 53.2539 12.668C53.0247 12.2044 52.9102 11.6615 52.9102 11.0391C52.9102 10.4245 53.0247 9.88281 53.2539 9.41406C53.4857 8.94531 53.8086 8.57943 54.2227 8.31641C54.6393 8.05339 55.1263 7.92188 55.6836 7.92188C56.0221 7.92188 56.3503 7.97786 56.668 8.08984C56.9857 8.20182 57.2708 8.3776 57.5234 8.61719C57.776 8.85677 57.9753 9.16797 58.1211 9.55078C58.2669 9.93099 58.3398 10.3932 58.3398 10.9375V11.3516H53.5703V10.4766H57.1953C57.1953 10.1693 57.1328 9.89714 57.0078 9.66016C56.8828 9.42057 56.707 9.23177 56.4805 9.09375C56.2565 8.95573 55.9935 8.88672 55.6914 8.88672C55.3633 8.88672 55.0768 8.96745 54.832 9.12891C54.5898 9.28776 54.4023 9.49609 54.2695 9.75391C54.1393 10.0091 54.0742 10.2865 54.0742 10.5859V11.2695C54.0742 11.6706 54.1445 12.0117 54.2852 12.293C54.4284 12.5742 54.6276 12.7891 54.8828 12.9375C55.138 13.0833 55.4362 13.1562 55.7773 13.1562C55.9987 13.1562 56.2005 13.125 56.3828 13.0625C56.5651 12.9974 56.7227 12.901 56.8555 12.7734C56.9883 12.6458 57.0898 12.4883 57.1602 12.3008L58.2656 12.5C58.1771 12.8255 58.0182 13.1107 57.7891 13.3555C57.5625 13.5977 57.2773 13.7865 56.9336 13.9219C56.5924 14.0547 56.2031 14.1211 55.7656 14.1211ZM59.7295 14V6H60.9365V12.9609H64.5615V14H59.7295ZM65.8535 6L68.0801 12.5156H68.1699L70.3965 6H71.7012L68.8223 14H67.4277L64.5488 6H65.8535Z" fill="#469C67"/>
</svg>
