<svg width="68" height="20" viewBox="0 0 68 20" fill="none" xmlns="http://www.w3.org/2000/svg">
<rect width="68" height="20" rx="8" fill="#A2D2FF"/>
<path d="M21.625 4H19.1562C18.8219 4 18.6562 4.40312 18.8906 4.64062L19.4187 5.16875L16.8969 7.69063C16.2031 7.25313 15.3812 7 14.5 7C12.0156 7 10 9.01562 10 11.5C10 13.9844 12.0156 16 14.5 16C16.9844 16 19 13.9844 19 11.5C19 10.6188 18.7469 9.79688 18.3094 9.10313L20.8313 6.58125L21.3594 7.10938C21.5969 7.34687 22 7.17812 22 6.84375V4.375C22 4.16875 21.8313 4 21.625 4ZM14.5 14C13.1219 14 12 12.8781 12 11.5C12 10.1219 13.1219 9 14.5 9C15.8781 9 17 10.1219 17 11.5C17 12.8781 15.8781 14 14.5 14Z" fill="#004E89"/>
<g clip-path="url(#clip0_418_3268)">
<path d="M27.0684 6H28.5332L31.0801 12.2187H31.1738L33.7207 6H35.1855V14H34.0371V8.21094H33.9629L31.6035 13.9883H30.6504L28.291 8.20703H28.2168V14H27.0684V6ZM38.5928 14.1328C38.2126 14.1328 37.8688 14.0625 37.5615 13.9219C37.2542 13.7786 37.0107 13.5716 36.8311 13.3008C36.654 13.0299 36.5654 12.6979 36.5654 12.3047C36.5654 11.9661 36.6305 11.6875 36.7607 11.4687C36.891 11.25 37.0667 11.0768 37.2881 10.9492C37.5094 10.8216 37.7568 10.7253 38.0303 10.6602C38.3037 10.5951 38.5824 10.5456 38.8662 10.5117C39.2256 10.4701 39.5173 10.4362 39.7412 10.4102C39.9652 10.3815 40.1279 10.3359 40.2295 10.2734C40.3311 10.2109 40.3818 10.1094 40.3818 9.96875V9.94141C40.3818 9.60026 40.2855 9.33594 40.0928 9.14844C39.9027 8.96094 39.6188 8.86719 39.2412 8.86719C38.848 8.86719 38.5381 8.95443 38.3115 9.12891C38.0876 9.30078 37.9326 9.49219 37.8467 9.70312L36.749 9.45312C36.8792 9.08854 37.0693 8.79427 37.3193 8.57031C37.5719 8.34375 37.8623 8.17969 38.1904 8.07812C38.5186 7.97396 38.8636 7.92188 39.2256 7.92188C39.4652 7.92188 39.7191 7.95052 39.9873 8.00781C40.2581 8.0625 40.5107 8.16406 40.7451 8.3125C40.9821 8.46094 41.1761 8.67318 41.3271 8.94922C41.4782 9.22266 41.5537 9.57813 41.5537 10.0156V14H40.4131V13.1797H40.3662C40.2907 13.3307 40.1774 13.4792 40.0264 13.625C39.8753 13.7708 39.6813 13.8919 39.4443 13.9883C39.2074 14.0846 38.9235 14.1328 38.5928 14.1328ZM38.8467 13.1953C39.1696 13.1953 39.4456 13.1315 39.6748 13.0039C39.9066 12.8763 40.0824 12.7096 40.2021 12.5039C40.3245 12.2956 40.3857 12.0729 40.3857 11.8359V11.0625C40.3441 11.1042 40.2633 11.1432 40.1436 11.1797C40.0264 11.2135 39.8923 11.2435 39.7412 11.2695C39.5902 11.293 39.443 11.3151 39.2998 11.3359C39.1566 11.3542 39.0368 11.3698 38.9404 11.3828C38.7139 11.4115 38.5068 11.4596 38.3193 11.5273C38.1344 11.5951 37.986 11.6927 37.874 11.8203C37.7646 11.9453 37.71 12.112 37.71 12.3203C37.71 12.6094 37.8167 12.8281 38.0303 12.9766C38.2438 13.1224 38.516 13.1953 38.8467 13.1953ZM45.6367 14.1211C45.056 14.1211 44.556 13.9896 44.1367 13.7266C43.7201 13.4609 43.3997 13.0951 43.1758 12.6289C42.9518 12.1628 42.8398 11.6289 42.8398 11.0273C42.8398 10.418 42.9544 9.88021 43.1836 9.41406C43.4128 8.94531 43.7357 8.57943 44.1523 8.31641C44.569 8.05339 45.0599 7.92188 45.625 7.92188C46.0807 7.92188 46.487 8.00651 46.8438 8.17578C47.2005 8.34245 47.4883 8.57682 47.707 8.87891C47.9284 9.18099 48.0599 9.53385 48.1016 9.9375H46.9648C46.9023 9.65625 46.7591 9.41406 46.5352 9.21094C46.3138 9.00781 46.0169 8.90625 45.6445 8.90625C45.319 8.90625 45.0339 8.99219 44.7891 9.16406C44.5469 9.33333 44.3581 9.57552 44.2227 9.89062C44.0872 10.2031 44.0195 10.5729 44.0195 11C44.0195 11.4375 44.0859 11.8151 44.2188 12.1328C44.3516 12.4505 44.5391 12.6966 44.7813 12.8711C45.026 13.0456 45.3138 13.1328 45.6445 13.1328C45.8659 13.1328 46.0664 13.0924 46.2461 13.0117C46.4284 12.9284 46.5807 12.8099 46.7031 12.6562C46.8281 12.5026 46.9154 12.3177 46.9648 12.1016H48.1016C48.0599 12.4896 47.9336 12.8359 47.7227 13.1406C47.5117 13.4453 47.2292 13.6849 46.875 13.8594C46.5234 14.0339 46.1107 14.1211 45.6367 14.1211ZM50.5186 10.4375V14H49.3506V6H50.5029V8.97656H50.5771C50.7178 8.65365 50.9326 8.39714 51.2217 8.20703C51.5107 8.01693 51.8883 7.92188 52.3545 7.92188C52.766 7.92188 53.1253 8.00651 53.4326 8.17578C53.7425 8.34505 53.9821 8.59766 54.1514 8.93359C54.3232 9.26693 54.4092 9.68359 54.4092 10.1836V14H53.2412V10.3242C53.2412 9.88411 53.1279 9.54297 52.9014 9.30078C52.6748 9.05599 52.3597 8.93359 51.9561 8.93359C51.68 8.93359 51.4326 8.99219 51.2139 9.10937C50.9977 9.22656 50.8271 9.39844 50.7021 9.625C50.5798 9.84896 50.5186 10.1198 50.5186 10.4375ZM58.4951 14.1211C57.9326 14.1211 57.4417 13.9922 57.0225 13.7344C56.6032 13.4766 56.2777 13.1159 56.0459 12.6523C55.8141 12.1888 55.6982 11.6471 55.6982 11.0273C55.6982 10.4049 55.8141 9.86068 56.0459 9.39453C56.2777 8.92839 56.6032 8.56641 57.0225 8.30859C57.4417 8.05078 57.9326 7.92188 58.4951 7.92188C59.0576 7.92188 59.5485 8.05078 59.9678 8.30859C60.387 8.56641 60.7126 8.92839 60.9443 9.39453C61.1761 9.86068 61.292 10.4049 61.292 11.0273C61.292 11.6471 61.1761 12.1888 60.9443 12.6523C60.7126 13.1159 60.387 13.4766 59.9678 13.7344C59.5485 13.9922 59.0576 14.1211 58.4951 14.1211ZM58.499 13.1406C58.8636 13.1406 59.1657 13.0443 59.4053 12.8516C59.6449 12.6589 59.8219 12.4023 59.9365 12.082C60.0537 11.7617 60.1123 11.4089 60.1123 11.0234C60.1123 10.6406 60.0537 10.2891 59.9365 9.96875C59.8219 9.64583 59.6449 9.38672 59.4053 9.19141C59.1657 8.99609 58.8636 8.89844 58.499 8.89844C58.1318 8.89844 57.8271 8.99609 57.585 9.19141C57.3454 9.38672 57.167 9.64583 57.0498 9.96875C56.9352 10.2891 56.8779 10.6406 56.8779 11.0234C56.8779 11.4089 56.9352 11.7617 57.0498 12.082C57.167 12.4023 57.3454 12.6589 57.585 12.8516C57.8271 13.0443 58.1318 13.1406 58.499 13.1406Z" fill="#004E89"/>
</g>
<defs>
<clipPath id="clip0_418_3268">
<rect width="36" height="20" fill="white" transform="translate(26)"/>
</clipPath>
</defs>
</svg>
