<svg width="68" height="20" viewBox="0 0 68 20" fill="none" xmlns="http://www.w3.org/2000/svg">
<rect width="68" height="20" rx="8" fill="#F7C59F"/>
<path d="M22.5938 5.59997H20.9688L20.787 5.24222C20.7195 5.10934 20.6158 4.99758 20.4874 4.91947C20.3591 4.84136 20.2112 4.79998 20.0603 4.79997H18.6988L18.0062 4.11796C17.75 3.86596 17.3125 4.04446 17.3125 4.40072V8.14673L20.5625 9.28948V8.39998H21.375C22.2726 8.39998 23 7.68373 23 6.79997V5.99997C23 5.77897 22.8182 5.59997 22.5938 5.59997ZM19.75 6.79997C19.5255 6.79997 19.3438 6.62097 19.3438 6.39997C19.3438 6.17897 19.5255 5.99997 19.75 5.99997C19.9745 5.99997 20.1562 6.17897 20.1562 6.39997C20.1562 6.62097 19.9745 6.79997 19.75 6.79997ZM12.4375 8.79998C11.9896 8.79998 11.625 8.44098 11.625 7.99998C11.625 7.55823 11.2612 7.19997 10.8125 7.19997C10.3638 7.19997 10 7.55823 10 7.99998C10 9.04148 10.6812 9.92123 11.625 10.2525V15.6C11.625 15.821 11.8068 16 12.0312 16H13.6562C13.8807 16 14.0625 15.821 14.0625 15.6V12.8H18.125V15.6C18.125 15.821 18.3068 16 18.5312 16H20.1562C20.3807 16 20.5625 15.821 20.5625 15.6V10.1387L16.7552 8.79998H12.4375Z" fill="#FF6B35"/>
<path d="M39.5337 8.60156H38.3149C38.2681 8.34115 38.1808 8.11198 38.0532 7.91406C37.9256 7.71615 37.7694 7.54818 37.5845 7.41016C37.3996 7.27214 37.1925 7.16797 36.9634 7.09766C36.7368 7.02734 36.4959 6.99219 36.2407 6.99219C35.7798 6.99219 35.367 7.10807 35.0024 7.33984C34.6405 7.57161 34.354 7.91146 34.1431 8.35937C33.9347 8.80729 33.8306 9.35417 33.8306 10C33.8306 10.651 33.9347 11.2005 34.1431 11.6484C34.354 12.0964 34.6418 12.4349 35.0063 12.6641C35.3709 12.8932 35.7811 13.0078 36.2368 13.0078C36.4894 13.0078 36.729 12.974 36.9556 12.9062C37.1847 12.8359 37.3918 12.7331 37.5767 12.5977C37.7616 12.4622 37.9178 12.2969 38.0454 12.1016C38.1756 11.9036 38.2655 11.6771 38.3149 11.4219L39.5337 11.4258C39.4686 11.819 39.3423 12.181 39.1548 12.5117C38.9699 12.8398 38.7316 13.1237 38.4399 13.3633C38.1509 13.6003 37.8201 13.7839 37.4478 13.9141C37.0754 14.0443 36.6691 14.1094 36.229 14.1094C35.5363 14.1094 34.9191 13.9453 34.3774 13.6172C33.8358 13.2865 33.4087 12.8138 33.0962 12.1992C32.7863 11.5846 32.6313 10.8516 32.6313 10C32.6313 9.14583 32.7876 8.41276 33.1001 7.80078C33.4126 7.1862 33.8397 6.71484 34.3813 6.38672C34.923 6.05599 35.5389 5.89062 36.229 5.89062C36.6535 5.89062 37.0493 5.95182 37.4165 6.07422C37.7863 6.19401 38.1183 6.37109 38.4126 6.60547C38.7069 6.83724 38.9504 7.12109 39.1431 7.45703C39.3358 7.79036 39.466 8.17187 39.5337 8.60156ZM42.6304 14.1328C42.2502 14.1328 41.9064 14.0625 41.5991 13.9219C41.2918 13.7786 41.0483 13.5716 40.8687 13.3008C40.6916 13.0299 40.603 12.6979 40.603 12.3047C40.603 11.9661 40.6681 11.6875 40.7983 11.4687C40.9285 11.25 41.1043 11.0768 41.3257 10.9492C41.547 10.8216 41.7944 10.7253 42.0679 10.6602C42.3413 10.5951 42.62 10.5456 42.9038 10.5117C43.2632 10.4701 43.5549 10.4362 43.7788 10.4102C44.0028 10.3815 44.1655 10.3359 44.2671 10.2734C44.3687 10.2109 44.4194 10.1094 44.4194 9.96875V9.94141C44.4194 9.60026 44.3231 9.33594 44.1304 9.14844C43.9403 8.96094 43.6564 8.86719 43.2788 8.86719C42.8856 8.86719 42.5757 8.95443 42.3491 9.12891C42.1252 9.30078 41.9702 9.49219 41.8843 9.70312L40.7866 9.45312C40.9168 9.08854 41.1069 8.79427 41.3569 8.57031C41.6095 8.34375 41.8999 8.17969 42.228 8.07812C42.5562 7.97396 42.9012 7.92188 43.2632 7.92188C43.5028 7.92188 43.7567 7.95052 44.0249 8.00781C44.2957 8.0625 44.5483 8.16406 44.7827 8.3125C45.0197 8.46094 45.2137 8.67318 45.3647 8.94922C45.5158 9.22266 45.5913 9.57813 45.5913 10.0156V14H44.4507V13.1797H44.4038C44.3283 13.3307 44.215 13.4792 44.064 13.625C43.9129 13.7708 43.7189 13.8919 43.4819 13.9883C43.245 14.0846 42.9611 14.1328 42.6304 14.1328ZM42.8843 13.1953C43.2072 13.1953 43.4832 13.1315 43.7124 13.0039C43.9442 12.8763 44.12 12.7096 44.2397 12.5039C44.3621 12.2956 44.4233 12.0729 44.4233 11.8359V11.0625C44.3817 11.1042 44.3009 11.1432 44.1812 11.1797C44.064 11.2135 43.9299 11.2435 43.7788 11.2695C43.6278 11.293 43.4806 11.3151 43.3374 11.3359C43.1942 11.3542 43.0744 11.3698 42.978 11.3828C42.7515 11.4115 42.5444 11.4596 42.3569 11.5273C42.172 11.5951 42.0236 11.6927 41.9116 11.8203C41.8022 11.9453 41.7476 12.112 41.7476 12.3203C41.7476 12.6094 41.8543 12.8281 42.0679 12.9766C42.2814 13.1224 42.5535 13.1953 42.8843 13.1953ZM42.1499 7.27344L41.3647 7.25C41.3647 6.81771 41.4806 6.47266 41.7124 6.21484C41.9468 5.95703 42.2358 5.82812 42.5796 5.82812C42.7384 5.82812 42.8778 5.85547 42.9976 5.91016C43.1174 5.96224 43.2293 6.02344 43.3335 6.09375C43.4403 6.16146 43.5457 6.22266 43.6499 6.27734C43.7567 6.32943 43.8752 6.35547 44.0054 6.35547C44.1564 6.35547 44.2788 6.29818 44.3726 6.18359C44.4689 6.06901 44.5171 5.92708 44.5171 5.75781L45.2866 5.80859C45.2866 6.24349 45.1694 6.58594 44.9351 6.83594C44.7007 7.08333 44.4129 7.20833 44.0718 7.21094C43.8869 7.21094 43.7332 7.1849 43.6108 7.13281C43.491 7.07812 43.3843 7.01693 43.2905 6.94922C43.1968 6.87891 43.1004 6.81641 43.0015 6.76172C42.9025 6.70703 42.784 6.67969 42.646 6.67969C42.5002 6.67969 42.3804 6.73698 42.2866 6.85156C42.1955 6.96354 42.1499 7.10417 42.1499 7.27344ZM49.6743 14.1211C49.1118 14.1211 48.6209 13.9922 48.2017 13.7344C47.7824 13.4766 47.4569 13.1159 47.2251 12.6523C46.9933 12.1888 46.8774 11.6471 46.8774 11.0273C46.8774 10.4049 46.9933 9.86068 47.2251 9.39453C47.4569 8.92839 47.7824 8.56641 48.2017 8.30859C48.6209 8.05078 49.1118 7.92188 49.6743 7.92188C50.2368 7.92188 50.7277 8.05078 51.147 8.30859C51.5662 8.56641 51.8918 8.92839 52.1235 9.39453C52.3553 9.86068 52.4712 10.4049 52.4712 11.0273C52.4712 11.6471 52.3553 12.1888 52.1235 12.6523C51.8918 13.1159 51.5662 13.4766 51.147 13.7344C50.7277 13.9922 50.2368 14.1211 49.6743 14.1211ZM49.6782 13.1406C50.0428 13.1406 50.3449 13.0443 50.5845 12.8516C50.8241 12.6589 51.0011 12.4023 51.1157 12.082C51.2329 11.7617 51.2915 11.4089 51.2915 11.0234C51.2915 10.6406 51.2329 10.2891 51.1157 9.96875C51.0011 9.64583 50.8241 9.38672 50.5845 9.19141C50.3449 8.99609 50.0428 8.89844 49.6782 8.89844C49.311 8.89844 49.0063 8.99609 48.7642 9.19141C48.5246 9.38672 48.3462 9.64583 48.229 9.96875C48.1144 10.2891 48.0571 10.6406 48.0571 11.0234C48.0571 11.4089 48.1144 11.7617 48.229 12.082C48.3462 12.4023 48.5246 12.6589 48.7642 12.8516C49.0063 13.0443 49.311 13.1406 49.6782 13.1406Z" fill="#FF6B35"/>
</svg>
