<svg width="45" height="51" viewBox="0 0 45 51" fill="none" xmlns="http://www.w3.org/2000/svg">
<path d="M3.07681 14.6402C15.7096 14.6402 28.3424 14.6402 41.3581 14.6402C41.12 18.9258 40.873 23.1979 40.5295 27.4743C40.4886 27.9868 40.4476 28.4993 40.4054 29.0272C40.3198 30.0956 40.2333 31.1639 40.1464 32.2321C40.0358 33.5942 39.9286 34.9565 39.8222 36.3189C39.7186 37.6352 39.6111 38.9512 39.5041 40.2673C39.4479 40.9949 39.4479 40.9949 39.3906 41.7371C38.9177 47.4209 38.9177 47.4209 37.4518 49.1617C36.0455 50.3043 35.1122 50.2382 33.3153 50.2438C32.9189 50.2458 32.9189 50.2458 32.5144 50.2478C31.6384 50.2515 30.7625 50.2522 29.8865 50.2527C29.2783 50.2539 28.6701 50.2552 28.0619 50.2566C26.7858 50.2589 25.5098 50.2597 24.2337 50.2594C22.5988 50.2594 20.9639 50.2647 19.329 50.2715C18.0723 50.2758 16.8157 50.2766 15.559 50.2764C14.9563 50.2768 14.3536 50.2786 13.7508 50.2816C12.9074 50.2854 12.0641 50.2843 11.2206 50.2819C10.7407 50.2825 10.2608 50.2831 9.76628 50.2836C8.59269 50.1908 7.95104 50.0533 6.98306 49.4058C5.83756 47.9138 5.60131 46.6215 5.41141 44.7717C5.38197 44.4916 5.35253 44.2114 5.3222 43.9228C5.21712 42.8865 5.12253 41.8496 5.02994 40.812C4.99115 40.3784 4.95236 39.9448 4.9124 39.4981C4.61702 36.1489 4.34163 32.7982 4.0709 29.4469C3.98176 28.3487 3.89103 27.2508 3.8003 26.1528C3.69144 24.8325 3.58407 23.5121 3.47659 22.1917C3.43632 21.7035 3.39605 21.2152 3.35456 20.7121C3.31798 20.2567 3.2814 19.8012 3.24371 19.332C3.21137 18.9339 3.17903 18.5358 3.1457 18.1257C3.07572 16.9657 3.07681 15.8022 3.07681 14.6402ZM12.4518 18.1558C12.0054 20.5214 12.1008 22.727 12.2657 25.1214C12.2913 25.5245 12.3169 25.9275 12.3433 26.3428C12.4257 27.626 12.512 28.9089 12.5983 30.1919C12.6535 31.0497 12.7084 31.9075 12.7631 32.7653C12.8168 33.5947 12.8707 34.424 12.9248 35.2533C12.9621 35.8254 12.9621 35.8254 13.0001 36.409C13.1609 38.7938 13.3704 41.1697 13.6237 43.5464C14.2706 43.6957 14.9223 43.8253 15.5768 43.937C16.2547 43.2592 16.0248 42.3831 16.0304 41.4792C16.0293 41.1825 16.0281 40.8858 16.0269 40.5801C16.0262 40.2692 16.0254 39.9583 16.0247 39.6379C15.9926 35.9231 15.7472 32.2223 15.4882 28.5175C15.4045 27.3155 15.3253 26.1132 15.2465 24.9109C15.1946 24.1443 15.1425 23.3778 15.0901 22.6114C15.0664 22.253 15.0428 21.8945 15.0185 21.5253C14.9951 21.1961 14.9716 20.8669 14.9475 20.5278C14.9275 20.2384 14.9076 19.9491 14.887 19.651C14.8307 18.9 14.8307 18.9 14.4049 18.1558C13.7604 18.1558 13.1159 18.1558 12.4518 18.1558ZM21.4362 18.1558C20.9324 18.572 20.9324 18.572 20.9986 19.5425C20.9995 19.9857 21.0003 20.429 21.0012 20.8857C21.0012 21.3862 21.0013 21.8867 21.0013 22.4023C21.0033 22.9527 21.0053 23.503 21.0074 24.0533C21.0081 24.6133 21.0087 25.1732 21.0091 25.7332C21.0106 27.2095 21.0144 28.6859 21.0187 30.1623C21.0227 31.6678 21.0245 33.1733 21.0265 34.6788C21.0307 37.6347 21.0374 40.5905 21.0456 43.5464C21.6925 43.6957 22.3442 43.8253 22.9987 43.937C23.5025 43.5209 23.5025 43.5209 23.4363 42.5504C23.4354 42.1071 23.4346 41.6638 23.4337 41.2072C23.4336 40.7067 23.4336 40.2062 23.4336 39.6905C23.4316 39.1402 23.4295 38.5899 23.4275 38.0395C23.4267 37.4796 23.4262 36.9196 23.4258 36.3597C23.4243 34.8833 23.4205 33.4069 23.4161 31.9305C23.4121 30.4251 23.4104 28.9196 23.4084 27.4141C23.4042 24.4582 23.3975 21.5023 23.3893 18.5464C22.7424 18.3971 22.0907 18.2675 21.4362 18.1558ZM30.0299 18.1558C29.5989 19.0179 29.5534 19.5708 29.4874 20.5278C29.464 20.8569 29.4405 21.1861 29.4164 21.5253C29.3928 21.8837 29.3692 22.2421 29.3448 22.6114C29.3194 22.9837 29.2939 23.3561 29.2677 23.7398C29.214 24.5331 29.1612 25.3265 29.1092 26.1199C29.0307 27.3091 28.948 28.498 28.8649 29.6869C28.5514 34.3145 28.3921 38.9085 28.4674 43.5464C29.1144 43.6957 29.7661 43.8253 30.4206 43.937C31.2463 43.1113 31.0146 41.3519 31.0919 40.2078C31.1165 39.8637 31.141 39.5195 31.1663 39.1649C31.2183 38.4294 31.2695 37.6937 31.3199 36.9581C31.395 35.8632 31.4728 34.7686 31.5512 33.674C31.8133 29.966 32.0459 26.2565 32.2394 22.5442C32.2689 22.0176 32.2689 22.0176 32.299 21.4804C32.3148 21.1576 32.3307 20.8348 32.347 20.5022C32.3617 20.218 32.3763 19.9337 32.3915 19.6408C32.4225 18.8965 32.4225 18.8965 31.9831 18.1558C31.3385 18.1558 30.694 18.1558 30.0299 18.1558Z" fill="#001D3D"/>
<path d="M17.7924 0.0939667C18.134 0.0908137 18.4756 0.0876607 18.8276 0.0844121C19.5527 0.0789982 20.2778 0.0748132 21.0028 0.0717461C22.1098 0.0650355 23.2163 0.047901 24.3232 0.0306427C25.0271 0.0266859 25.731 0.0233596 26.435 0.0207245C26.7654 0.0138854 27.0959 0.00704634 27.4364 0C29.012 0.00578215 29.8285 0.0630024 31.1991 0.906974C32.642 2.45782 32.8023 4.00409 32.7643 6.04642C33.2166 6.03722 33.2166 6.03722 33.678 6.02782C35.0417 6.00349 36.4054 5.98823 37.7692 5.97318C38.4811 5.95845 38.4811 5.95845 39.2073 5.94342C39.889 5.93776 39.889 5.93776 40.5844 5.93198C41.0038 5.92584 41.4231 5.91971 41.8552 5.91338C42.9206 6.04642 42.9206 6.04642 43.6311 6.56932C44.3369 7.56222 44.4347 8.35363 44.4831 9.56205C44.0386 10.4712 43.636 11.1903 42.9206 11.9058C42.3847 11.9456 41.8469 11.9586 41.3095 11.9607C40.7887 11.964 40.7887 11.964 40.2573 11.9674C39.8734 11.9679 39.4894 11.9683 39.0938 11.9687C38.6918 11.9707 38.2898 11.9726 37.8756 11.9746C36.539 11.9803 35.2025 11.983 33.866 11.9851C32.941 11.9874 32.0161 11.9896 31.0911 11.9919C29.149 11.996 27.2069 11.9983 25.2648 11.9996C22.772 12.0018 20.2792 12.0112 17.7864 12.0223C15.875 12.0295 13.9636 12.0316 12.0522 12.0322C11.133 12.0334 10.2138 12.0365 9.29454 12.0416C8.01034 12.0483 6.72633 12.0476 5.44211 12.045C5.05976 12.0486 4.67741 12.0522 4.28347 12.0559C3.93403 12.0538 3.58458 12.0516 3.22455 12.0493C2.92079 12.0499 2.61704 12.0505 2.30408 12.0511C1.29756 11.8659 0.962104 11.5353 0.342437 10.7339C-0.0962472 9.29253 -0.17998 8.65975 0.488921 7.29154C1.12369 6.43705 1.12369 6.43705 1.51431 6.04642C2.26692 6.01225 3.02076 6.00463 3.77414 6.00827C4.45958 6.01016 4.45958 6.01016 5.15887 6.01209C5.88057 6.017 5.88057 6.017 6.61685 6.02201C7.34082 6.02465 7.34082 6.02465 8.07941 6.02735C9.27648 6.03197 10.4735 6.03841 11.6706 6.04642C11.6874 5.80623 11.7043 5.56604 11.7217 5.31858C11.7491 5.00286 11.7766 4.68714 11.8048 4.36185C11.8298 4.04915 11.8547 3.73645 11.8804 3.41428C12.159 2.05298 12.9595 1.42148 14.0143 0.57767C14.8388 -0.246861 16.6524 0.103826 17.7924 0.0939667ZM15.1862 3.70267C15.1862 4.47611 15.1862 5.24955 15.1862 6.04642C19.8268 6.04642 24.4674 6.04642 29.2487 6.04642C29.2487 5.27298 29.2487 4.49955 29.2487 3.70267C28.0744 3.11555 26.9922 3.26129 25.6842 3.26017C25.4097 3.25979 25.1353 3.25942 24.8524 3.25903C24.2719 3.25877 23.6914 3.25949 23.1108 3.26112C22.221 3.26321 21.3312 3.26114 20.4413 3.25864C19.8778 3.2589 19.3142 3.2594 18.7506 3.26017C17.9787 3.26083 17.9787 3.26083 17.1912 3.2615C16.0046 3.22676 16.0046 3.22676 15.1862 3.70267Z" fill="#001D3D"/>
</svg>
