<svg width="44" height="44" viewBox="0 0 44 44" fill="none" xmlns="http://www.w3.org/2000/svg">
<path d="M29.8819 5.25891C28.4238 3.59103 26.986 1.79402 25.102 0.667224C21.7507 -0.854534 18.6243 0.360041 16.1703 2.96091L15.5515 3.63932C14.8629 4.3766 14.1755 5.1148 13.4924 5.85791C13.0295 6.36156 12.5652 6.8637 12.0994 7.36421C9.3921 10.2653 6.7293 13.2059 4.12212 16.2093C3.33258 17.1189 2.54036 18.0181 1.72033 18.8969C1.11038 19.5415 0.613067 20.109 0.178178 20.8979C-0.134029 22.4046 -0.0497842 23.6284 0.540939 25.035C1.66066 26.0354 2.79567 26.6954 4.26348 26.7354L6.32378 26.7171C6.30974 28.3741 6.29796 30.0311 6.29044 31.6881C6.28765 32.3648 6.28453 33.0416 6.28111 33.7183C6.27241 34.7151 6.26384 35.7118 6.26003 36.7087L6.2571 37.6565C6.23817 39.2823 6.00148 41.0264 7.00663 42.3561C8.31141 43.4611 9.25817 43.9766 10.9416 44L11.648 43.9876C12.444 43.992 13.2395 43.9941 14.0355 43.987C14.6036 43.9813 15.1718 43.9781 15.74 43.9773C16.9275 43.9776 18.1148 43.9762 19.3023 43.9681C20.8437 43.9556 22.385 43.9456 23.9265 43.9457C25.1314 43.9461 26.3362 43.9448 27.5411 43.9404C28.116 43.9379 28.6909 43.9354 29.2658 43.9331C30.091 43.9323 30.916 43.9309 31.7412 43.924L32.4988 43.9166C33.9185 43.9186 35.153 43.9633 36.369 43.0835C37.6107 41.5648 37.8901 40.4325 37.8894 38.4915L37.868 37.5854C37.862 36.6156 37.8543 35.6462 37.8377 34.6765C37.8258 34.0035 37.8165 33.3305 37.8097 32.6574C37.7967 31.0997 37.7811 29.5421 37.7563 27.9845L37.7346 26.7171C39.9082 26.7433 41.5902 26.8448 43.3254 25.2396C43.9891 23.9616 44.0179 23.0912 43.9949 21.6566C43.8384 20.621 43.4197 19.9962 42.6552 19.345C41.6713 18.594 40.7775 17.7641 39.8955 16.882C35.6191 12.0811 35.619 12.0811 29.882 5.25905L29.8819 5.25891Z" fill="#001D3D"/>
</svg>
