<svg width="51" height="51" viewBox="0 0 51 51" fill="none" xmlns="http://www.w3.org/2000/svg">
<path d="M6.54602 7.92183C7.02038 7.91939 7.49474 7.91696 7.98347 7.91445C8.49013 7.91805 8.9968 7.92165 9.51881 7.92535C10.0478 7.92556 10.5768 7.92535 11.1058 7.92476C12.2104 7.9248 13.3148 7.92885 14.4194 7.93594C15.8363 7.94484 17.253 7.94501 18.67 7.94238C19.7604 7.94108 20.8508 7.94366 21.9412 7.94751C22.7181 7.94974 23.4949 7.94923 24.2718 7.94869C24.9759 7.95427 24.9759 7.95427 25.6943 7.95997C26.1088 7.96177 26.5233 7.96357 26.9503 7.96543C27.9331 8.06726 27.9331 8.06726 28.7144 8.84851C28.5679 10.0692 28.5679 10.0692 28.3237 11.1923C28.0442 11.1946 27.7647 11.1968 27.4768 11.1992C24.8387 11.2219 22.2008 11.25 19.5629 11.2843C18.2068 11.3018 16.8508 11.3171 15.4946 11.3276C13.9344 11.3397 12.3744 11.3611 10.8143 11.383C10.3288 11.3855 9.84329 11.388 9.34308 11.3906C8.88963 11.3983 8.43619 11.406 7.969 11.414C7.37177 11.4205 7.37177 11.4205 6.76249 11.4271C5.4171 11.6185 4.72684 11.8342 3.71437 12.7548C3.51751 13.8728 3.45476 14.7619 3.47404 15.8813C3.47188 16.1996 3.46971 16.5179 3.46748 16.8459C3.46286 17.8994 3.47236 18.9523 3.48244 20.0057C3.48311 20.7369 3.48308 21.4681 3.48239 22.1993C3.48304 23.7322 3.49035 25.2649 3.50266 26.7978C3.51815 28.7643 3.51986 30.7305 3.51693 32.6971C3.51573 34.2071 3.52046 35.717 3.52713 37.227C3.52988 37.9521 3.5311 38.6773 3.53077 39.4024C3.53147 40.4153 3.53981 41.4279 3.55034 42.4407C3.54919 42.7415 3.54805 43.0423 3.54687 43.3521C3.56452 44.4511 3.60279 45.3526 4.11515 46.3384C5.361 46.9859 6.64124 46.9084 8.01277 46.9032C8.3311 46.9065 8.64943 46.9098 8.9774 46.9132C10.0307 46.9223 11.0838 46.9227 12.1372 46.9222C12.8684 46.925 13.5996 46.928 14.3308 46.9313C15.8636 46.9365 17.3964 46.9371 18.9293 46.9348C20.8959 46.9325 22.8621 46.9445 24.8286 46.9603C26.3386 46.9704 27.8484 46.9715 29.3585 46.9701C30.0836 46.9707 30.8088 46.9745 31.5339 46.9815C32.5469 46.9901 33.5592 46.9864 34.5722 46.9795C34.873 46.9846 35.1738 46.9898 35.4836 46.9952C36.416 47.0024 36.416 47.0024 37.6987 46.7391C38.8998 45.4182 39.0205 44.2274 39.0395 42.4845C39.0472 42.0311 39.055 41.5776 39.0629 41.1104C39.0654 40.6249 39.0679 40.1394 39.0705 39.6392C39.081 38.8891 39.081 38.8891 39.0918 38.1237C39.1103 36.7989 39.1219 35.4742 39.1322 34.1493C39.1438 32.7955 39.162 31.4417 39.1796 30.088C39.2128 27.4353 39.2395 24.7826 39.2612 22.1298C40.3843 21.8856 40.3843 21.8856 41.605 21.7391C42.6499 22.7841 42.4872 23.2989 42.4935 24.7592C42.4973 25.2287 42.501 25.6981 42.5048 26.1818C42.5045 26.6916 42.5041 27.2014 42.5037 27.7267C42.5053 28.2542 42.507 28.7817 42.5088 29.3092C42.5117 30.4165 42.5116 31.5237 42.5096 32.6311C42.5073 34.0461 42.5139 35.461 42.523 36.8761C42.5287 37.9666 42.5291 39.057 42.5279 40.1475C42.5281 40.9217 42.5336 41.6959 42.5391 42.47C42.5366 42.9444 42.5342 43.4188 42.5317 43.9075C42.5319 44.3232 42.5322 44.739 42.5324 45.1673C42.2896 47.1291 41.6627 48.2932 40.1871 49.6066C38.5131 50.4308 37.2248 50.4805 35.3848 50.4693C35.0422 50.4733 34.6995 50.4773 34.3465 50.4814C33.2182 50.4923 32.0903 50.4916 30.962 50.4897C30.1749 50.4928 29.3878 50.4962 28.6008 50.4999C26.9527 50.5057 25.3048 50.5055 23.6567 50.5014C21.548 50.4969 19.4398 50.5101 17.3311 50.5282C15.7061 50.5397 14.0812 50.5404 12.4562 50.538C11.6789 50.5384 10.9016 50.5424 10.1244 50.5503C9.0359 50.56 7.9485 50.5547 6.86007 50.5456C6.38175 50.5546 6.38175 50.5546 5.89377 50.5637C3.74921 50.5245 2.65698 49.9631 1.10134 48.4898C-0.119569 47.1096 0.135223 45.5586 0.129604 43.8152C0.127037 43.4721 0.124471 43.1291 0.121826 42.7756C0.114109 41.6371 0.10956 40.4986 0.105667 39.36C0.103279 38.7772 0.103279 38.7772 0.100843 38.1826C0.0926899 36.1259 0.0871053 34.0691 0.0834465 32.0123C0.0791257 29.8878 0.0656909 27.7635 0.0501767 25.6391C0.0399624 24.0058 0.0366925 22.3725 0.0352897 20.7391C0.0333869 19.9561 0.0288442 19.173 0.021603 18.3899C0.0120905 17.2931 0.0124492 16.1966 0.0151634 15.0997C0.0101595 14.7769 0.00515556 14.4542 0 14.1217C0.0185438 12.0626 0.337584 10.8322 1.76125 9.23914C3.3824 8.1893 4.63205 7.92069 6.54602 7.92183Z" fill="#001D3D"/>
<path d="M45.9019 0.254761C47.8432 1.61969 49.6974 3.24516 50.5665 5.50989C50.6709 6.78038 50.4566 7.70382 49.7141 8.75035C49.5056 8.9785 49.297 9.20664 49.0822 9.4417C48.8346 9.71362 48.5871 9.98555 48.3321 10.2657C48.0457 10.5715 47.7594 10.8772 47.4644 11.1923C47.1409 11.5389 46.8174 11.8856 46.4841 12.2428C44.245 14.6277 41.9667 16.9749 39.6791 19.3132C38.5241 20.4943 37.3755 21.6803 36.24 22.8801C26.9181 32.7159 26.9181 32.7159 21.1769 33.1172C19.9813 33.0759 18.9308 32.9783 17.7769 32.6766C16.8972 29.6788 17.8246 26.1329 18.9487 23.3016C20.2565 21.0873 22.1707 19.38 24.0299 17.6345C24.535 17.1394 25.0389 16.6429 25.5415 16.1453C26.8527 14.854 28.1806 13.5815 29.5131 12.3122C30.873 11.01 32.2149 9.68942 33.559 8.37091C35.5177 6.45541 37.4817 4.54561 39.4613 2.65173C39.6679 2.45294 39.8745 2.25415 40.0874 2.04934C41.9076 0.315563 43.3832 -0.435846 45.9019 0.254761ZM43.9487 3.37976C43.4182 4.02289 42.897 4.67388 42.3862 5.33289C43.7398 6.6864 43.7398 6.6864 45.1206 8.06726C45.7652 7.42273 46.4097 6.7782 47.0737 6.11414C46.6273 5.65724 46.1795 5.20177 45.731 4.74695C45.4817 4.49316 45.2325 4.23938 44.9757 3.9779C44.4375 3.33517 44.4375 3.33517 43.9487 3.37976ZM37.962 9.22826C37.6126 9.56758 37.2633 9.9069 36.9033 10.2565C36.5212 10.6322 36.1394 11.0082 35.7578 11.3845C35.5656 11.5736 35.3733 11.7626 35.1753 11.9574C34.1564 12.96 33.1401 13.9651 32.1257 14.9722C31.0815 16.0078 30.0285 17.034 28.9731 18.0582C28.1602 18.8506 27.3544 19.65 26.5503 20.4513C26.1655 20.8323 25.778 21.2107 25.3879 21.5864C22.9636 23.9257 21.4586 25.7115 21.2925 29.161C25.0497 28.9852 26.93 27.0664 29.4254 24.4583C29.8133 24.0646 30.2018 23.6716 30.591 23.2793C31.6063 22.2522 32.6118 21.216 33.6155 20.1776C34.6443 19.1167 35.6821 18.0647 36.7191 17.012C38.7473 14.9504 40.7652 12.8793 42.7769 10.8016C42.166 9.50358 41.5216 8.62904 40.4331 7.67664C39.2269 7.67664 38.8125 8.39896 37.962 9.22826Z" fill="#001D3D"/>
</svg>
