<svg width="43" height="44" viewBox="0 0 43 44" fill="none" xmlns="http://www.w3.org/2000/svg">
<path d="M32.7984 0C33.4679 0.103111 34.1354 0.222468 34.7996 0.359592C35.12 1.39598 35.1684 2.04914 35.154 3.12396C35.151 3.4146 35.148 3.70523 35.1449 4.00468C35.141 4.22579 35.1371 4.44689 35.1331 4.6747C35.4233 4.74771 35.4233 4.74771 35.7194 4.82219C37.5707 5.37223 38.4824 5.98472 39.6188 7.64134C40.217 8.36904 40.7939 8.68887 41.5953 9.12466C42.7465 9.84236 42.7465 9.84236 42.9971 10.8229C43.0273 12.4474 42.8252 14.0114 42.1372 15.4625C41.7527 15.7801 41.361 16.0878 40.9647 16.3881C39.9713 17.2842 39.6305 17.8628 39.4755 19.2522C39.4434 19.8614 39.4207 20.4712 39.4065 21.0811C39.2079 24.4928 38.8738 27.6494 36.905 30.453C35.5212 32.5902 35.8292 35.6123 35.8002 38.1168C36.0625 38.1599 36.3247 38.203 36.5949 38.2474C37.4678 38.4764 37.4678 38.4764 38.0932 39.263C38.5569 40.5128 38.496 41.1527 38.1349 42.4319C37.6077 43.1486 37.2241 43.4623 36.4673 43.8703C34.5784 44.0577 32.9983 44.1352 31.4643 42.7915C30.7973 42.0723 30.7973 42.0723 30.5263 40.7014C30.18 39.1429 29.6954 38.3591 28.4626 37.3976C27.4708 37.055 26.4873 36.8545 25.4608 36.6784C25.4522 36.2446 25.4436 35.8107 25.4347 35.3637C25.416 34.7831 25.3968 34.2025 25.3774 33.6219C25.3727 33.3373 25.368 33.0527 25.3631 32.7594C25.2924 30.8993 24.9626 29.5661 24.1088 27.9436C23.7932 27.329 23.7932 27.329 23.4596 26.2502C22.8934 25.8541 22.8934 25.8541 22.1255 25.5311C21.7609 25.3382 21.3963 25.1454 21.0207 24.9467C19.7374 24.4308 18.8125 24.3628 17.4561 24.4523C17.4561 24.9269 17.4561 25.4016 17.4561 25.8907C17.6775 25.9518 17.8989 26.013 18.1271 26.0761C21.2663 27.005 21.2663 27.005 22.459 28.4078C23.4896 30.4989 23.624 32.3114 23.6681 34.6557C23.685 35.3028 23.7032 35.9499 23.7228 36.597C23.7287 36.8804 23.7345 37.1637 23.7406 37.4557C23.7274 38.123 23.7274 38.123 24.1267 38.4764C24.6051 38.5329 25.0849 38.5757 25.565 38.6112C26.8008 38.7468 27.5878 38.893 28.4626 39.9148C28.8905 41.299 28.8182 42.413 28.7961 43.8703C25.5692 43.8953 22.3423 43.9144 19.1153 43.9262C17.6167 43.9318 16.1183 43.9394 14.6198 43.9517C13.173 43.9634 11.7263 43.9698 10.2795 43.9726C9.72822 43.9746 9.17691 43.9785 8.62562 43.9843C7.85197 43.9922 7.07855 43.9932 6.30487 43.9927C5.64496 43.9963 5.64496 43.9963 4.97172 44C3.24605 43.8119 2.16822 43.255 1.00896 41.87C-0.134842 40.0888 -0.0907308 38.445 0.112602 36.3188C0.971195 34.4675 1.96236 33.3766 3.78142 32.7229C4.68972 32.6395 5.53258 32.6758 6.44965 32.7229C7.11671 33.4421 7.11671 33.4421 7.22094 34.3411C7.18654 34.6377 7.15215 34.9344 7.11671 35.2401C6.14917 35.9355 5.81703 36.0676 4.71947 36.184C4.29985 36.2285 3.88023 36.273 3.44789 36.3188C3.38598 36.7712 3.32407 37.2237 3.26028 37.6898C3.22546 37.9443 3.19063 38.1987 3.15475 38.4609C3.06799 39.2684 3.06799 39.2684 3.44789 40.2743C5.86931 40.393 8.29073 40.5117 10.7855 40.6339C10.5654 40.0406 10.3453 39.4473 10.1185 38.836C9.97104 37.2736 9.99497 35.7085 9.9934 34.1388C9.98523 33.72 9.97706 33.3012 9.96864 32.8697C9.95637 28.9115 10.6805 25.3746 13.1072 22.3074C16.0557 19.1346 19.2872 17.9413 23.3958 17.7661C24.3168 17.582 24.7795 17.2258 25.4608 16.5413C25.8349 15.3312 25.8539 14.3314 25.8986 13.0577C26.0582 10.5629 26.3602 8.73389 28.0339 6.93761C28.4256 6.57066 28.8255 6.2134 29.2352 5.87007C30.4791 4.8152 31.042 3.87372 31.6728 2.2924C32.4371 0.389558 32.4371 0.389558 32.7984 0ZM36.8008 9.3494C36.6907 9.94273 36.5807 10.5361 36.4673 11.1474C37.2927 11.3254 37.2927 11.3254 38.1349 11.507C38.3622 10.8267 38.3622 10.8267 38.4684 10.0686C38.2483 9.83126 38.0282 9.59393 37.8014 9.3494C37.4712 9.3494 37.141 9.3494 36.8008 9.3494Z" fill="#D7E3FC"/>
</svg>
