<svg width="430" height="224" viewBox="0 0 430 224" fill="none" xmlns="http://www.w3.org/2000/svg">
<path d="M197.299 169.284L195.374 164.669H184.239L182.315 169.284H179.496L189.325 146.177H190.322L200.151 169.284H197.299ZM194.343 162.259L189.807 151.067L185.27 162.259H194.343Z" fill="#001D3D"/>
<path d="M219.812 152.134C224.589 152.134 228.094 155.957 228.094 160.916C228.094 165.84 224.623 169.662 219.846 169.662C217.234 169.662 214.794 168.526 213.488 166.632V169.284H211.014V143.456H213.66V154.958C215 153.202 217.303 152.134 219.812 152.134ZM219.434 167.218C222.87 167.218 225.379 164.531 225.379 160.881C225.379 157.231 222.836 154.579 219.434 154.579C216.513 154.579 213.626 156.508 213.626 160.916C213.626 165.323 216.547 167.218 219.434 167.218Z" fill="#001D3D"/>
<path d="M247.265 152.375C247.815 152.375 248.159 152.444 248.502 152.513V154.855H247.506C244.791 154.855 242.248 156.577 242.248 159.779V169.284H239.601V152.513H242.076V154.889C243.313 153.236 245.272 152.375 247.265 152.375Z" fill="#001D3D"/>
<path d="M260.266 148.036C259.167 148.036 258.273 147.21 258.273 146.108C258.273 145.04 259.167 144.18 260.266 144.18C261.332 144.18 262.225 145.04 262.225 146.108C262.225 147.21 261.332 148.036 260.266 148.036ZM258.926 169.284V152.513H261.572V169.284H258.926Z" fill="#001D3D"/>
<path d="M287.832 152.513H290.341V167.665C290.341 172.831 287.076 175.861 282.196 175.861C278.69 175.861 275.975 174.277 274.326 172.624L275.872 170.764C277.488 172.176 279.378 173.416 282.127 173.416C285.529 173.416 287.694 171.522 287.694 167.803V166.322C286.354 168.078 283.983 169.112 281.474 169.112C276.766 169.112 273.26 165.53 273.26 160.64C273.26 155.785 276.766 152.134 281.474 152.134C284.12 152.134 286.526 153.271 287.832 155.199V152.513ZM281.886 166.667C284.808 166.667 287.729 164.841 287.729 160.64C287.729 156.439 284.773 154.648 281.886 154.648C278.484 154.648 275.941 157.128 275.941 160.675C275.941 164.222 278.484 166.667 281.886 166.667Z" fill="#001D3D"/>
<path d="M310.539 169.628C305.659 169.628 301.81 165.737 301.81 160.881C301.81 155.957 305.659 152.134 310.573 152.134C315.453 152.134 319.337 155.991 319.337 160.881C319.337 165.737 315.453 169.628 310.539 169.628ZM310.539 167.183C313.975 167.183 316.622 164.463 316.622 160.916C316.622 157.3 314.01 154.579 310.573 154.579C307.102 154.579 304.525 157.3 304.525 160.916C304.525 164.497 307.102 167.183 310.539 167.183Z" fill="#001D3D"/>
<path d="M187.792 222.504H178.787L163.322 176.772H173.495L183.461 208.867L193.359 176.772H203.257L187.792 222.504Z" fill="#001D3D"/>
<path d="M214.788 222.504H205.853V188.618H214.788V222.504ZM214.788 184.555H205.853V176.221H214.788V184.555Z" fill="#001D3D"/>
<path d="M238.734 222.504H229.386L217.289 188.618H227.255L234.335 211.002L241.483 188.618H250.9L238.734 222.504Z" fill="#001D3D"/>
<path d="M262.446 222.504H253.51V188.618H262.446V222.504ZM262.446 184.555H253.51V176.221H262.446V184.555Z" fill="#001D3D"/>
<path d="M275.875 198.123H284.948C290.447 198.123 292.715 195.299 292.715 191.304C292.715 187.516 290.447 184.692 284.948 184.692H275.875V198.123ZM275.875 222.504H266.321V176.772H286.46C295.395 176.772 301.1 183.315 301.1 191.58C301.1 199.913 295.395 205.905 286.46 205.905H275.875V222.504Z" fill="#001D3D"/>
<path d="M311.698 202.255H325.513C325.376 197.227 322.076 194.817 318.571 194.817C314.997 194.817 312.041 197.572 311.698 202.255ZM334.723 207.903H311.423C311.698 212.999 314.584 216.305 318.983 216.305C321.87 216.305 324.413 214.859 325.032 212.517H334.242C332.18 219.473 326.613 223.399 319.396 223.399C308.123 223.399 302.487 217.2 302.487 204.941C302.487 194.472 308.467 187.723 318.846 187.723C329.225 187.723 334.723 194.472 334.723 207.903Z" fill="#001D3D"/>
<path d="M356.988 209.005V200.189H365.305V209.831C365.305 216.994 361.181 223.399 351.627 223.399C341.729 223.399 337.812 217.063 337.812 209.762V179.458H346.61V188.618H365.305V194.954H346.61V208.867C346.61 213.137 348.122 215.616 351.765 215.616C355.339 215.616 356.988 213.206 356.988 209.005Z" fill="#001D3D"/>
<path d="M388.133 209.005V200.189H396.45V209.831C396.45 216.994 392.326 223.399 382.772 223.399C372.874 223.399 368.957 217.063 368.957 209.762V179.458H377.755V188.618H396.45V194.954H377.755V208.867C377.755 213.137 379.267 215.616 382.91 215.616C386.484 215.616 388.133 213.206 388.133 209.005Z" fill="#001D3D"/>
<path d="M429.039 198.88H420.447C419.966 195.574 418.179 194.404 414.123 194.404C410.755 194.404 408.831 195.23 408.831 197.227C408.831 199.225 410.687 200.051 414.33 201.084C418.179 202.186 421.822 202.944 424.433 203.977C428.008 205.423 430.001 207.765 430.001 212.173C430.001 219.198 424.846 223.399 415.223 223.399C404.844 223.399 399.071 218.509 398.933 211.622H408.144C408.144 214.79 410.824 216.649 415.154 216.649C418.316 216.649 421.134 215.685 421.134 213.137C421.134 210.726 418.591 209.969 415.704 209.28C409.999 207.903 406.838 206.938 404.432 205.423C401.27 203.426 400.17 200.809 400.17 197.778C400.17 192.062 404.088 187.723 414.398 187.723C424.158 187.723 428.557 191.58 429.039 198.88Z" fill="#001D3D"/>
<path d="M76.3727 0C80.6103 0.542886 80.6103 0.542886 84.0874 4.01736C85.1537 8.66689 86.0411 13.2156 86.8038 17.9152C87.1429 19.9091 87.1429 19.9091 87.4888 21.9432C88.9169 30.5444 90.0474 39.1209 90.6747 47.8215C90.8845 51.1002 90.8845 51.1002 92.7799 54.3972C95.7673 55.6452 95.7673 55.6452 99.4352 56.6298C116.117 61.9124 143.155 70.6447 152.759 86.156C154.769 91.2291 155.962 95.985 157.105 101.303C161.362 109.892 168.02 116.254 174.748 122.933C180.42 128.837 183.161 132.989 183.183 141.259C177.929 155.568 166.779 174.695 153.628 182.953C148.061 185.222 143.122 184.419 137.229 183.869C126.189 183.055 118.446 183.571 109.795 190.927C100.014 200.288 92.6206 209.648 89.3029 222.909C60.6174 222.909 31.9319 222.909 2.37717 222.909C1.61014 187.76 1.61014 187.76 1.4434 172.672C1.32947 162.411 1.19533 152.154 0.934493 141.896C0.7253 133.617 0.61208 125.341 0.562774 117.059C0.527683 113.914 0.459154 110.769 0.355229 107.626C-0.505537 80.4904 -0.505538 80.4904 8.75563 69.3282C14.5682 63.1543 20.5915 58.2452 27.9905 54.1496C34.4258 50.4936 36.6709 47.4008 40.2985 41.0422C45.5646 31.9507 45.5646 31.9507 49.3171 30.0759C49.6633 33.2502 49.6633 33.2502 50.0165 36.4887C50.3266 39.3095 50.6367 42.1302 50.9469 44.951C51.0982 46.3405 51.2495 47.7301 51.4053 49.1617C52.3032 57.3028 53.3247 65.4057 54.5326 73.5068C58.5486 72.9335 62.5645 72.3602 66.7022 71.7695C66.3257 70.9186 65.9492 70.0676 65.5613 69.1908C61.548 58.4223 60.9099 48.1748 60.8347 36.8077C60.8112 35.337 60.7877 33.8662 60.7634 32.3509C60.8385 21.6632 62.0161 11.2797 69.2124 2.79502C71.9178 0.542886 71.9178 0.542886 76.3727 0ZM124.073 94.3536C119.484 98.9399 114.894 103.526 110.165 108.251C113.202 114.321 115.231 117.18 119.944 121.715C121.042 122.781 122.14 123.847 123.272 124.945C124.11 125.742 124.948 126.54 125.812 127.361C128.68 124.495 131.549 121.628 134.504 118.675C132.209 116.382 129.915 114.089 127.55 111.726C128.124 110.723 128.698 109.719 129.289 108.686C131.498 104.432 131.498 104.432 131.027 97.8281C128.732 96.6815 126.438 95.5349 124.073 94.3536ZM92.7799 136.047C92.7799 140.06 92.7799 144.073 92.7799 148.208C102.533 148.208 112.286 148.208 122.335 148.208C122.335 149.354 122.335 150.501 122.335 151.682C119.003 152.002 119.003 152.001 115.605 152.327C106.663 153.32 97.975 155.076 89.1942 157.003C86.9369 157.488 86.9369 157.488 84.634 157.983C80.9733 158.771 77.3146 159.569 73.6563 160.369C74.23 164.382 74.8037 168.395 75.3948 172.529C109.421 166.172 109.421 166.172 143.197 158.631C142.336 148.312 142.336 148.312 141.458 137.785C117.363 136.925 117.363 136.925 92.7799 136.047Z" fill="#001D3D"/>
<path d="M115.381 5.75459C117.649 10.2879 117.316 13.6191 117.289 18.6889C117.283 20.5588 117.278 22.4287 117.272 24.3552C117.257 26.3147 117.243 28.2742 117.228 30.293C117.22 32.266 117.212 34.2389 117.204 36.2716C117.183 41.1554 117.155 46.039 117.119 50.9227C105.678 48.7232 105.678 48.7232 101.473 45.711C99.3269 39.5216 98.7693 33.0913 97.9955 26.6014C97.7086 24.7024 97.4218 22.8034 97.1262 20.8468C98.2737 14.6836 101.08 11.9845 105.466 7.66827C108.427 5.75459 108.427 5.75459 115.381 5.75459Z" fill="#001D3D"/>
<path d="M43.483 94.2131H142.527L146.695 175.575L43.483 176.348V94.2131Z" fill="#001D3D"/>
</svg>
